<svg width="25" height="26" viewBox="0 0 25 26" fill="none" xmlns="http://www.w3.org/2000/svg">
<g clip-path="url(#clip0_2332_945)">
<path d="M12.5 1.625C15.5208 1.625 18.099 2.73542 20.2344 4.95625C22.3698 7.17708 23.4375 9.85833 23.4375 13C23.4375 16.1417 22.3698 18.8229 20.2344 21.0437C18.099 23.2646 15.5208 24.375 12.5 24.375C9.47917 24.375 6.90104 23.2646 4.76562 21.0437C2.63021 18.8229 1.5625 16.1417 1.5625 13C1.5625 9.85833 2.61719 7.17708 4.72656 4.95625L4.76562 4.91563C6.90104 2.72188 9.47917 1.625 12.5 1.625ZM5.85938 6.09375C4.03646 7.98958 3.125 10.2917 3.125 13C3.125 15.7083 4.03646 17.9969 5.85938 19.8656V19.9062C7.68229 21.8021 9.89583 22.75 12.5 22.75C15.0781 22.75 17.2786 21.8021 19.1016 19.9062L19.1406 19.8656C20.9635 17.9698 21.875 15.6812 21.875 13C21.875 10.2917 20.9635 7.98958 19.1406 6.09375H19.1016C17.3047 4.19792 15.1042 3.25 12.5 3.25C9.89583 3.25 7.68229 4.19792 5.85938 6.09375Z" fill="white"/>
<path d="M5.85938 6.09375C7.68229 4.19792 9.89583 3.25 12.5 3.25C15.1042 3.25 17.3047 4.19792 19.1016 6.09375H19.1406C20.9635 7.98958 21.875 10.2917 21.875 13C21.875 15.6812 20.9635 17.9698 19.1406 19.8656L19.1016 19.9062C17.2786 21.8021 15.0781 22.75 12.5 22.75C9.89583 22.75 7.68229 21.8021 5.85938 19.9062V19.8656C4.03646 17.9969 3.125 15.7083 3.125 13C3.125 10.2917 4.03646 7.98958 5.85938 6.09375Z" fill="#DADCE7"/>
<path d="M25 13C25 16.6021 23.776 19.6625 21.3281 22.1812C18.9062 24.7271 15.9635 26 12.5 26C9.03646 26 6.08073 24.7271 3.63281 22.1812C1.21094 19.6625 0 16.6021 0 13C0 9.39792 1.21094 6.32396 3.63281 3.77813C6.08073 1.25938 9.03646 0 12.5 0C15.9635 0 18.9062 1.25938 21.3281 3.77813C23.776 6.32396 25 9.39792 25 13ZM12.5 1.625C9.47917 1.625 6.90104 2.72188 4.76562 4.91563L4.72656 4.95625C2.61719 7.17708 1.5625 9.85833 1.5625 13C1.5625 16.1417 2.63021 18.8229 4.76562 21.0437C6.90104 23.2646 9.47917 24.375 12.5 24.375C15.5208 24.375 18.099 23.2646 20.2344 21.0437C22.3698 18.8229 23.4375 16.1417 23.4375 13C23.4375 9.85833 22.3698 7.17708 20.2344 4.95625C18.099 2.73542 15.5208 1.625 12.5 1.625Z" fill="#9696A3"/>
<path d="M12.5 8.125C11.1979 8.125 10.0911 8.58542 9.17969 9.50625L9.14062 9.54688C8.25521 10.4948 7.8125 11.6458 7.8125 13C7.8125 14.3271 8.26823 15.4646 9.17969 16.4125L9.33594 16.6156C10.2214 17.4552 11.276 17.875 12.5 17.875C13.776 17.875 14.8698 17.401 15.7813 16.4531L15.8203 16.4125C16.7318 15.4646 17.1875 14.3271 17.1875 13C17.1875 11.7271 16.7839 10.6302 15.9766 9.70937L15.7813 9.54688C14.8698 8.59896 13.776 8.125 12.5 8.125ZM8.04688 8.36875C9.27083 7.12292 10.7552 6.5 12.5 6.5C14.2188 6.5 15.6771 7.12292 16.875 8.36875H16.9141C18.138 9.64167 18.75 11.1854 18.75 13C18.75 14.7875 18.138 16.3042 16.9141 17.55L16.875 17.5906C15.6771 18.8635 14.2188 19.5 12.5 19.5C10.7552 19.5 9.27083 18.8635 8.04688 17.5906V17.55C6.84896 16.3042 6.25 14.7875 6.25 13C6.25 11.1854 6.84896 9.64167 8.04688 8.36875Z" fill="#228B22"/>
<path d="M12.5 8.125C13.776 8.125 14.8698 8.59896 15.7813 9.54688L15.9766 9.70937C16.7839 10.6302 17.1875 11.7271 17.1875 13C17.1875 14.3271 16.7318 15.4646 15.8203 16.4125L15.7813 16.4531C14.8698 17.401 13.776 17.875 12.5 17.875C11.276 17.875 10.2214 17.4552 9.33594 16.6156L9.17969 16.4125C8.26823 15.4646 7.8125 14.3271 7.8125 13C7.8125 11.6458 8.25521 10.4948 9.14062 9.54688L9.17969 9.50625C10.0911 8.58542 11.1979 8.125 12.5 8.125Z" fill="#BBE6BB"/>
</g>
<defs>
<clipPath id="clip0_2332_945">
<rect width="25" height="26" fill="white"/>
</clipPath>
</defs>
</svg>
