<svg width="18" height="20" viewBox="0 0 18 20" fill="none" xmlns="http://www.w3.org/2000/svg">
<path d="M0.608643 19.4278V15.5365C0.608643 15.0596 0.772896 14.659 1.1014 14.3348V14.3061C1.44922 13.9628 1.86468 13.7911 2.34777 13.7911H7.53618V8.24034C7.05309 8.03051 6.59898 7.72531 6.17386 7.32474C5.34294 6.48545 4.92749 5.47449 4.92749 4.29185C4.92749 3.10921 5.34294 2.09824 6.17386 1.25894C7.04342 0.419647 8.07725 0 9.27532 0C10.4734 0 11.4975 0.419647 12.3478 1.25894C13.198 2.09824 13.6231 3.10921 13.6231 4.29185C13.6231 5.47449 13.198 6.48545 12.3478 7.32474C11.942 7.72531 11.4975 8.03051 11.0144 8.24034V13.7911H16.2608C16.7246 13.7911 17.1304 13.9628 17.4782 14.3061C17.826 14.6495 17.9999 15.0501 17.9999 15.5079V19.4278L17.826 19.8283L17.4202 20H1.18835L0.782562 19.8283C0.66662 19.7139 0.608643 19.5804 0.608643 19.4278Z" fill="black"/>
</svg>
