<svg width="20" height="21" viewBox="0 0 20 21" fill="none" xmlns="http://www.w3.org/2000/svg">
<path d="M0.882345 5.43858L5.88236 10.3772L0.686275 15.6101C-0.228758 16.5258 -0.228758 17.4416 0.686275 18.3574L2.12419 19.7637C3.0828 20.7231 4.01961 20.7449 4.93464 19.8291L10.1307 14.6289L15.0654 19.5348C15.9804 20.4505 16.9172 20.4288 17.8758 19.4694L19.3137 18.063C20.2288 17.1473 20.2288 16.2206 19.3137 15.283L14.3791 10.3772L19.085 5.73294C20.0436 4.81718 20.0436 3.86872 19.085 2.88755L17.6471 1.51388C16.7102 0.55451 15.7734 0.55451 14.8366 1.51388L10.1307 6.19083L5.13071 1.18682C4.21568 0.271059 3.28975 0.271059 2.35293 1.18682L0.915057 2.59319C-0.0217626 3.57436 -0.0326877 4.52282 0.882345 5.43858Z" fill="#EF5DA8"/>
</svg>
