<svg width="25" height="18" viewBox="0 0 25 18" fill="none" xmlns="http://www.w3.org/2000/svg">
<path d="M17.3993 2.3763L17.6435 2.07522C18.2133 1.51321 18.8848 1.2322 19.6581 1.2322C20.4518 1.2322 21.1335 1.51321 21.7033 2.07522C22.2527 2.63724 22.5275 3.30965 22.5275 4.09246C22.5275 4.85519 22.2527 5.51757 21.7033 6.07958C22.3341 6.34052 22.9141 6.74196 23.4432 7.28391C24.4811 8.32765 25 9.58215 25 11.0474V11.0775C25 11.8603 24.4811 12.5127 23.4432 13.0345C22.7513 13.4159 21.9678 13.6668 21.0928 13.7872V13.6668C21.0928 11.2983 20.2483 9.28106 18.5592 7.61509V7.58498L17.3077 6.56131L17.4908 6.1398L17.6129 6.07958L17.5214 6.01937C17.6842 5.4975 17.7656 4.96559 17.7656 4.42365C17.7656 3.68098 17.6435 2.99853 17.3993 2.3763ZM15.812 7.31401C16.4428 7.65523 17.0228 8.08678 17.5519 8.60865C18.956 10.0137 19.6581 11.6997 19.6581 13.6668V13.8775C19.5767 14.841 18.8746 15.664 17.5519 16.3464C16.1681 17.069 14.4892 17.4303 12.5153 17.4303C10.5413 17.4303 8.85225 17.069 7.4481 16.3464C6.1457 15.664 5.45379 14.841 5.37239 13.8775V13.6668C5.37239 11.6997 6.0643 10.0137 7.4481 8.60865C7.99755 8.08678 8.57751 7.65523 9.18801 7.31401L9.76801 7.04304C9.05576 6.32045 8.69964 5.44732 8.69964 4.42365C8.69964 3.35983 9.07608 2.45659 9.82903 1.71393C10.5616 0.951193 11.4571 0.569824 12.5153 0.569824C13.5735 0.569824 14.479 0.951193 15.232 1.71393C15.9646 2.45659 16.3309 3.35983 16.3309 4.42365C16.3309 5.44732 15.9748 6.32045 15.2625 7.04304L15.812 7.31401ZM7.66178 2.3763C7.39723 2.99853 7.26495 3.68098 7.26495 4.42365C7.26495 4.96559 7.34635 5.48746 7.50915 5.98926L7.41758 6.07958L7.57021 6.16991L7.72284 6.56131C7.27514 6.86239 6.85795 7.20362 6.4713 7.58498V7.61509C4.78225 9.28106 3.93773 11.2983 3.93773 13.6668V13.7872C3.06268 13.6668 2.27918 13.4159 1.58728 13.0345C0.549431 12.5127 0.02035 11.8603 0 11.0775V11.0474C0 9.58215 0.529081 8.32765 1.58728 7.28391C2.09603 6.74196 2.67602 6.34052 3.32722 6.07958C2.77777 5.51757 2.50302 4.85519 2.50302 4.09246C2.50302 3.30965 2.77777 2.63724 3.32722 2.07522C3.89702 1.51321 4.57874 1.2322 5.37239 1.2322C6.16604 1.2322 6.84778 1.51321 7.41758 2.07522L7.66178 2.3763Z" fill="#222222"/>
</svg>
