<svg width="20" height="20" viewBox="0 0 20 20" fill="none" xmlns="http://www.w3.org/2000/svg">
<path d="M15 2.5H5V7.49999H15V2.5ZM20 7.49999V18.75C20 19.1042 19.875 19.4062 19.625 19.6562C19.375 19.8854 19.0833 20 18.75 20H1.25C0.89583 20 0.593745 19.8854 0.343745 19.6562C0.114579 19.4062 0 19.1042 0 18.75V7.49999H2.49999V2.5C2.49999 1.8125 2.73958 1.22917 3.21875 0.750002C3.71875 0.250002 4.3125 0 5 0H15C15.6875 0 16.2708 0.250002 16.75 0.750002C17.25 1.25 17.5 1.83333 17.5 2.5V7.49999H20ZM11.25 15H12.5V12.5H7.50001V15H8.75V17.5H11.25V15Z" fill="black"/>
</svg>
