<svg width="20" height="20" viewBox="0 0 20 20" fill="none" xmlns="http://www.w3.org/2000/svg">
<path d="M17.5 2.55931V5.11862H15V2.55931H5V7.20344H20V18.7203C20 19.0829 19.875 19.3922 19.625 19.6481C19.375 19.8827 19.0833 20 18.75 20H1.25C0.89583 20 0.593731 19.8827 0.343731 19.6481C0.114564 19.3922 0 19.0829 0 18.7203V7.20344H2.49999V2.55931C2.49999 1.8555 2.73957 1.25833 3.21874 0.767795C3.71874 0.255933 4.3125 0 5 0H15C15.6875 0 16.2708 0.255933 16.75 0.767795C17.25 1.27966 17.5 1.87683 17.5 2.55931ZM12.5 14.8814V12.3221H7.49999V14.8814H8.75V17.4407H11.25V14.8814H12.5Z" fill="black"/>
</svg>
