<svg width="40" height="40" viewBox="0 0 55 48" fill="none" xmlns="http://www.w3.org/2000/svg">
<path d="M12.0113 45.3906C6.27793 42.0573 2.56126 37.224 0.861259 30.8906C-0.838741 24.4573 -0.0220759 18.3573 3.31126 12.5906V12.6406C6.57792 6.90731 11.4279 3.17398 17.8613 1.44064C24.2613 -0.359355 30.3446 0.423979 36.1113 3.79065C41.8446 7.09065 45.5779 11.9573 47.3113 18.3906C48.0113 20.9906 48.2946 23.5573 48.1613 26.0906L49.6113 24.8406C50.2113 24.3073 50.9279 24.0573 51.7613 24.0906C52.5946 24.1573 53.2779 24.5073 53.8113 25.1406C54.3779 25.7406 54.6279 26.4573 54.5613 27.2906C54.4946 28.124 54.1613 28.8073 53.5613 29.3406L43.4113 38.1906C42.9446 38.5906 42.4279 38.8406 41.8613 38.9406L40.1613 38.6906C39.5946 38.424 39.1613 38.0406 38.8613 37.5406L31.9613 26.4406C31.5279 25.7073 31.4113 24.9573 31.6113 24.1906C31.7779 23.3573 32.2279 22.724 32.9613 22.2906C33.6613 21.8573 34.4113 21.7406 35.2113 21.9406C36.0113 22.1073 36.6279 22.5573 37.0613 23.2906L38.1613 25.0406C38.1946 23.7073 38.0279 22.374 37.6613 21.0406V20.9906C36.6279 17.224 34.4446 14.374 31.1113 12.4406C27.7446 10.5073 24.2113 10.0573 20.5113 11.0906H20.4613C16.6946 12.0906 13.8613 14.2573 11.9613 17.5906C9.99459 20.9573 9.51126 24.5406 10.5113 28.3406V28.2906C11.5113 31.9906 13.6946 34.824 17.0613 36.7906H17.1113L19.6613 38.0406C20.9279 38.5406 21.8446 39.424 22.4113 40.6906C22.9779 41.924 23.0279 43.1906 22.5613 44.4906C22.0613 45.7573 21.1779 46.674 19.9113 47.2406L16.1113 47.3906C14.7113 46.8573 13.3613 46.2073 12.0613 45.4406L12.0113 45.3906Z" fill="#222222"/>
</svg>
