<svg width="20" height="21" viewBox="0 0 51 52" fill="none" xmlns="http://www.w3.org/2000/svg">
<path d="M14.9167 0.5L18.8167 1.5C19.35 1.66667 19.7667 2 20.0667 2.5C20.3 2.93333 20.35 3.43333 20.2167 4L19.2667 7.7C23.0667 12.3 27.3 14.7333 31.9667 15C41.6667 15.4333 47.8833 20.1833 50.6167 29.25C50.7833 29.5833 50.7833 29.9667 50.6167 30.4L49.9667 31.35C49.6333 31.6167 49.2667 31.7667 48.8667 31.8L47.7167 31.55C42.0833 28.2833 35.9333 28.5333 29.2667 32.3C24.2 35.2 18.45 35.9833 12.0167 34.65L7.76667 50.35C7.63333 50.8833 7.35 51.3 6.91667 51.6L5.36667 51.75L1.46667 50.75C0.933333 50.5833 0.533334 50.2667 0.266667 49.8C5.66244e-07 49.3 -0.0666669 48.7833 0.0666665 48.25L12.5167 1.9C12.65 1.33333 12.95 0.933332 13.4167 0.699999L14.9167 0.5Z" fill="#5D5FEF"/>
</svg>
