<svg width="22" height="20" viewBox="0 0 22 20" fill="none" xmlns="http://www.w3.org/2000/svg">
<g clip-path="url(#clip0_2332_1027)">
<path d="M20.075 2.79167L20.0292 2.54167C19.9986 2.31944 19.8764 2.13889 19.6625 2L19.6167 1.95833C19.3417 1.76389 19.0514 1.66667 18.7458 1.66667L3.25418 1.66667C2.94862 1.69444 2.64306 1.80555 2.33751 2L2.38334 1.95833C2.10834 2.15278 1.94029 2.38889 1.87918 2.66667L2.01668 3.54167L9.76251 17.625L10.5417 18.2917L11.4583 18.2917L11.55 18.2917L11.5958 18.25L12.1917 17.7083L12.2375 17.625L19.9833 3.54167L20.0292 3.5L20.075 2.79167ZM21.6333 4.29167L13.8875 18.375C13.5514 19.0417 12.9861 19.5278 12.1917 19.8333C11.3972 20.0833 10.6181 20.0833 9.85418 19.8333C9.05973 19.5278 8.47918 19.0417 8.11251 18.375L0.366676 4.29167L0.0916766 2.33333C0.244455 1.66667 0.6264 1.11111 1.23751 0.666666C1.87918 0.222221 2.5514 -8.49282e-07 3.25418 -8.18563e-07L18.7458 -1.41401e-07C19.4792 -1.09346e-07 20.1514 0.222222 20.7625 0.666667C21.4042 1.11111 21.7708 1.66667 21.8625 2.33333C22.0764 3.02778 22 3.68056 21.6333 4.29167Z" fill="#222222"/>
<path d="M20.075 2.79163L20.0292 3.49996L19.9833 3.54163L12.2375 17.625L12.1917 17.7083L11.5958 18.25L11.55 18.2916L11.4583 18.2916L10.5417 18.2916L9.76251 17.625L2.01668 3.54163L1.87918 2.66663C1.94029 2.38885 2.10835 2.15274 2.38335 1.95829L2.33751 1.99996C2.64307 1.80551 2.94862 1.6944 3.25418 1.66663L18.7458 1.66663C19.0514 1.66663 19.3417 1.76385 19.6167 1.95829L19.6625 1.99996C19.8764 2.13885 19.9986 2.3194 20.0292 2.54163L20.075 2.79163ZM3.94168 3.33329L11 16.125L18.0125 3.33329L3.94168 3.33329Z" fill="#BBE6BB"/>
<path d="M3.94168 3.33337L18.0125 3.33337L11 16.125L3.94168 3.33337Z" fill="#228B22"/>
</g>
<defs>
<clipPath id="clip0_2332_1027">
<rect width="20" height="22" fill="white" transform="translate(22) rotate(90)"/>
</clipPath>
</defs>
</svg>
