<svg width="19" height="20" viewBox="0 0 19 20" fill="none" xmlns="http://www.w3.org/2000/svg">
<path d="M12.9728 7.20721C12.9728 6.20621 12.6193 5.35536 11.9125 4.65466C11.2057 3.95396 10.3474 3.60361 9.33762 3.60361C8.30766 3.60361 7.43927 3.95396 6.73244 4.65466C6.0458 5.35536 5.70245 6.20621 5.70245 7.20721C5.70245 8.18819 6.0458 9.02904 6.73244 9.72974C7.43927 10.4505 8.30766 10.8108 9.33762 10.8108C10.3474 10.8108 11.2057 10.4505 11.9125 9.72974C12.6193 9.02904 12.9728 8.18819 12.9728 7.20721ZM16.6079 7.17719C16.6079 8.7788 16.1434 10.2002 15.2144 11.4414L15.2447 11.4715L18.3043 16.7568L18.3952 17.1471L18.0923 17.4775L17.6985 17.5676L14.8509 16.8168L14.0936 19.6397L13.7907 19.94L13.3969 20L13.0637 19.7598L10.0041 14.4745L9.97374 14.3844L9.33762 14.4144L8.67118 14.3844L8.61056 14.4745L5.55098 19.7598L5.21779 20L4.82395 19.94L4.52102 19.6397L3.76371 16.8168L0.916159 17.5676L0.522376 17.4775L0.219441 17.1471C0.199245 17.007 0.229507 16.8769 0.310288 16.7568L3.36992 11.4715L3.43049 11.4114C2.5217 10.1902 2.06731 8.7788 2.06731 7.17719C2.06731 5.17519 2.75395 3.47348 4.12723 2.07208C5.5409 0.6907 7.2777 0 9.33762 0C11.3571 0 13.0737 0.6907 14.4874 2.07208C15.9011 3.47348 16.6079 5.17519 16.6079 7.17719Z" fill="black"/>
</svg>
