<svg width="20" height="21" viewBox="0 0 20 21" fill="none" xmlns="http://www.w3.org/2000/svg">
<path d="M8.44981 9.25179L5.32131 5.02171C5.15066 4.80807 4.94209 4.69057 4.6956 4.66921C4.44912 4.64785 4.2216 4.73328 4.01303 4.92556L0.315705 8.51475C0.126099 8.68566 0.0218048 8.92065 0.00284419 9.21975C-0.0161165 9.49749 0.0597227 9.74319 0.230368 9.95683L7.76722 20.1475C7.88099 20.297 8.03267 20.4039 8.22227 20.468C8.37396 20.5107 8.54462 20.5107 8.73422 20.468C8.90487 20.4039 9.04708 20.297 9.16084 20.1475L19.7978 5.79083C19.9495 5.55582 20.0158 5.29944 19.9968 5.02171C19.9779 4.74398 19.8736 4.51966 19.684 4.34875L15.9582 0.759551C15.7686 0.567274 15.5506 0.481841 15.3041 0.503205C15.0576 0.545934 14.8585 0.674103 14.7068 0.887744L8.44981 9.25179Z" fill="#228B22"/>
</svg>
