<svg width="45" height="45" viewBox="0 0 45 45" fill="none" xmlns="http://www.w3.org/2000/svg">
<path d="M30.9698 16.65L38.7 12.9C38.7 12.9 39.6375 16.65 39.6375 22.275C39.6375 27.9 38.7 31.65 38.7 31.65M30.9698 16.65C30.6971 13.4417 30.2194 11.0861 29.7416 10.6083C29.0124 9.87917 23.9083 9.15 18.075 9.15M30.9698 16.65C31.1134 18.3386 31.2 20.2635 31.2 22.275M4.95001 5.4L38.7 39.15M5.37427 14.775C5.11841 16.8369 4.95001 19.4717 4.95001 22.275C4.95001 28.1083 5.67918 33.2124 6.40835 33.9416C7.13752 34.6708 12.2417 35.4 18.075 35.4C20.8783 35.4 23.5131 35.2316 25.575 34.9757" stroke="#222222" stroke-width="2" stroke-linecap="round" stroke-linejoin="round"/>
</svg>
