<svg width="44" height="45" viewBox="0 0 44 45" fill="none" xmlns="http://www.w3.org/2000/svg">
<path d="M30.9415 28.125L38.5 31.875C38.5 31.875 39.4167 28.125 39.4167 22.5C39.4167 16.875 38.5 13.125 38.5 13.125L30.9415 16.875M30.9415 28.125C31.082 26.4364 31.1667 24.5115 31.1667 22.5C31.1667 20.4885 31.082 18.5636 30.9415 16.875M30.9415 28.125C30.675 31.3333 30.2078 33.6889 29.7407 34.1666C29.0277 34.8958 24.037 35.625 18.3333 35.625C12.6296 35.625 7.6389 34.8958 6.92593 34.1666C6.21297 33.4374 5.5 28.3333 5.5 22.5C5.5 16.6667 6.21297 11.5625 6.92593 10.8333C7.6389 10.1042 12.6296 9.375 18.3333 9.375C24.037 9.375 29.0277 10.1042 29.7407 10.8333C30.2078 11.3111 30.675 13.6667 30.9415 16.875" stroke="#222222" stroke-width="2" stroke-linecap="round" stroke-linejoin="round"/>
</svg>
