<svg width="22" height="21" viewBox="0 0 22 21" fill="none" xmlns="http://www.w3.org/2000/svg">
<path d="M20.25 6.625C20.75 7.8125 21 9.10417 21 10.5C21 10.7083 20.9271 10.8854 20.7813 11.0312C20.6354 11.1771 20.4583 11.25 20.25 11.25H18.1875L17.9375 12.5312L19.875 13.3438L20.2812 13.75C20.3646 13.9375 20.3646 14.125 20.2812 14.3125C19.8021 15.5 19.0625 16.5938 18.0625 17.5938L17.5625 17.7812L17.0313 17.5938L15.5625 16.125L14.4688 16.875L15.2813 18.7812C15.3646 18.9687 15.3646 19.1562 15.2813 19.3437L14.875 19.75C13.6875 20.25 12.3958 20.5 11 20.5C10.7917 20.5 10.6146 20.4271 10.4688 20.2812C10.3229 20.1354 10.25 19.9583 10.25 19.75V17.6875L8.96877 17.4687L8.1875 19.375L7.78125 19.7812C7.59375 19.8646 7.40627 19.8646 7.21877 19.7812C6.01044 19.3021 4.91668 18.5729 3.93751 17.5938C3.79168 17.4479 3.71875 17.2708 3.71875 17.0625C3.71875 16.8542 3.79168 16.6771 3.93751 16.5312L5.40624 15.0625L4.65624 13.9687L2.71876 14.7813C2.53126 14.8646 2.34375 14.8646 2.15625 14.7813L1.75003 14.375C1.25003 13.1875 1 11.8958 1 10.5C1 10.2917 1.0729 10.1146 1.21873 9.96875C1.36456 9.82291 1.54169 9.75 1.75003 9.75H3.8125L4.06253 8.46875L2.12501 7.6875L1.71879 7.28125C1.63545 7.09375 1.63545 6.90625 1.71879 6.71875C2.19795 5.51042 2.93751 4.41666 3.93751 3.4375C4.08335 3.29166 4.25001 3.21875 4.43751 3.21875C4.64585 3.21875 4.82292 3.29166 4.96875 3.4375L6.43751 4.90625C6.79167 4.61458 7.15628 4.36458 7.53128 4.15625L6.71877 2.21875C6.63544 2.03125 6.63544 1.84375 6.71877 1.65625C6.80211 1.46875 6.9375 1.33333 7.125 1.24999C8.3125 0.749994 9.60417 0.5 11 0.5C11.2083 0.5 11.3854 0.572916 11.5312 0.71875C11.6771 0.864583 11.75 1.04166 11.75 1.24999V3.3125L13.0313 3.5625L13.8438 1.625C13.9063 1.4375 14.0313 1.30208 14.2188 1.21875C14.4063 1.13542 14.6042 1.13542 14.8125 1.21875C15.5833 1.53125 16.3229 1.95833 17.0313 2.5L18.0625 3.4375C18.2083 3.58333 18.2813 3.76042 18.2813 3.96875L18.0625 4.46875L16.625 5.9375L17.3438 7.03125L19.2813 6.21875C19.4688 6.13541 19.6563 6.13541 19.8438 6.21875L20.25 6.625ZM11 5.65625C9.66667 5.65625 8.52085 6.125 7.56252 7.0625C6.62502 8.02083 6.15627 9.16667 6.15627 10.5C6.15627 11.8333 6.62502 12.9792 7.56252 13.9375C8.52085 14.875 9.66667 15.3437 11 15.3437C12.3333 15.3437 13.4792 14.875 14.4375 13.9375C15.375 12.9792 15.8438 11.8333 15.8438 10.5C15.8438 9.16667 15.375 8.02083 14.4375 7.0625C13.4792 6.125 12.3333 5.65625 11 5.65625ZM11 8.09375C11.6667 8.09375 12.2396 8.32291 12.7188 8.78125C13.1979 9.26041 13.4375 9.83333 13.4375 10.5C13.4375 11.1667 13.1979 11.7396 12.7188 12.2187C12.2396 12.6979 11.6667 12.9375 11 12.9375C10.3333 12.9375 9.76044 12.6979 9.28127 12.2187C8.82294 11.7396 8.59378 11.1667 8.59378 10.5C8.59378 9.83333 8.82294 9.26041 9.28127 8.78125C9.76044 8.32291 10.3333 8.09375 11 8.09375Z" fill="#228B22" stroke="#222222"/>
</svg>
