<svg width="44" height="45" viewBox="0 0 44 45" fill="none" xmlns="http://www.w3.org/2000/svg">
<path d="M25.9286 7.73719C25.9286 5.97835 23.875 5.06867 22.6207 6.27178L14.863 13.7119C14.3532 14.2007 13.6806 14.4728 12.9819 14.4728H8.25C5.42941 14.4728 3.14285 16.8114 3.14285 19.696V25.3082C3.14285 28.1928 5.42939 30.5314 8.25 30.5314H12.9827C13.6812 30.5314 14.3534 30.8031 14.8631 31.2916L22.6212 38.7264C23.8758 39.9288 25.9286 39.019 25.9286 37.2605V7.73719ZM16.4753 15.4703L23.5714 8.66477V36.3333L16.4749 29.5324C15.5283 28.6255 14.2798 28.1207 12.9827 28.1207H8.25C6.73121 28.1207 5.5 26.8615 5.5 25.3082V19.696C5.5 18.1427 6.73121 16.8835 8.25 16.8835H12.9819C14.2796 16.8835 15.5287 16.3782 16.4753 15.4703Z" fill="#222222"/>
<path d="M35.6747 8.44105C35.2448 7.94121 34.5001 7.89243 34.0114 8.33212C33.5227 8.7718 33.4749 9.53344 33.9048 10.0333C36.7661 13.3599 38.5 17.7213 38.5 22.5C38.5 27.2785 36.7661 31.64 33.9048 34.9666C33.4749 35.4664 33.5227 36.2281 34.0114 36.6678C34.5001 37.1075 35.2448 37.0586 35.6747 36.5588C38.8999 32.809 40.8571 27.8868 40.8571 22.5C40.8571 17.1132 38.8999 12.1909 35.6747 8.44105Z" fill="#222222"/>
<path d="M31.983 13.3439C31.5923 12.8114 30.8536 12.7037 30.333 13.1033C29.8124 13.5029 29.7071 14.2584 30.0977 14.7909C31.6739 16.9388 32.6071 19.6062 32.6071 22.5C32.6071 25.3938 31.6739 28.061 30.0977 30.2092C29.7071 30.7416 29.8124 31.4971 30.333 31.8967C30.8536 32.2962 31.5923 32.1885 31.983 31.6561C33.8549 29.105 34.9643 25.9333 34.9643 22.5C34.9643 19.0667 33.8549 15.8948 31.983 13.3439Z" fill="#222222"/>
</svg>
