<svg width="45" height="45" viewBox="0 0 45 45" fill="none" xmlns="http://www.w3.org/2000/svg">
<path d="M23.1348 6.27178C24.4177 5.06867 26.5179 5.97835 26.5179 7.73719V37.2605C26.5179 39.019 24.4185 39.9288 23.1353 38.7264L15.2009 31.2916C14.6797 30.8031 13.9921 30.5314 13.2778 30.5314H8.43751C5.5528 30.5314 3.21429 28.1928 3.21429 25.3082V19.696C3.21429 16.8114 5.55282 14.4728 8.43751 14.4728H13.2769C13.9916 14.4728 14.6795 14.2007 15.2008 13.7119L23.1348 6.27178ZM24.1072 8.66477L16.8498 15.4703C15.8816 16.3782 14.6042 16.8835 13.2769 16.8835H8.43751C6.88421 16.8835 5.62501 18.1427 5.62501 19.696V25.3082C5.62501 26.8615 6.88421 28.1207 8.43751 28.1207H13.2778C14.6044 28.1207 15.8812 28.6255 16.8493 29.5324L24.1072 36.3333V8.66477Z" fill="#222222"/>
<path d="M31.7931 17.2311C31.324 16.7588 30.5609 16.7559 30.0884 17.2249C29.6159 17.6938 29.6132 18.4571 30.0822 18.9296L33.647 22.5206L30.087 26.0656C29.6153 26.5352 29.6137 27.2984 30.0835 27.7701C30.5531 28.2418 31.3163 28.2435 31.788 27.7737L35.3515 24.2253L38.9277 27.7751C39.4002 28.2441 40.1635 28.2412 40.6324 27.7689C41.1014 27.2964 41.0985 26.5331 40.626 26.0642L37.0562 22.5206L40.631 18.9309C41.1007 18.4592 41.0991 17.6961 40.6274 17.2263C40.1557 16.7566 39.3925 16.7582 38.9227 17.2299L35.3515 20.8159L31.7931 17.2311Z" fill="#222222"/>
</svg>
