<svg width="25" height="25" viewBox="0 0 25 25" fill="none" xmlns="http://www.w3.org/2000/svg">
<path d="M23.456 0C23.8677 0 24.228 0.156247 24.5368 0.468746C24.8457 0.781246 25.0001 1.14583 25.0001 1.56249V6.25L18.8236 12.5L25.0001 18.75V23.4375C25.0001 23.8802 24.8457 24.2578 24.5368 24.5703C24.228 24.8568 23.8677 25 23.456 25H18.8236L12.6471 18.75L6.47067 25H1.83831C1.40081 25 1.02765 24.8568 0.718825 24.5703C0.435737 24.2578 0.294189 23.8802 0.294189 23.4375V18.75L6.47067 12.5L0.294189 6.25V1.60157C0.294189 1.15886 0.435737 0.781246 0.718825 0.468746C1.02765 0.156247 1.40081 0 1.83831 0H6.47067L12.6471 6.25L18.8236 0H23.456Z" fill="#999999"/>
<path fill-rule="evenodd" clip-rule="evenodd" d="M24.7059 6.24999V1.56249C24.7059 1.14583 24.5515 0.781246 24.2426 0.468746C23.9338 0.156247 23.5735 0 23.1618 0H18.5294L12.3529 6.24999L6.17648 0H1.54412C1.10662 0 0.733459 0.156247 0.424635 0.468746C0.141547 0.781246 0 1.15886 0 1.60157V6.24999L6.17648 12.5L0 18.75V23.4375C0 23.8802 0.141547 24.2578 0.424635 24.5703C0.733459 24.8568 1.10662 25 1.54412 25H6.17648L12.3529 18.75L18.5294 25H23.1618C23.5735 25 23.9338 24.8568 24.2426 24.5703C24.5515 24.2578 24.7059 23.8802 24.7059 23.4375V18.75L18.5294 12.5L24.7059 6.24999ZM21.7412 19.9926L14.3367 12.5L21.7412 5.00735V3H19.7574L12.3529 10.4926L4.94846 3H2.96471V5.00735L10.3692 12.5L2.96471 19.9926V22H4.94846L12.3529 14.5074L19.7574 22H21.7412V19.9926Z" fill="#222222"/>
</svg>
