<svg width="69" height="68" viewBox="0 0 69 68" fill="none" xmlns="http://www.w3.org/2000/svg">
<rect x="2.5" y="2" width="64" height="64" rx="32" fill="#228B22"/>
<rect x="2.5" y="2" width="64" height="64" rx="32" stroke="white" stroke-width="4"/>
<path d="M38.4734 41.2836L28.5714 51.5L17.5 51.5L17.5 40.0769L39.5649 17.3916C40.1887 16.748 40.9164 16.4531 41.748 16.5067C42.5797 16.4531 43.3074 16.7212 43.9311 17.3111L50.6364 24.1489C51.2601 24.8461 51.546 25.6505 51.494 26.5622C51.546 27.4203 51.2601 28.1711 50.6364 28.8147L49.7007 29.78L38.4734 41.2836ZM27.324 48.2018L29.741 45.708L23.1137 38.9507L20.6967 41.4445L20.6187 48.2822L27.324 48.2018ZM25.3748 36.6178L32.002 43.3751L44.0871 30.9062L37.4598 24.1489L25.3748 36.6178Z" fill="white"/>
</svg>
