<svg width="376" height="104" viewBox="-10 0 400 120" fill="none" xmlns="http://www.w3.org/2000/svg">
<g filter="url(#filter0_d_2332_6)">
<mask id="path-1-outside-1_2332_6" maskUnits="userSpaceOnUse" x="0" y="28" width="376" height="70" fill="black">
<rect fill="white" y="28" width="376" height="70"/>
<path d="M24.3395 83C19.6835 83 15.9875 82.592 13.2515 81.776C10.5155 80.912 8.4995 79.544 7.2035 77.672C5.9075 75.8 5.0675 73.28 4.6835 70.112C4.2995 66.944 4.1075 63.032 4.1075 58.376C4.1075 53.72 4.2755 49.76 4.6115 46.496C4.9955 43.184 5.8115 40.52 7.0595 38.504C8.3555 36.44 10.3475 34.952 13.0355 34.04C15.7715 33.08 19.4675 32.6 24.1235 32.6C26.0915 32.6 28.2035 32.888 30.4595 33.464C32.7155 33.992 34.9475 34.856 37.1555 36.056C39.3635 37.256 41.3555 38.864 43.1315 40.88C44.9555 42.896 46.3955 45.344 47.4515 48.224C48.5555 51.104 49.1075 54.512 49.1075 58.448C49.1075 62.24 48.5315 65.528 47.3795 68.312C46.2755 71.048 44.8115 73.376 42.9875 75.296C41.2115 77.168 39.2195 78.68 37.0115 79.832C34.8035 80.936 32.5955 81.752 30.3875 82.28C28.1795 82.76 26.1635 83 24.3395 83ZM19.8755 70.328C24.2915 71 27.7235 70.424 30.1715 68.6C32.6675 66.776 33.9155 64.016 33.9155 60.32C33.9155 56.96 32.6675 54.488 30.1715 52.904C27.7235 51.272 24.2915 50.792 19.8755 51.464V70.328ZM142.657 83C139.105 83 136.033 82.16 133.441 80.48C130.897 78.8 128.929 76.616 127.537 73.928C126.193 71.24 125.521 68.432 125.521 65.504C125.521 61.76 126.265 58.688 127.753 56.288C129.289 53.888 131.233 52.112 133.585 50.96C135.937 49.76 138.385 49.16 140.929 49.16C142.129 49.16 143.353 49.304 144.601 49.592C145.849 49.832 147.025 50.264 148.129 50.888C147.937 48.824 147.505 46.808 146.833 44.84C146.209 42.824 145.897 40.784 145.897 38.72C145.897 36.608 146.545 35.048 147.841 34.04C149.137 33.032 150.529 32.528 152.017 32.528C153.745 32.528 155.233 33.08 156.481 34.184C157.729 35.288 158.785 36.752 159.649 38.576C160.561 40.4 161.281 42.464 161.809 44.768C162.337 47.024 162.721 49.352 162.961 51.752C163.201 54.152 163.321 56.456 163.321 58.664C163.321 59.384 163.273 60.488 163.177 61.976C163.129 63.464 162.913 65.12 162.529 66.944C162.145 68.768 161.521 70.616 160.657 72.488C159.841 74.36 158.665 76.088 157.129 77.672C155.641 79.256 153.721 80.552 151.369 81.56C149.017 82.52 146.113 83 142.657 83ZM143.089 71.624C144.385 71.624 145.513 71.144 146.473 70.184C147.433 69.176 147.913 68 147.913 66.656C147.913 65.312 147.433 64.136 146.473 63.128C145.513 62.12 144.385 61.616 143.089 61.616C141.793 61.616 140.641 62.12 139.633 63.128C138.673 64.136 138.193 65.312 138.193 66.656C138.193 68 138.673 69.176 139.633 70.184C140.641 71.144 141.793 71.624 143.089 71.624ZM174.135 82.856C171.687 82.856 169.863 81.944 168.663 80.12C167.463 78.248 166.671 75.464 166.287 71.768C165.903 68.024 165.711 63.344 165.711 57.728C165.711 54.032 165.759 50.648 165.855 47.576C165.999 44.504 166.335 41.864 166.863 39.656C167.391 37.4 168.231 35.672 169.383 34.472C170.535 33.224 172.143 32.6 174.207 32.6C176.271 32.6 177.879 33.224 179.031 34.472C180.183 35.672 181.023 37.4 181.551 39.656C182.079 41.864 182.391 44.504 182.488 47.576C182.631 50.648 182.703 54.032 182.703 57.728C182.703 66.176 182.103 72.488 180.904 76.664C179.752 80.792 177.495 82.856 174.135 82.856ZM201.755 83C198.155 83 194.987 82.304 192.251 80.912C189.563 79.472 187.451 77.528 185.915 75.08C184.427 72.584 183.683 69.728 183.683 66.512C183.683 63.392 184.427 60.512 185.915 57.872C187.451 55.232 189.539 53.12 192.179 51.536C194.867 49.952 197.939 49.16 201.395 49.16C204.611 49.16 207.371 49.808 209.675 51.104C211.979 52.4 213.731 54.056 214.931 56.072C216.179 58.04 216.803 60.128 216.803 62.336C216.803 64.544 216.299 66.368 215.291 67.808C214.283 69.2 212.963 70.28 211.331 71.048C209.747 71.768 208.043 72.248 206.219 72.488C204.395 72.728 202.643 72.776 200.963 72.632C199.283 72.44 197.867 72.152 196.715 71.768C197.579 73.16 198.659 74.12 199.955 74.648C201.299 75.128 202.691 75.344 204.131 75.296C205.619 75.2 206.963 75.032 208.163 74.792C209.651 74.456 210.875 74.528 211.835 75.008C212.795 75.488 213.299 76.256 213.347 77.312C213.395 78.176 213.083 79.04 212.411 79.904C211.787 80.768 210.635 81.512 208.955 82.136C207.275 82.712 204.875 83 201.755 83ZM196.931 62.984C197.411 63.752 198.107 64.304 199.019 64.64C199.931 64.928 200.843 65.024 201.755 64.928C202.715 64.832 203.507 64.568 204.131 64.136C204.803 63.704 205.139 63.104 205.139 62.336C205.139 61.52 204.803 60.8 204.131 60.176C203.507 59.504 202.499 59.168 201.107 59.168C199.763 59.168 198.731 59.6 198.011 60.464C197.291 61.28 196.931 62.12 196.931 62.984ZM294.115 82.856C291.667 82.856 289.843 81.944 288.643 80.12C287.443 78.248 286.651 75.464 286.267 71.768C285.883 68.024 285.691 63.344 285.691 57.728C285.691 54.032 285.739 50.648 285.835 47.576C285.979 44.504 286.315 41.864 286.843 39.656C287.371 37.4 288.211 35.672 289.363 34.472C290.515 33.224 292.123 32.6 294.187 32.6C296.251 32.6 297.859 33.224 299.011 34.472C300.163 35.672 301.003 37.4 301.531 39.656C302.059 41.864 302.371 44.504 302.467 47.576C302.611 50.648 302.683 54.032 302.683 57.728C302.683 66.176 302.083 72.488 300.883 76.664C299.731 80.792 297.475 82.856 294.115 82.856ZM316.622 83C314.27 83 312.11 82.64 310.142 81.92C308.222 81.2 306.686 80.12 305.534 78.68C304.382 77.192 303.806 75.32 303.806 73.064C303.806 71.144 304.382 69.512 305.534 68.168C306.686 66.824 308.222 65.792 310.142 65.072C312.11 64.352 314.27 63.992 316.622 63.992C318.014 63.992 319.286 64.112 320.438 64.352C321.59 64.544 322.382 64.784 322.814 65.072C322.814 63.968 322.358 63.008 321.446 62.192C320.534 61.328 318.95 60.896 316.694 60.896C315.638 60.896 314.798 60.992 314.174 61.184C313.598 61.328 313.07 61.52 312.59 61.76C312.11 62 311.558 62.216 310.934 62.408C310.358 62.552 309.566 62.624 308.558 62.624C307.07 62.624 305.87 62.24 304.958 61.472C304.094 60.656 303.662 59.432 303.662 57.8C303.662 56.312 304.07 55.04 304.886 53.984C305.75 52.88 306.854 51.968 308.198 51.248C309.542 50.528 310.982 50 312.518 49.664C314.102 49.328 315.614 49.16 317.054 49.16C321.326 49.16 324.806 49.952 327.494 51.536C330.182 53.072 332.174 55.088 333.47 57.584C334.766 60.08 335.414 62.792 335.414 65.72C335.414 67.352 335.27 68.864 334.982 70.256C334.742 71.648 334.406 72.728 333.974 73.496C334.646 74.072 335.15 74.744 335.486 75.512C335.87 76.28 336.062 77.072 336.062 77.888C336.062 79.232 335.606 80.432 334.694 81.488C333.83 82.496 332.582 83 330.95 83C329.702 83 328.718 82.808 327.998 82.424C327.278 82.04 326.558 81.536 325.838 80.912C324.686 81.584 323.414 82.112 322.022 82.496C320.63 82.832 318.83 83 316.622 83ZM318.062 75.728C319.166 75.728 319.982 75.512 320.51 75.08C321.086 74.6 321.374 74.072 321.374 73.496C321.374 72.92 321.086 72.416 320.51 71.984C319.982 71.504 319.166 71.264 318.062 71.264C317.006 71.264 316.19 71.504 315.614 71.984C315.038 72.416 314.75 72.92 314.75 73.496C314.75 74.072 315.038 74.6 315.614 75.08C316.19 75.512 317.006 75.728 318.062 75.728ZM347.579 93.656C345.995 93.656 344.507 93.44 343.115 93.008C341.771 92.624 340.667 91.976 339.803 91.064C338.939 90.2 338.507 89.072 338.507 87.68C338.507 86 339.275 84.728 340.811 83.864C342.347 83 344.075 82.616 345.995 82.712C348.107 82.76 349.739 82.664 350.891 82.424C352.091 82.136 353.003 81.608 353.627 80.84C349.211 80.84 345.683 80.192 343.043 78.896C340.403 77.6 338.483 75.584 337.283 72.848C336.131 70.112 335.555 66.56 335.555 62.192C335.555 59.84 335.795 57.704 336.275 55.784C336.755 53.816 337.523 52.256 338.579 51.104C339.683 49.904 341.123 49.304 342.899 49.304C345.299 49.304 347.003 50 348.011 51.392C349.019 52.736 349.523 54.32 349.523 56.144C349.523 57.776 349.499 59.384 349.451 60.968C349.403 62.504 349.451 63.872 349.595 65.072C349.739 66.272 350.123 67.232 350.747 67.952C351.371 68.672 352.355 69.032 353.699 69.032C355.043 69.032 356.027 68.672 356.651 67.952C357.275 67.232 357.659 66.272 357.803 65.072C357.947 63.872 357.995 62.528 357.947 61.04C357.899 59.504 357.875 57.92 357.875 56.288C357.875 54.272 358.379 52.616 359.387 51.32C360.443 49.976 362.147 49.304 364.499 49.304C366.323 49.304 367.763 49.904 368.819 51.104C369.923 52.256 370.715 53.816 371.195 55.784C371.675 57.704 371.915 59.84 371.915 62.192C371.915 66.128 371.483 69.992 370.619 73.784C369.803 77.528 368.435 80.888 366.515 83.864C364.643 86.84 362.147 89.216 359.027 90.992C355.955 92.768 352.139 93.656 347.579 93.656Z"/>
<path d="M69.4694 83.072C65.9174 83.12 62.7974 82.4 60.1094 80.912C57.4694 79.376 55.3814 77.312 53.8454 74.72C52.3574 72.08 51.5654 69.176 51.4694 66.008C51.4214 62.744 52.1654 59.864 53.7014 57.368C55.2374 54.824 57.3734 52.808 60.1094 51.32C62.8454 49.832 65.9654 49.088 69.4694 49.088C72.9254 49.04 75.9734 49.76 78.6134 51.248C81.3014 52.736 83.4374 54.752 85.0214 57.296C86.6054 59.84 87.4454 62.744 87.5414 66.008C87.5894 69.128 86.8454 71.984 85.3094 74.576C83.7734 77.12 81.6374 79.16 78.9014 80.696C76.1654 82.184 73.0214 82.976 69.4694 83.072ZM69.6854 72.56C70.9814 72.56 72.1094 72.056 73.0694 71.048C74.0294 70.04 74.5094 68.864 74.5094 67.52C74.5094 66.176 74.0294 65.024 73.0694 64.064C72.1094 63.056 70.9814 62.552 69.6854 62.552C68.3894 62.552 67.2614 63.056 66.3014 64.064C65.3414 65.024 64.8614 66.176 64.8614 67.52C64.8614 68.864 65.3414 70.04 66.3014 71.048C67.2614 72.056 68.3894 72.56 69.6854 72.56ZM106.495 83.072C102.943 83.12 99.8234 82.4 97.1354 80.912C94.4954 79.376 92.4074 77.312 90.8714 74.72C89.3834 72.08 88.5914 69.176 88.4954 66.008C88.4474 62.744 89.1914 59.864 90.7274 57.368C92.2634 54.824 94.3994 52.808 97.1354 51.32C99.8714 49.832 102.991 49.088 106.495 49.088C109.951 49.04 112.999 49.76 115.639 51.248C118.327 52.736 120.463 54.752 122.047 57.296C123.631 59.84 124.471 62.744 124.567 66.008C124.615 69.128 123.871 71.984 122.335 74.576C120.799 77.12 118.663 79.16 115.927 80.696C113.191 82.184 110.047 82.976 106.495 83.072ZM106.711 72.56C108.007 72.56 109.135 72.056 110.095 71.048C111.055 70.04 111.535 68.864 111.535 67.52C111.535 66.176 111.055 65.024 110.095 64.064C109.135 63.056 108.007 62.552 106.711 62.552C105.415 62.552 104.287 63.056 103.327 64.064C102.367 65.024 101.887 66.176 101.887 67.52C101.887 68.864 102.367 70.04 103.327 71.048C104.287 72.056 105.415 72.56 106.711 72.56ZM249.676 83.072C247.516 83.072 245.764 82.376 244.42 80.984C243.076 79.544 242.044 77.648 241.324 75.296C240.604 72.896 240.124 70.28 239.884 67.448C239.644 64.616 239.524 61.808 239.524 59.024C239.524 55.76 239.956 52.568 240.82 49.448C241.732 46.328 243.1 43.52 244.924 41.024C246.796 38.48 249.148 36.464 251.98 34.976C254.812 33.488 258.172 32.744 262.06 32.744C265.996 32.744 269.548 33.56 272.716 35.192C275.932 36.824 278.5 39.152 280.42 42.176C282.34 45.2 283.3 48.8 283.3 52.976C283.3 56.72 282.724 59.936 281.572 62.624C280.42 65.312 278.86 67.52 276.892 69.248C274.972 70.928 272.812 72.176 270.412 72.992C268.06 73.808 265.66 74.192 263.212 74.144C260.764 74.048 258.484 73.568 256.372 72.704C256.612 73.856 256.732 75.032 256.732 76.232C256.78 77.432 256.588 78.56 256.156 79.616C255.772 80.624 255.052 81.464 253.996 82.136C252.988 82.76 251.548 83.072 249.676 83.072ZM262.78 62.912C264.508 62.912 265.996 62.288 267.244 61.04C268.54 59.744 269.188 58.256 269.188 56.576C269.188 54.848 268.54 53.36 267.244 52.112C265.996 50.816 264.508 50.168 262.78 50.168C261.052 50.168 259.54 50.816 258.244 52.112C256.996 53.36 256.372 54.848 256.372 56.576C256.372 58.256 256.996 59.744 258.244 61.04C259.54 62.288 261.052 62.912 262.78 62.912Z"/>
</mask>
<path d="M24.3395 83C19.6835 83 15.9875 82.592 13.2515 81.776C10.5155 80.912 8.4995 79.544 7.2035 77.672C5.9075 75.8 5.0675 73.28 4.6835 70.112C4.2995 66.944 4.1075 63.032 4.1075 58.376C4.1075 53.72 4.2755 49.76 4.6115 46.496C4.9955 43.184 5.8115 40.52 7.0595 38.504C8.3555 36.44 10.3475 34.952 13.0355 34.04C15.7715 33.08 19.4675 32.6 24.1235 32.6C26.0915 32.6 28.2035 32.888 30.4595 33.464C32.7155 33.992 34.9475 34.856 37.1555 36.056C39.3635 37.256 41.3555 38.864 43.1315 40.88C44.9555 42.896 46.3955 45.344 47.4515 48.224C48.5555 51.104 49.1075 54.512 49.1075 58.448C49.1075 62.24 48.5315 65.528 47.3795 68.312C46.2755 71.048 44.8115 73.376 42.9875 75.296C41.2115 77.168 39.2195 78.68 37.0115 79.832C34.8035 80.936 32.5955 81.752 30.3875 82.28C28.1795 82.76 26.1635 83 24.3395 83ZM19.8755 70.328C24.2915 71 27.7235 70.424 30.1715 68.6C32.6675 66.776 33.9155 64.016 33.9155 60.32C33.9155 56.96 32.6675 54.488 30.1715 52.904C27.7235 51.272 24.2915 50.792 19.8755 51.464V70.328ZM142.657 83C139.105 83 136.033 82.16 133.441 80.48C130.897 78.8 128.929 76.616 127.537 73.928C126.193 71.24 125.521 68.432 125.521 65.504C125.521 61.76 126.265 58.688 127.753 56.288C129.289 53.888 131.233 52.112 133.585 50.96C135.937 49.76 138.385 49.16 140.929 49.16C142.129 49.16 143.353 49.304 144.601 49.592C145.849 49.832 147.025 50.264 148.129 50.888C147.937 48.824 147.505 46.808 146.833 44.84C146.209 42.824 145.897 40.784 145.897 38.72C145.897 36.608 146.545 35.048 147.841 34.04C149.137 33.032 150.529 32.528 152.017 32.528C153.745 32.528 155.233 33.08 156.481 34.184C157.729 35.288 158.785 36.752 159.649 38.576C160.561 40.4 161.281 42.464 161.809 44.768C162.337 47.024 162.721 49.352 162.961 51.752C163.201 54.152 163.321 56.456 163.321 58.664C163.321 59.384 163.273 60.488 163.177 61.976C163.129 63.464 162.913 65.12 162.529 66.944C162.145 68.768 161.521 70.616 160.657 72.488C159.841 74.36 158.665 76.088 157.129 77.672C155.641 79.256 153.721 80.552 151.369 81.56C149.017 82.52 146.113 83 142.657 83ZM143.089 71.624C144.385 71.624 145.513 71.144 146.473 70.184C147.433 69.176 147.913 68 147.913 66.656C147.913 65.312 147.433 64.136 146.473 63.128C145.513 62.12 144.385 61.616 143.089 61.616C141.793 61.616 140.641 62.12 139.633 63.128C138.673 64.136 138.193 65.312 138.193 66.656C138.193 68 138.673 69.176 139.633 70.184C140.641 71.144 141.793 71.624 143.089 71.624ZM174.135 82.856C171.687 82.856 169.863 81.944 168.663 80.12C167.463 78.248 166.671 75.464 166.287 71.768C165.903 68.024 165.711 63.344 165.711 57.728C165.711 54.032 165.759 50.648 165.855 47.576C165.999 44.504 166.335 41.864 166.863 39.656C167.391 37.4 168.231 35.672 169.383 34.472C170.535 33.224 172.143 32.6 174.207 32.6C176.271 32.6 177.879 33.224 179.031 34.472C180.183 35.672 181.023 37.4 181.551 39.656C182.079 41.864 182.391 44.504 182.488 47.576C182.631 50.648 182.703 54.032 182.703 57.728C182.703 66.176 182.103 72.488 180.904 76.664C179.752 80.792 177.495 82.856 174.135 82.856ZM201.755 83C198.155 83 194.987 82.304 192.251 80.912C189.563 79.472 187.451 77.528 185.915 75.08C184.427 72.584 183.683 69.728 183.683 66.512C183.683 63.392 184.427 60.512 185.915 57.872C187.451 55.232 189.539 53.12 192.179 51.536C194.867 49.952 197.939 49.16 201.395 49.16C204.611 49.16 207.371 49.808 209.675 51.104C211.979 52.4 213.731 54.056 214.931 56.072C216.179 58.04 216.803 60.128 216.803 62.336C216.803 64.544 216.299 66.368 215.291 67.808C214.283 69.2 212.963 70.28 211.331 71.048C209.747 71.768 208.043 72.248 206.219 72.488C204.395 72.728 202.643 72.776 200.963 72.632C199.283 72.44 197.867 72.152 196.715 71.768C197.579 73.16 198.659 74.12 199.955 74.648C201.299 75.128 202.691 75.344 204.131 75.296C205.619 75.2 206.963 75.032 208.163 74.792C209.651 74.456 210.875 74.528 211.835 75.008C212.795 75.488 213.299 76.256 213.347 77.312C213.395 78.176 213.083 79.04 212.411 79.904C211.787 80.768 210.635 81.512 208.955 82.136C207.275 82.712 204.875 83 201.755 83ZM196.931 62.984C197.411 63.752 198.107 64.304 199.019 64.64C199.931 64.928 200.843 65.024 201.755 64.928C202.715 64.832 203.507 64.568 204.131 64.136C204.803 63.704 205.139 63.104 205.139 62.336C205.139 61.52 204.803 60.8 204.131 60.176C203.507 59.504 202.499 59.168 201.107 59.168C199.763 59.168 198.731 59.6 198.011 60.464C197.291 61.28 196.931 62.12 196.931 62.984ZM294.115 82.856C291.667 82.856 289.843 81.944 288.643 80.12C287.443 78.248 286.651 75.464 286.267 71.768C285.883 68.024 285.691 63.344 285.691 57.728C285.691 54.032 285.739 50.648 285.835 47.576C285.979 44.504 286.315 41.864 286.843 39.656C287.371 37.4 288.211 35.672 289.363 34.472C290.515 33.224 292.123 32.6 294.187 32.6C296.251 32.6 297.859 33.224 299.011 34.472C300.163 35.672 301.003 37.4 301.531 39.656C302.059 41.864 302.371 44.504 302.467 47.576C302.611 50.648 302.683 54.032 302.683 57.728C302.683 66.176 302.083 72.488 300.883 76.664C299.731 80.792 297.475 82.856 294.115 82.856ZM316.622 83C314.27 83 312.11 82.64 310.142 81.92C308.222 81.2 306.686 80.12 305.534 78.68C304.382 77.192 303.806 75.32 303.806 73.064C303.806 71.144 304.382 69.512 305.534 68.168C306.686 66.824 308.222 65.792 310.142 65.072C312.11 64.352 314.27 63.992 316.622 63.992C318.014 63.992 319.286 64.112 320.438 64.352C321.59 64.544 322.382 64.784 322.814 65.072C322.814 63.968 322.358 63.008 321.446 62.192C320.534 61.328 318.95 60.896 316.694 60.896C315.638 60.896 314.798 60.992 314.174 61.184C313.598 61.328 313.07 61.52 312.59 61.76C312.11 62 311.558 62.216 310.934 62.408C310.358 62.552 309.566 62.624 308.558 62.624C307.07 62.624 305.87 62.24 304.958 61.472C304.094 60.656 303.662 59.432 303.662 57.8C303.662 56.312 304.07 55.04 304.886 53.984C305.75 52.88 306.854 51.968 308.198 51.248C309.542 50.528 310.982 50 312.518 49.664C314.102 49.328 315.614 49.16 317.054 49.16C321.326 49.16 324.806 49.952 327.494 51.536C330.182 53.072 332.174 55.088 333.47 57.584C334.766 60.08 335.414 62.792 335.414 65.72C335.414 67.352 335.27 68.864 334.982 70.256C334.742 71.648 334.406 72.728 333.974 73.496C334.646 74.072 335.15 74.744 335.486 75.512C335.87 76.28 336.062 77.072 336.062 77.888C336.062 79.232 335.606 80.432 334.694 81.488C333.83 82.496 332.582 83 330.95 83C329.702 83 328.718 82.808 327.998 82.424C327.278 82.04 326.558 81.536 325.838 80.912C324.686 81.584 323.414 82.112 322.022 82.496C320.63 82.832 318.83 83 316.622 83ZM318.062 75.728C319.166 75.728 319.982 75.512 320.51 75.08C321.086 74.6 321.374 74.072 321.374 73.496C321.374 72.92 321.086 72.416 320.51 71.984C319.982 71.504 319.166 71.264 318.062 71.264C317.006 71.264 316.19 71.504 315.614 71.984C315.038 72.416 314.75 72.92 314.75 73.496C314.75 74.072 315.038 74.6 315.614 75.08C316.19 75.512 317.006 75.728 318.062 75.728ZM347.579 93.656C345.995 93.656 344.507 93.44 343.115 93.008C341.771 92.624 340.667 91.976 339.803 91.064C338.939 90.2 338.507 89.072 338.507 87.68C338.507 86 339.275 84.728 340.811 83.864C342.347 83 344.075 82.616 345.995 82.712C348.107 82.76 349.739 82.664 350.891 82.424C352.091 82.136 353.003 81.608 353.627 80.84C349.211 80.84 345.683 80.192 343.043 78.896C340.403 77.6 338.483 75.584 337.283 72.848C336.131 70.112 335.555 66.56 335.555 62.192C335.555 59.84 335.795 57.704 336.275 55.784C336.755 53.816 337.523 52.256 338.579 51.104C339.683 49.904 341.123 49.304 342.899 49.304C345.299 49.304 347.003 50 348.011 51.392C349.019 52.736 349.523 54.32 349.523 56.144C349.523 57.776 349.499 59.384 349.451 60.968C349.403 62.504 349.451 63.872 349.595 65.072C349.739 66.272 350.123 67.232 350.747 67.952C351.371 68.672 352.355 69.032 353.699 69.032C355.043 69.032 356.027 68.672 356.651 67.952C357.275 67.232 357.659 66.272 357.803 65.072C357.947 63.872 357.995 62.528 357.947 61.04C357.899 59.504 357.875 57.92 357.875 56.288C357.875 54.272 358.379 52.616 359.387 51.32C360.443 49.976 362.147 49.304 364.499 49.304C366.323 49.304 367.763 49.904 368.819 51.104C369.923 52.256 370.715 53.816 371.195 55.784C371.675 57.704 371.915 59.84 371.915 62.192C371.915 66.128 371.483 69.992 370.619 73.784C369.803 77.528 368.435 80.888 366.515 83.864C364.643 86.84 362.147 89.216 359.027 90.992C355.955 92.768 352.139 93.656 347.579 93.656Z" fill="#228B22"/>
<path d="M69.4694 83.072C65.9174 83.12 62.7974 82.4 60.1094 80.912C57.4694 79.376 55.3814 77.312 53.8454 74.72C52.3574 72.08 51.5654 69.176 51.4694 66.008C51.4214 62.744 52.1654 59.864 53.7014 57.368C55.2374 54.824 57.3734 52.808 60.1094 51.32C62.8454 49.832 65.9654 49.088 69.4694 49.088C72.9254 49.04 75.9734 49.76 78.6134 51.248C81.3014 52.736 83.4374 54.752 85.0214 57.296C86.6054 59.84 87.4454 62.744 87.5414 66.008C87.5894 69.128 86.8454 71.984 85.3094 74.576C83.7734 77.12 81.6374 79.16 78.9014 80.696C76.1654 82.184 73.0214 82.976 69.4694 83.072ZM69.6854 72.56C70.9814 72.56 72.1094 72.056 73.0694 71.048C74.0294 70.04 74.5094 68.864 74.5094 67.52C74.5094 66.176 74.0294 65.024 73.0694 64.064C72.1094 63.056 70.9814 62.552 69.6854 62.552C68.3894 62.552 67.2614 63.056 66.3014 64.064C65.3414 65.024 64.8614 66.176 64.8614 67.52C64.8614 68.864 65.3414 70.04 66.3014 71.048C67.2614 72.056 68.3894 72.56 69.6854 72.56ZM106.495 83.072C102.943 83.12 99.8234 82.4 97.1354 80.912C94.4954 79.376 92.4074 77.312 90.8714 74.72C89.3834 72.08 88.5914 69.176 88.4954 66.008C88.4474 62.744 89.1914 59.864 90.7274 57.368C92.2634 54.824 94.3994 52.808 97.1354 51.32C99.8714 49.832 102.991 49.088 106.495 49.088C109.951 49.04 112.999 49.76 115.639 51.248C118.327 52.736 120.463 54.752 122.047 57.296C123.631 59.84 124.471 62.744 124.567 66.008C124.615 69.128 123.871 71.984 122.335 74.576C120.799 77.12 118.663 79.16 115.927 80.696C113.191 82.184 110.047 82.976 106.495 83.072ZM106.711 72.56C108.007 72.56 109.135 72.056 110.095 71.048C111.055 70.04 111.535 68.864 111.535 67.52C111.535 66.176 111.055 65.024 110.095 64.064C109.135 63.056 108.007 62.552 106.711 62.552C105.415 62.552 104.287 63.056 103.327 64.064C102.367 65.024 101.887 66.176 101.887 67.52C101.887 68.864 102.367 70.04 103.327 71.048C104.287 72.056 105.415 72.56 106.711 72.56ZM249.676 83.072C247.516 83.072 245.764 82.376 244.42 80.984C243.076 79.544 242.044 77.648 241.324 75.296C240.604 72.896 240.124 70.28 239.884 67.448C239.644 64.616 239.524 61.808 239.524 59.024C239.524 55.76 239.956 52.568 240.82 49.448C241.732 46.328 243.1 43.52 244.924 41.024C246.796 38.48 249.148 36.464 251.98 34.976C254.812 33.488 258.172 32.744 262.06 32.744C265.996 32.744 269.548 33.56 272.716 35.192C275.932 36.824 278.5 39.152 280.42 42.176C282.34 45.2 283.3 48.8 283.3 52.976C283.3 56.72 282.724 59.936 281.572 62.624C280.42 65.312 278.86 67.52 276.892 69.248C274.972 70.928 272.812 72.176 270.412 72.992C268.06 73.808 265.66 74.192 263.212 74.144C260.764 74.048 258.484 73.568 256.372 72.704C256.612 73.856 256.732 75.032 256.732 76.232C256.78 77.432 256.588 78.56 256.156 79.616C255.772 80.624 255.052 81.464 253.996 82.136C252.988 82.76 251.548 83.072 249.676 83.072ZM262.78 62.912C264.508 62.912 265.996 62.288 267.244 61.04C268.54 59.744 269.188 58.256 269.188 56.576C269.188 54.848 268.54 53.36 267.244 52.112C265.996 50.816 264.508 50.168 262.78 50.168C261.052 50.168 259.54 50.816 258.244 52.112C256.996 53.36 256.372 54.848 256.372 56.576C256.372 58.256 256.996 59.744 258.244 61.04C259.54 62.288 261.052 62.912 262.78 62.912Z" fill="#FFC700"/>
<path d="M13.2515 81.776L12.047 85.5903L12.0775 85.6L12.1083 85.6092L13.2515 81.776ZM7.2035 77.672L3.91473 79.9488H3.91473L7.2035 77.672ZM4.6835 70.112L0.71256 70.5933L4.6835 70.112ZM4.6115 46.496L0.638112 46.0353L0.635153 46.0608L0.632522 46.0864L4.6115 46.496ZM7.05949 38.504L3.67194 36.3769L3.66515 36.3877L3.65843 36.3986L7.05949 38.504ZM13.0355 34.04L14.3207 37.8279L14.3403 37.8213L14.3598 37.8144L13.0355 34.04ZM30.4595 33.464L29.47 37.3397L29.5089 37.3496L29.548 37.3588L30.4595 33.464ZM37.1555 36.056L35.2454 39.5705L35.2454 39.5705L37.1555 36.056ZM43.1315 40.88L40.1301 43.5241L40.1476 43.544L40.1654 43.5637L43.1315 40.88ZM47.4515 48.224L43.696 49.601L43.7061 49.6285L43.7165 49.6557L47.4515 48.224ZM47.3795 68.312L43.6834 66.7826L43.6767 66.7989L43.6701 66.8152L47.3795 68.312ZM42.9875 75.296L40.0875 72.541L40.0856 72.543L42.9875 75.296ZM37.0115 79.832L38.8004 83.4097L38.8312 83.3943L38.8618 83.3783L37.0115 79.832ZM30.3875 82.28L31.2372 86.1887L31.2776 86.1799L31.3178 86.1703L30.3875 82.28ZM19.8755 70.328H15.8755V73.7654L19.2737 74.2825L19.8755 70.328ZM30.1715 68.6L27.8114 65.3704L27.7964 65.3814L27.7816 65.3925L30.1715 68.6ZM30.1715 52.904L27.9527 56.2322L27.9902 56.2572L28.0282 56.2813L30.1715 52.904ZM19.8755 51.464L19.2737 47.5095L15.8755 48.0266V51.464H19.8755ZM24.3395 79C19.8596 79 16.6007 78.6008 14.3947 77.9428L12.1083 85.6092C15.3742 86.5832 19.5074 87 24.3395 87V79ZM14.456 77.9617C12.3423 77.2942 11.1642 76.3658 10.4923 75.3952L3.91473 79.9488C5.83475 82.7222 8.68866 84.5298 12.047 85.5903L14.456 77.9617ZM10.4923 75.3952C9.68453 74.2284 8.98985 72.3979 8.65443 69.6307L0.71256 70.5933C1.14514 74.1621 2.13046 77.3716 3.91473 79.9488L10.4923 75.3952ZM8.65443 69.6307C8.29636 66.6766 8.1075 62.937 8.1075 58.376H0.107495C0.107495 63.127 0.302631 67.2114 0.71256 70.5933L8.65443 69.6307ZM8.1075 58.376C8.1075 53.8052 8.27292 49.9904 8.59047 46.9056L0.632522 46.0864C0.278072 49.5296 0.107495 53.6348 0.107495 58.376H8.1075ZM8.58488 46.9567C8.92689 44.0068 9.62089 41.9658 10.4606 40.6094L3.65843 36.3986C2.0021 39.0742 1.0641 42.3612 0.638112 46.0353L8.58488 46.9567ZM10.4471 40.6311C11.1758 39.4705 12.3532 38.4955 14.3207 37.8279L11.7503 30.2521C8.34183 31.4085 5.53523 33.4095 3.67194 36.3769L10.4471 40.6311ZM14.3598 37.8144C16.4917 37.0664 19.6796 36.6 24.1235 36.6V28.6C19.2554 28.6 15.0513 29.0936 11.7111 30.2656L14.3598 37.8144ZM24.1235 36.6C25.7035 36.6 27.4801 36.8316 29.47 37.3397L31.449 29.5883C28.9269 28.9444 26.4795 28.6 24.1235 28.6V36.6ZM29.548 37.3588C31.4275 37.7986 33.3254 38.527 35.2454 39.5705L39.0656 32.5415C36.5696 31.185 34.0035 30.1853 31.371 29.5692L29.548 37.3588ZM35.2454 39.5705C37.0137 40.5315 38.6425 41.8355 40.1301 43.5241L46.1329 38.2359C44.0685 35.8925 41.7132 33.9805 39.0655 32.5415L35.2454 39.5705ZM40.1654 43.5637C41.6034 45.153 42.7942 47.1416 43.696 49.601L51.207 46.847C49.9968 43.5464 48.3076 40.639 46.0976 38.1963L40.1654 43.5637ZM43.7165 49.6557C44.6044 51.9719 45.1075 54.8723 45.1075 58.448H53.1075C53.1075 54.1517 52.5066 50.2361 51.1865 46.7923L43.7165 49.6557ZM45.1075 58.448C45.1075 61.846 44.5902 64.5913 43.6834 66.7826L51.0756 69.8414C52.4728 66.4647 53.1075 62.634 53.1075 58.448H45.1075ZM43.6701 66.8152C42.7329 69.1377 41.5276 71.0251 40.0875 72.541L45.8875 78.051C48.0954 75.7269 49.8181 72.9583 51.0889 69.8088L43.6701 66.8152ZM40.0856 72.543C38.6028 74.1059 36.9632 75.3455 35.1612 76.2857L38.8618 83.3783C41.4758 82.0145 43.8202 80.23 45.8894 78.049L40.0856 72.543ZM35.2226 76.2543C33.2644 77.2334 31.3434 77.9386 29.4572 78.3897L31.3178 86.1703C33.8476 85.5654 36.3426 84.6386 38.8004 83.4097L35.2226 76.2543ZM29.5378 78.3713C27.5457 78.8044 25.8196 79 24.3395 79V87C26.5074 87 28.8133 86.7156 31.2372 86.1887L29.5378 78.3713ZM19.2737 74.2825C24.2572 75.0408 28.9272 74.5154 32.5614 71.8075L27.7816 65.3925C26.5198 66.3326 24.3258 66.9592 20.4773 66.3735L19.2737 74.2825ZM32.5316 71.8296C36.2667 69.1 37.9155 65.0102 37.9155 60.32H29.9155C29.9155 63.0218 29.0683 64.452 27.8114 65.3704L32.5316 71.8296ZM37.9155 60.32C37.9155 55.8112 36.1417 51.9553 32.3148 49.5267L28.0282 56.2813C29.1933 57.0207 29.9155 58.1088 29.9155 60.32H37.9155ZM32.3903 49.5758C28.7737 47.1647 24.1797 46.763 19.2737 47.5095L20.4773 55.4185C24.4033 54.821 26.6733 55.3792 27.9527 56.2322L32.3903 49.5758ZM15.8755 51.464V70.328H23.8755V51.464H15.8755ZM69.4694 83.072L69.5235 87.0716L69.5505 87.0713L69.5775 87.0705L69.4694 83.072ZM60.1094 80.912L58.0979 84.3694L58.1348 84.3909L58.1722 84.4116L60.1094 80.912ZM53.8454 74.72L50.3608 76.6841L50.3821 76.7219L50.4043 76.7592L53.8454 74.72ZM51.4694 66.008L47.4699 66.0668L47.4703 66.098L47.4713 66.1292L51.4694 66.008ZM53.7014 57.368L57.1081 59.4644L57.1169 59.45L57.1257 59.4355L53.7014 57.368ZM60.1094 51.32L58.1983 47.8061V47.8061L60.1094 51.32ZM69.4694 49.088V53.088H69.4972L69.525 53.0876L69.4694 49.088ZM78.6134 51.248L76.6494 54.7326L76.6628 54.7401L76.6762 54.7476L78.6134 51.248ZM85.0214 57.296L81.6258 59.4102L85.0214 57.296ZM87.5414 66.008L91.541 65.9465L91.5405 65.9184L91.5397 65.8904L87.5414 66.008ZM85.3094 74.576L88.7337 76.6435L88.7422 76.6294L88.7506 76.6152L85.3094 74.576ZM78.9014 80.696L80.8125 84.2099L80.8361 84.1971L80.8596 84.1839L78.9014 80.696ZM73.0694 64.064L70.1729 66.8226L70.2065 66.8579L70.241 66.8924L73.0694 64.064ZM66.3014 64.064L69.1299 66.8924L69.1643 66.8579L69.198 66.8226L66.3014 64.064ZM66.3014 71.048L63.4049 73.8066H63.4049L66.3014 71.048ZM69.4154 79.0724C66.4494 79.1124 64.0362 78.5138 62.0467 77.4124L58.1722 84.4116C61.5586 86.2862 65.3855 87.1276 69.5235 87.0716L69.4154 79.0724ZM62.121 77.4546C60.0622 76.2568 58.4698 74.6775 57.2866 72.6808L50.4043 76.7592C52.293 79.9465 54.8767 82.4952 58.0979 84.3694L62.121 77.4546ZM57.33 72.756C56.1745 70.7058 55.5449 68.4387 55.4676 65.8868L47.4713 66.1292C47.5859 69.9133 48.5404 73.4542 50.3608 76.6841L57.33 72.756ZM55.469 65.9492C55.4309 63.356 56.0149 61.2408 57.1081 59.4644L50.2948 55.2716C48.316 58.4872 47.412 62.132 47.4699 66.0668L55.469 65.9492ZM57.1257 59.4355C58.2767 57.5291 59.8771 55.9996 62.0205 54.8339L58.1983 47.8061C54.8697 49.6164 52.1982 52.1189 50.2772 55.3005L57.1257 59.4355ZM62.0205 54.8339C64.0998 53.7031 66.5482 53.088 69.4694 53.088V45.088C65.3826 45.088 61.5911 45.9609 58.1983 47.8061L62.0205 54.8339ZM69.525 53.0876C72.3752 53.048 74.7077 53.6382 76.6494 54.7326L80.5775 47.7634C77.2392 45.8818 73.4757 45.032 69.4139 45.0884L69.525 53.0876ZM76.6762 54.7476C78.7837 55.9142 80.4114 57.4597 81.6258 59.4102L88.417 55.1818C86.4635 52.0443 83.8192 49.5578 80.5507 47.7484L76.6762 54.7476ZM81.6258 59.4102C82.8028 61.3005 83.466 63.5034 83.5432 66.1256L91.5397 65.8904C91.4248 61.9846 90.408 58.3795 88.417 55.1818L81.6258 59.4102ZM83.5419 66.0695C83.579 68.4788 83.014 70.6034 81.8683 72.5368L88.7506 76.6152C90.6769 73.3646 91.5999 69.7772 91.541 65.9465L83.5419 66.0695ZM81.8852 72.5085C80.727 74.4268 79.1109 75.9912 76.9433 77.2081L80.8596 84.1839C84.164 82.3288 86.8199 79.8132 88.7337 76.6435L81.8852 72.5085ZM76.9903 77.1821C74.8823 78.3285 72.372 78.9921 69.3614 79.0735L69.5775 87.0705C73.6709 86.9599 77.4486 86.0395 80.8125 84.2099L76.9903 77.1821ZM69.6854 76.56C72.1634 76.56 74.3134 75.5419 75.966 73.8066L70.1729 68.2894C70.0069 68.4637 69.9033 68.5158 69.8717 68.53C69.8462 68.5414 69.7992 68.56 69.6854 68.56V76.56ZM75.966 73.8066C77.6063 72.0843 78.5094 69.9311 78.5094 67.52H70.5094C70.5094 67.7969 70.4526 67.9957 70.1729 68.2894L75.966 73.8066ZM78.5094 67.52C78.5094 65.1031 77.5994 62.9372 75.8979 61.2356L70.241 66.8924C70.4594 67.1108 70.5094 67.2489 70.5094 67.52H78.5094ZM75.966 61.3054C74.3134 59.5701 72.1634 58.552 69.6854 58.552V66.552C69.7992 66.552 69.8462 66.5706 69.8717 66.582C69.9033 66.5962 70.0069 66.6483 70.1729 66.8226L75.966 61.3054ZM69.6854 58.552C67.2075 58.552 65.0575 59.5701 63.4049 61.3054L69.198 66.8226C69.364 66.6483 69.4676 66.5962 69.4992 66.582C69.5247 66.5706 69.5716 66.552 69.6854 66.552V58.552ZM63.473 61.2356C61.7714 62.9372 60.8614 65.1031 60.8614 67.52H68.8614C68.8614 67.2489 68.9114 67.1108 69.1299 66.8924L63.473 61.2356ZM60.8614 67.52C60.8614 69.9311 61.7646 72.0843 63.4049 73.8066L69.198 68.2894C68.9183 67.9957 68.8614 67.7969 68.8614 67.52H60.8614ZM63.4049 73.8066C65.0575 75.5419 67.2075 76.56 69.6854 76.56V68.56C69.5716 68.56 69.5247 68.5414 69.4992 68.53C69.4676 68.5158 69.364 68.4637 69.198 68.2894L63.4049 73.8066ZM106.495 83.072L106.549 87.0716L106.576 87.0713L106.604 87.0705L106.495 83.072ZM97.1354 80.912L95.1239 84.3694L95.1608 84.3909L95.1982 84.4116L97.1354 80.912ZM90.8714 74.72L87.3868 76.6841L87.4081 76.7219L87.4303 76.7592L90.8714 74.72ZM88.4954 66.008L84.4959 66.0668L84.4963 66.098L84.4973 66.1292L88.4954 66.008ZM90.7274 57.368L94.1341 59.4644L94.1429 59.45L94.1517 59.4355L90.7274 57.368ZM97.1354 51.32L95.2243 47.8061V47.8061L97.1354 51.32ZM106.495 49.088V53.088H106.523L106.551 53.0876L106.495 49.088ZM115.639 51.248L113.675 54.7326L113.689 54.7401L113.702 54.7476L115.639 51.248ZM122.047 57.296L118.652 59.4102L122.047 57.296ZM124.567 66.008L128.567 65.9465L128.567 65.9184L128.566 65.8904L124.567 66.008ZM122.335 74.576L125.76 76.6435L125.768 76.6294L125.777 76.6152L122.335 74.576ZM115.927 80.696L117.839 84.2099L117.862 84.1971L117.886 84.1839L115.927 80.696ZM110.095 64.064L107.199 66.8226L107.233 66.8579L107.267 66.8924L110.095 64.064ZM103.327 64.064L106.156 66.8924L106.19 66.8579L106.224 66.8226L103.327 64.064ZM103.327 71.048L100.431 73.8066L103.327 71.048ZM106.441 79.0724C103.475 79.1124 101.062 78.5138 99.0727 77.4124L95.1982 84.4116C98.5846 86.2862 102.411 87.1276 106.549 87.0716L106.441 79.0724ZM99.147 77.4546C97.0882 76.2568 95.4958 74.6775 94.3126 72.6808L87.4303 76.7592C89.319 79.9465 91.9027 82.4952 95.1239 84.3694L99.147 77.4546ZM94.356 72.756C93.2005 70.7058 92.5709 68.4387 92.4936 65.8868L84.4973 66.1292C84.6119 69.9133 85.5664 73.4542 87.3868 76.6841L94.356 72.756ZM92.495 65.9492C92.4569 63.356 93.0409 61.2408 94.1341 59.4644L87.3208 55.2716C85.342 58.4872 84.438 62.132 84.4959 66.0668L92.495 65.9492ZM94.1517 59.4355C95.3027 57.5291 96.9031 55.9996 99.0465 54.8339L95.2243 47.8061C91.8957 49.6164 89.2242 52.1189 87.3032 55.3005L94.1517 59.4355ZM99.0465 54.8339C101.126 53.7031 103.574 53.088 106.495 53.088V45.088C102.409 45.088 98.6171 45.9609 95.2243 47.8061L99.0465 54.8339ZM106.551 53.0876C109.401 53.048 111.734 53.6382 113.675 54.7326L117.603 47.7634C114.265 45.8818 110.502 45.032 106.44 45.0884L106.551 53.0876ZM113.702 54.7476C115.81 55.9142 117.437 57.4597 118.652 59.4102L125.443 55.1818C123.489 52.0443 120.845 49.5578 117.577 47.7484L113.702 54.7476ZM118.652 59.4102C119.829 61.3005 120.492 63.5034 120.569 66.1256L128.566 65.8904C128.451 61.9846 127.434 58.3795 125.443 55.1818L118.652 59.4102ZM120.568 66.0695C120.605 68.4788 120.04 70.6034 118.894 72.5368L125.777 76.6152C127.703 73.3646 128.626 69.7772 128.567 65.9465L120.568 66.0695ZM118.911 72.5085C117.753 74.4268 116.137 75.9912 113.969 77.2081L117.886 84.1839C121.19 82.3288 123.846 79.8132 125.76 76.6435L118.911 72.5085ZM114.016 77.1821C111.908 78.3285 109.398 78.9921 106.387 79.0735L106.604 87.0705C110.697 86.9599 114.475 86.0395 117.839 84.2099L114.016 77.1821ZM106.711 76.56C109.189 76.56 111.339 75.5419 112.992 73.8066L107.199 68.2894C107.033 68.4637 106.929 68.5158 106.898 68.53C106.872 68.5414 106.825 68.56 106.711 68.56V76.56ZM112.992 73.8066C114.632 72.0843 115.535 69.9311 115.535 67.52H107.535C107.535 67.7969 107.479 67.9957 107.199 68.2894L112.992 73.8066ZM115.535 67.52C115.535 65.1031 114.625 62.9372 112.924 61.2356L107.267 66.8924C107.485 67.1108 107.535 67.2489 107.535 67.52H115.535ZM112.992 61.3054C111.339 59.5701 109.189 58.552 106.711 58.552V66.552C106.825 66.552 106.872 66.5706 106.898 66.582C106.929 66.5962 107.033 66.6483 107.199 66.8226L112.992 61.3054ZM106.711 58.552C104.234 58.552 102.084 59.5701 100.431 61.3054L106.224 66.8226C106.39 66.6483 106.494 66.5962 106.525 66.582C106.551 66.5706 106.598 66.552 106.711 66.552V58.552ZM100.499 61.2356C98.7974 62.9372 97.8874 65.1031 97.8874 67.52H105.887C105.887 67.2489 105.937 67.1108 106.156 66.8924L100.499 61.2356ZM97.8874 67.52C97.8874 69.9311 98.7906 72.0843 100.431 73.8066L106.224 68.2894C105.944 67.9957 105.887 67.7969 105.887 67.52H97.8874ZM100.431 73.8066C102.084 75.5419 104.234 76.56 106.711 76.56V68.56C106.598 68.56 106.551 68.5414 106.525 68.53C106.494 68.5158 106.39 68.4637 106.224 68.2894L100.431 73.8066ZM133.441 80.48L131.237 83.8179L131.251 83.8273L131.266 83.8366L133.441 80.48ZM127.537 73.928L123.96 75.7169L123.972 75.7422L123.985 75.7674L127.537 73.928ZM127.753 56.288L124.384 54.1318L124.369 54.1559L124.354 54.1802L127.753 56.288ZM133.585 50.96L135.345 54.5522L135.374 54.5379L135.403 54.523L133.585 50.96ZM144.601 49.592L143.702 53.4896L143.774 53.5061L143.846 53.52L144.601 49.592ZM148.129 50.888L146.161 54.3703L152.821 58.1344L152.112 50.5175L148.129 50.888ZM146.833 44.84L143.012 46.0227L143.029 46.0779L143.048 46.1326L146.833 44.84ZM147.841 34.04L150.297 37.1974V37.1974L147.841 34.04ZM156.481 34.184L153.831 37.18L156.481 34.184ZM159.649 38.576L156.034 40.2883L156.053 40.3268L156.072 40.3649L159.649 38.576ZM161.809 44.768L157.911 45.6615L157.913 45.6705L157.915 45.6795L161.809 44.768ZM163.177 61.976L159.186 61.7185L159.182 61.7827L159.18 61.847L163.177 61.976ZM160.657 72.488L157.026 70.8118L157.008 70.8505L156.991 70.8897L160.657 72.488ZM157.129 77.672L154.258 74.8874L154.236 74.9102L154.214 74.9333L157.129 77.672ZM151.369 81.56L152.881 85.2634L152.913 85.2503L152.945 85.2366L151.369 81.56ZM146.473 70.184L149.302 73.0124L149.336 72.9779L149.37 72.9426L146.473 70.184ZM139.633 63.128L136.805 60.2996L136.771 60.3341L136.737 60.3694L139.633 63.128ZM139.633 70.184L136.737 72.9426L136.804 73.0133L136.875 73.0806L139.633 70.184ZM142.657 79C139.759 79 137.468 78.3232 135.617 77.1234L131.266 83.8366C134.599 85.9967 138.452 87 142.657 87V79ZM135.646 77.1421C133.667 75.8356 132.165 74.1657 131.089 72.0886L123.985 75.7674C125.694 79.0663 128.128 81.7644 131.237 83.8179L135.646 77.1421ZM131.115 72.1391C130.041 69.9914 129.521 67.7943 129.521 65.504H121.521C121.521 69.0697 122.346 72.4886 123.96 75.7169L131.115 72.1391ZM129.521 65.504C129.521 62.2682 130.166 59.988 131.153 58.3958L124.354 54.1802C122.365 57.388 121.521 61.2518 121.521 65.504H129.521ZM131.123 58.4442C132.3 56.6051 133.708 55.3539 135.345 54.5522L131.826 47.3677C128.759 48.8701 126.279 51.1709 124.384 54.1318L131.123 58.4442ZM135.403 54.523C137.214 53.599 139.042 53.16 140.929 53.16V45.16C137.729 45.16 134.66 45.921 131.768 47.3969L135.403 54.523ZM140.929 53.16C141.807 53.16 142.729 53.2651 143.702 53.4896L145.501 45.6944C143.978 45.3429 142.452 45.16 140.929 45.16V53.16ZM143.846 53.52C144.669 53.6783 145.435 53.9601 146.161 54.3703L150.098 47.4058C148.615 46.5679 147.03 45.9857 145.357 45.664L143.846 53.52ZM152.112 50.5175C151.891 48.1384 151.392 45.813 150.619 43.5474L143.048 46.1326C143.618 47.803 143.984 49.5096 144.147 51.2585L152.112 50.5175ZM150.655 43.6573C150.146 42.0156 149.897 40.374 149.897 38.72H141.897C141.897 41.194 142.272 43.6324 143.012 46.0227L150.655 43.6573ZM149.897 38.72C149.897 37.4567 150.244 37.2387 150.297 37.1974L145.386 30.8826C142.847 32.8573 141.897 35.7593 141.897 38.72H149.897ZM150.297 37.1974C150.968 36.6757 151.512 36.528 152.017 36.528V28.528C149.547 28.528 147.307 29.3883 145.386 30.8826L150.297 37.1974ZM152.017 36.528C152.809 36.528 153.344 36.7487 153.831 37.18L159.132 31.188C157.123 29.4113 154.682 28.528 152.017 28.528V36.528ZM153.831 37.18C154.598 37.8585 155.354 38.8521 156.034 40.2883L163.264 36.8637C162.217 34.6519 160.861 32.7175 159.132 31.188L153.831 37.18ZM156.072 40.3649C156.821 41.8634 157.443 43.6198 157.911 45.6615L165.708 43.8745C165.12 41.3082 164.302 38.9366 163.227 36.7871L156.072 40.3649ZM157.915 45.6795C158.402 47.7596 158.758 49.9158 158.981 52.15L166.942 51.354C166.685 48.7882 166.273 46.2883 165.704 43.8565L157.915 45.6795ZM158.981 52.15C159.209 54.4297 159.321 56.6004 159.321 58.664H167.321C167.321 56.3116 167.194 53.8743 166.942 51.354L158.981 52.15ZM159.321 58.664C159.321 59.2486 159.281 60.2459 159.186 61.7185L167.169 62.2335C167.266 60.7301 167.321 59.5194 167.321 58.664H159.321ZM159.18 61.847C159.141 63.0517 158.963 64.4704 158.615 66.12L166.444 67.768C166.864 65.7696 167.118 63.8763 167.175 62.105L159.18 61.847ZM158.615 66.12C158.299 67.6211 157.777 69.1839 157.026 70.8118L164.289 74.1642C165.266 72.0481 165.992 69.9149 166.444 67.768L158.615 66.12ZM156.991 70.8897C156.381 72.2876 155.487 73.6201 154.258 74.8874L160.001 80.4566C161.844 78.5559 163.302 76.4324 164.324 74.0863L156.991 70.8897ZM154.214 74.9333C153.164 76.0509 151.728 77.0544 149.794 77.8834L152.945 85.2366C155.715 84.0496 158.119 82.4611 160.045 80.4107L154.214 74.9333ZM149.858 77.8566C148.125 78.5639 145.77 79 142.657 79V87C146.457 87 149.91 86.4761 152.881 85.2634L149.858 77.8566ZM143.089 75.624C145.501 75.624 147.631 74.6828 149.302 73.0124L143.645 67.3556C143.395 67.6052 143.27 67.624 143.089 67.624V75.624ZM149.37 72.9426C151.01 71.2203 151.913 69.0671 151.913 66.656H143.913C143.913 66.9329 143.857 67.1317 143.577 67.4254L149.37 72.9426ZM151.913 66.656C151.913 64.2449 151.01 62.0917 149.37 60.3694L143.577 65.8866C143.857 66.1803 143.913 66.3791 143.913 66.656H151.913ZM149.37 60.3694C147.717 58.6341 145.567 57.616 143.089 57.616V65.616C143.203 65.616 143.25 65.6346 143.276 65.646C143.307 65.6602 143.411 65.7123 143.577 65.8866L149.37 60.3694ZM143.089 57.616C140.621 57.616 138.481 58.6238 136.805 60.2996L142.462 65.9564C142.802 65.6162 142.965 65.616 143.089 65.616V57.616ZM136.737 60.3694C135.097 62.0917 134.193 64.2449 134.193 66.656H142.193C142.193 66.3791 142.25 66.1803 142.53 65.8866L136.737 60.3694ZM134.193 66.656C134.193 69.0671 135.097 71.2203 136.737 72.9426L142.53 67.4254C142.25 67.1317 142.193 66.9329 142.193 66.656H134.193ZM136.875 73.0806C138.566 74.6913 140.686 75.624 143.089 75.624V67.624C142.901 67.624 142.717 67.5967 142.392 67.2874L136.875 73.0806ZM168.663 80.12L165.296 82.2787L165.309 82.2986L165.322 82.3185L168.663 80.12ZM166.288 71.768L162.308 72.1761L162.309 72.1814L166.288 71.768ZM165.855 47.576L161.86 47.3887L161.858 47.4199L161.857 47.4511L165.855 47.576ZM166.863 39.656L170.754 40.5863L170.756 40.5769L170.758 40.5675L166.863 39.656ZM169.383 34.472L172.269 37.2421L172.296 37.2139L172.323 37.1851L169.383 34.472ZM179.031 34.472L176.092 37.1851L176.119 37.2139L176.146 37.2421L179.031 34.472ZM181.551 39.656L177.657 40.5675L177.659 40.5769L177.661 40.5863L181.551 39.656ZM182.488 47.576L178.489 47.7009L178.49 47.7321L178.492 47.7633L182.488 47.576ZM180.904 76.664L177.059 75.5593L177.055 75.574L177.051 75.5888L180.904 76.664ZM174.135 78.856C172.842 78.856 172.366 78.4696 172.005 77.9215L165.322 82.3185C167.361 85.4184 170.533 86.856 174.135 86.856V78.856ZM172.031 77.9613C171.322 76.8559 170.624 74.7948 170.266 71.3546L162.309 72.1814C162.719 76.1332 163.605 79.6401 165.296 82.2787L172.031 77.9613ZM170.267 71.3599C169.901 67.7998 169.712 63.267 169.712 57.728H161.712C161.712 63.421 161.906 68.2482 162.308 72.1761L170.267 71.3599ZM169.712 57.728C169.712 54.0656 169.759 50.724 169.854 47.7009L161.857 47.4511C161.76 50.572 161.712 53.9984 161.712 57.728H169.712ZM169.851 47.7633C169.987 44.8601 170.3 42.4821 170.754 40.5863L162.973 38.7257C162.371 41.2459 162.012 44.1479 161.86 47.3887L169.851 47.7633ZM170.758 40.5675C171.184 38.7484 171.772 37.7597 172.269 37.2421L166.498 31.7019C164.691 33.5843 163.599 36.0516 162.969 38.7445L170.758 40.5675ZM172.323 37.1851C172.558 36.9305 173 36.6 174.208 36.6V28.6C171.287 28.6 168.513 29.5175 166.444 31.7589L172.323 37.1851ZM174.208 36.6C175.415 36.6 175.857 36.9305 176.092 37.1851L181.971 31.7589C179.902 29.5175 177.128 28.6 174.208 28.6V36.6ZM176.146 37.2421C176.643 37.7597 177.231 38.7484 177.657 40.5675L185.446 38.7445C184.816 36.0516 183.724 33.5843 181.917 31.7019L176.146 37.2421ZM177.661 40.5863C178.108 42.4562 178.399 44.8119 178.489 47.7009L186.486 47.4511C186.384 44.196 186.051 41.2718 185.442 38.7257L177.661 40.5863ZM178.492 47.7633C178.632 50.762 178.704 54.0825 178.704 57.728H186.704C186.704 53.9815 186.631 50.534 186.483 47.3887L178.492 47.7633ZM178.704 57.728C178.704 66.0843 178.1 71.9386 177.059 75.5593L184.748 77.7687C186.107 73.0374 186.704 66.2677 186.704 57.728H178.704ZM177.051 75.5888C176.599 77.2088 176.044 77.9941 175.647 78.3568C175.332 78.6452 174.923 78.856 174.135 78.856V86.856C176.708 86.856 179.107 86.0348 181.048 84.2592C182.907 82.5579 184.056 80.2472 184.756 77.7392L177.051 75.5888ZM192.251 80.912L190.362 84.4379L190.399 84.4579L190.437 84.4771L192.251 80.912ZM185.915 75.08L182.479 77.1283L182.502 77.1674L182.527 77.206L185.915 75.08ZM185.915 57.872L182.457 55.8604L182.444 55.8841L182.43 55.9079L185.915 57.872ZM192.179 51.536L190.148 48.0898L190.134 48.0979L190.121 48.106L192.179 51.536ZM209.675 51.104L207.714 54.5903L209.675 51.104ZM214.931 56.072L211.494 58.1179L211.523 58.1665L211.553 58.2142L214.931 56.072ZM215.291 67.808L218.531 70.154L218.549 70.1281L218.568 70.1018L215.291 67.808ZM211.331 71.048L212.986 74.6895L213.01 74.6785L213.034 74.6673L211.331 71.048ZM206.219 72.488L205.697 68.5222L206.219 72.488ZM200.963 72.632L200.509 76.6061L200.565 76.6126L200.621 76.6174L200.963 72.632ZM196.715 71.768L197.98 67.9733L187.479 64.473L193.316 73.8774L196.715 71.768ZM199.955 74.648L198.446 78.3524L198.527 78.3855L198.609 78.415L199.955 74.648ZM204.131 75.296L204.264 79.2938L204.326 79.2917L204.388 79.2877L204.131 75.296ZM208.163 74.792L208.947 78.7143L208.996 78.7046L209.044 78.6938L208.163 74.792ZM211.835 75.008L210.046 78.5857L211.835 75.008ZM213.347 77.312L209.351 77.4936L209.352 77.5138L209.353 77.5339L213.347 77.312ZM212.411 79.904L209.253 77.4482L209.21 77.5044L209.168 77.562L212.411 79.904ZM208.955 82.136L210.252 85.9198L210.3 85.9034L210.348 85.8857L208.955 82.136ZM196.931 62.984H192.931V64.1312L193.539 65.104L196.931 62.984ZM199.019 64.64L197.636 68.3934L197.724 68.4259L197.814 68.4543L199.019 64.64ZM201.755 64.928L201.357 60.9478L201.346 60.9489L201.336 60.95L201.755 64.928ZM204.131 64.136L201.968 60.7713L201.91 60.8083L201.854 60.8472L204.131 64.136ZM204.131 60.176L201.2 62.8978L201.3 63.0064L201.409 63.1072L204.131 60.176ZM198.011 60.464L201.01 63.1105L201.048 63.0681L201.084 63.0247L198.011 60.464ZM201.755 79C198.677 79 196.149 78.4075 194.065 77.3469L190.437 84.4771C193.824 86.2005 197.633 87 201.755 87V79ZM194.14 77.3861C192.03 76.2557 190.449 74.7801 189.303 72.954L182.527 77.206C184.453 80.2759 187.096 82.6883 190.362 84.4379L194.14 77.3861ZM189.351 73.0317C188.27 71.2198 187.683 69.086 187.683 66.512H179.683C179.683 70.37 180.583 73.9482 182.479 77.1283L189.351 73.0317ZM187.683 66.512C187.683 64.0589 188.26 61.8584 189.399 59.8361L182.43 55.9079C180.594 59.1656 179.683 62.7251 179.683 66.512H187.683ZM189.372 59.8836C190.566 57.8317 192.171 56.2057 194.237 54.966L190.121 48.106C186.907 50.0343 184.336 52.6323 182.457 55.8604L189.372 59.8836ZM194.21 54.9822C196.218 53.7989 198.574 53.16 201.395 53.16V45.16C197.304 45.16 193.516 46.1051 190.148 48.0898L194.21 54.9822ZM201.395 53.16C204.072 53.16 206.125 53.6969 207.714 54.5903L211.636 47.6177C208.616 45.9191 205.15 45.16 201.395 45.16V53.16ZM207.714 54.5903C209.487 55.5878 210.695 56.776 211.494 58.1179L218.368 54.0261C216.767 51.336 214.471 49.2122 211.636 47.6177L207.714 54.5903ZM211.553 58.2142C212.418 59.5787 212.803 60.9295 212.803 62.336H220.803C220.803 59.3265 219.94 56.5013 218.309 53.9298L211.553 58.2142ZM212.803 62.336C212.803 63.9347 212.443 64.901 212.014 65.5142L218.568 70.1018C220.155 67.835 220.803 65.1533 220.803 62.336H212.803ZM212.051 65.462C211.459 66.2791 210.679 66.9337 209.628 67.4287L213.034 74.6673C215.246 73.6263 217.106 72.1209 218.531 70.154L212.051 65.462ZM209.676 67.4065C208.471 67.9539 207.152 68.3308 205.697 68.5222L206.741 76.4538C208.934 76.1652 211.022 75.5821 212.986 74.6895L209.676 67.4065ZM205.697 68.5222C204.134 68.7279 202.672 68.7638 201.304 68.6466L200.621 76.6174C202.614 76.7882 204.656 76.7281 206.741 76.4538L205.697 68.5222ZM201.417 68.6579C199.914 68.4861 198.788 68.2429 197.98 67.9733L195.45 75.5627C196.945 76.0611 198.652 76.3939 200.509 76.6061L201.417 68.6579ZM193.316 73.8774C194.547 75.8608 196.24 77.4537 198.446 78.3524L201.464 70.9436C201.078 70.7863 200.61 70.4592 200.113 69.6585L193.316 73.8774ZM198.609 78.415C200.432 79.0659 202.326 79.3584 204.264 79.2938L203.998 71.2982C203.056 71.3296 202.166 71.1901 201.3 70.881L198.609 78.415ZM204.388 79.2877C206.017 79.1826 207.541 78.9956 208.947 78.7143L207.378 70.8697C206.385 71.0684 205.221 71.2173 203.873 71.3043L204.388 79.2877ZM209.044 78.6938C210.003 78.4771 210.199 78.662 210.046 78.5857L213.624 71.4303C211.551 70.394 209.298 70.4349 207.282 70.8902L209.044 78.6938ZM210.046 78.5857C210.002 78.5637 209.785 78.4377 209.589 78.1386C209.39 77.8365 209.355 77.5731 209.351 77.4936L217.343 77.1304C217.291 75.9949 216.979 74.8195 216.277 73.7494C215.577 72.6823 214.628 71.9323 213.624 71.4303L210.046 78.5857ZM209.353 77.5339C209.349 77.4711 209.353 77.4104 209.361 77.3559C209.369 77.302 209.381 77.2657 209.387 77.2494C209.398 77.2189 209.379 77.2863 209.253 77.4482L215.568 82.3598C216.671 80.9416 217.455 79.1526 217.341 77.0901L209.353 77.5339ZM209.168 77.562C209.217 77.4937 209.181 77.5738 208.909 77.7498C208.638 77.9246 208.208 78.1465 207.562 78.3863L210.348 85.8857C212.317 85.1543 214.347 84.0556 215.654 82.246L209.168 77.562ZM207.658 78.3522C206.597 78.7159 204.714 79 201.755 79V87C205.035 87 207.953 86.7081 210.252 85.9198L207.658 78.3522ZM193.539 65.104C194.524 66.6808 195.957 67.7747 197.636 68.3934L200.402 60.8866C200.352 60.8685 200.323 60.8537 200.309 60.846C200.295 60.8384 200.293 60.8359 200.298 60.84C200.304 60.8443 200.311 60.851 200.318 60.8587C200.325 60.8663 200.326 60.8693 200.323 60.864L193.539 65.104ZM197.814 68.4543C199.227 68.9006 200.691 69.062 202.174 68.906L201.336 60.95C200.994 60.986 200.634 60.9554 200.223 60.8257L197.814 68.4543ZM202.153 68.9081C203.608 68.7626 205.095 68.3337 206.408 67.4248L201.854 60.8472C201.919 60.8023 201.821 60.9014 201.357 60.9478L202.153 68.9081ZM206.294 67.5007C208.055 66.3684 209.139 64.5298 209.139 62.336H201.139C201.139 62.1172 201.193 61.772 201.397 61.4076C201.597 61.0498 201.842 60.8521 201.968 60.7713L206.294 67.5007ZM209.139 62.336C209.139 60.2642 208.228 58.5221 206.853 57.2448L201.409 63.1072C201.425 63.1216 201.343 63.0495 201.262 62.8755C201.176 62.6913 201.139 62.4962 201.139 62.336H209.139ZM207.062 57.4542C205.364 55.6253 203.038 55.168 201.107 55.168V63.168C201.296 63.168 201.433 63.1795 201.524 63.1924C201.616 63.2052 201.651 63.2176 201.642 63.2147C201.632 63.2114 201.574 63.191 201.489 63.1382C201.401 63.084 201.299 63.005 201.2 62.8978L207.062 57.4542ZM201.107 55.168C198.831 55.168 196.568 55.9475 194.938 57.9033L201.084 63.0247C201.066 63.0461 201.034 63.0789 200.988 63.1128C200.942 63.1467 200.9 63.1691 200.869 63.1818C200.808 63.2074 200.861 63.168 201.107 63.168V55.168ZM195.011 57.8175C193.82 59.1682 192.931 60.9122 192.931 62.984H200.931C200.931 63.048 200.924 63.1106 200.912 63.1673C200.9 63.2234 200.886 63.2623 200.877 63.2817C200.862 63.3186 200.879 63.2588 201.01 63.1105L195.011 57.8175ZM244.42 80.984L241.496 83.7133L241.519 83.738L241.542 83.7624L244.42 80.984ZM241.324 75.296L237.493 76.4454L237.496 76.4561L237.499 76.4669L241.324 75.296ZM239.884 67.448L243.87 67.1102L239.884 67.448ZM240.82 49.448L236.981 48.3257L236.973 48.3531L236.965 48.3805L240.82 49.448ZM244.924 41.024L241.702 38.6533L241.694 38.6639L244.924 41.024ZM251.98 34.976L250.119 31.435V31.435L251.98 34.976ZM272.716 35.192L270.884 38.7479L270.895 38.7535L270.906 38.759L272.716 35.192ZM280.42 42.176L283.797 40.032V40.032L280.42 42.176ZM281.572 62.624L277.895 61.0483L281.572 62.624ZM276.892 69.248L279.526 72.2583L279.531 72.2538L276.892 69.248ZM270.412 72.992L269.124 69.2049L269.113 69.2089L269.101 69.213L270.412 72.992ZM263.212 74.144L263.055 78.1409L263.094 78.1425L263.133 78.1432L263.212 74.144ZM256.372 72.704L257.886 69.0018L250.921 66.1524L252.456 73.5198L256.372 72.704ZM256.732 76.232H252.732V76.312L252.735 76.3919L256.732 76.232ZM256.156 79.616L252.454 78.1015L252.435 78.1465L252.418 78.192L256.156 79.616ZM253.996 82.136L256.101 85.5371L256.122 85.524L256.143 85.5106L253.996 82.136ZM267.244 61.04L270.072 63.8684V63.8684L267.244 61.04ZM267.244 52.112L264.363 54.8866L264.415 54.9409L264.469 54.9933L267.244 52.112ZM258.244 52.112L261.072 54.9404L258.244 52.112ZM258.244 61.04L255.363 63.8146L255.415 63.8689L255.469 63.9213L258.244 61.04ZM249.676 79.072C248.462 79.072 247.796 78.7224 247.297 78.2056L241.542 83.7624C243.731 86.0296 246.57 87.072 249.676 87.072V79.072ZM247.344 78.2547C246.505 77.3556 245.734 76.037 245.149 74.1251L237.499 76.4669C238.354 79.259 239.647 81.7324 241.496 83.7133L247.344 78.2547ZM245.155 74.1466C244.524 72.0436 244.089 69.7031 243.87 67.1102L235.898 67.7858C236.158 70.8569 236.683 73.7484 237.493 76.4454L245.155 74.1466ZM243.87 67.1102C243.639 64.3882 243.524 61.6929 243.524 59.024H235.524C235.524 61.9231 235.649 64.8438 235.898 67.7858L243.87 67.1102ZM243.524 59.024C243.524 56.1178 243.908 53.285 244.675 50.5155L236.965 48.3805C236.004 51.851 235.524 55.4022 235.524 59.024H243.524ZM244.659 50.5703C245.448 47.872 246.617 45.4869 248.153 43.3841L241.694 38.6639C239.583 41.5531 238.016 44.784 236.981 48.3257L244.659 50.5703ZM248.146 43.3947C249.654 41.3454 251.538 39.7268 253.84 38.517L250.119 31.435C246.758 33.2012 243.938 35.6146 241.702 38.6533L248.146 43.3947ZM253.84 38.517C255.988 37.3887 258.682 36.744 262.06 36.744V28.744C257.662 28.744 253.636 29.5872 250.119 31.435L253.84 38.517ZM262.06 36.744C265.426 36.744 268.34 37.4372 270.884 38.7479L274.548 31.6361C270.756 29.6828 266.565 28.744 262.06 28.744V36.744ZM270.906 38.759C273.486 40.0683 275.511 41.9067 277.043 44.32L283.797 40.032C281.489 36.3972 278.378 33.5797 274.526 31.625L270.906 38.759ZM277.043 44.32C278.492 46.6027 279.3 49.431 279.3 52.976H287.3C287.3 48.1689 286.187 43.7973 283.797 40.032L277.043 44.32ZM279.3 52.976C279.3 56.324 278.783 58.9767 277.895 61.0483L285.248 64.1997C286.665 60.8953 287.3 57.116 287.3 52.976H279.3ZM277.895 61.0483C276.951 63.2527 275.723 64.9514 274.253 66.2422L279.531 72.2538C281.997 70.0886 283.889 67.3713 285.248 64.1997L277.895 61.0483ZM274.258 66.2377C272.729 67.5755 271.026 68.5584 269.124 69.2049L271.699 76.7791C274.598 75.7936 277.215 74.2805 279.526 72.2583L274.258 66.2377ZM269.101 69.213C267.188 69.8767 265.258 70.1833 263.29 70.1448L263.133 78.1432C266.062 78.2007 268.932 77.7393 271.723 76.771L269.101 69.213ZM263.369 70.1471C261.352 70.068 259.536 69.6765 257.886 69.0018L254.857 76.4062C257.432 77.4595 260.175 78.028 263.055 78.1409L263.369 70.1471ZM252.456 73.5198C252.639 74.3982 252.732 75.3007 252.732 76.232H260.732C260.732 74.7633 260.585 73.3138 260.288 71.8882L252.456 73.5198ZM252.735 76.3919C252.761 77.0499 252.657 77.6038 252.454 78.1015L259.858 81.1305C260.518 79.5162 260.798 77.8141 260.729 76.0721L252.735 76.3919ZM252.418 78.192C252.388 78.2712 252.299 78.4745 251.848 78.7614L256.143 85.5106C257.805 84.4535 259.156 82.9768 259.894 81.04L252.418 78.192ZM251.89 78.7349C251.782 78.8022 251.197 79.072 249.676 79.072V87.072C251.899 87.072 254.194 86.7178 256.101 85.5371L251.89 78.7349ZM262.78 66.912C265.594 66.912 268.092 65.8486 270.072 63.8684L264.415 58.2116C263.9 58.7274 263.422 58.912 262.78 58.912V66.912ZM270.072 63.8684C272.043 61.8974 273.188 59.4186 273.188 56.576H265.188C265.188 57.0934 265.036 57.5906 264.415 58.2116L270.072 63.8684ZM273.188 56.576C273.188 53.7117 272.061 51.1979 270.018 49.2307L264.469 54.9933C265.018 55.5221 265.188 55.9843 265.188 56.576H273.188ZM270.125 49.3374C268.158 47.2946 265.644 46.168 262.78 46.168V54.168C263.372 54.168 263.834 54.3374 264.363 54.8866L270.125 49.3374ZM262.78 46.168C259.922 46.168 257.411 47.2879 255.415 49.2836L261.072 54.9404C261.669 54.3441 262.182 54.168 262.78 54.168V46.168ZM255.415 49.2836C253.435 51.2637 252.372 53.762 252.372 56.576H260.372C260.372 55.934 260.556 55.4563 261.072 54.9404L255.415 49.2836ZM252.372 56.576C252.372 59.3688 253.453 61.8314 255.363 63.8146L261.125 58.2654C260.539 57.6566 260.372 57.1432 260.372 56.576H252.372ZM255.469 63.9213C257.477 65.8542 259.971 66.912 262.78 66.912V58.912C262.133 58.912 261.603 58.7218 261.018 58.1587L255.469 63.9213ZM288.643 80.12L285.275 82.2787L285.288 82.2986L285.301 82.3185L288.643 80.12ZM286.267 71.768L282.287 72.1761L282.288 72.1814L286.267 71.768ZM285.835 47.576L281.839 47.3887L281.837 47.4199L281.836 47.4511L285.835 47.576ZM286.842 39.656L290.733 40.5863L290.735 40.5769L290.737 40.5675L286.842 39.656ZM289.363 34.472L292.248 37.2421L292.275 37.2139L292.302 37.1851L289.363 34.472ZM299.01 34.472L296.071 37.1851L296.098 37.2139L296.125 37.2421L299.01 34.472ZM301.531 39.656L297.636 40.5675L297.638 40.5769L297.64 40.5863L301.531 39.656ZM302.466 47.576L298.468 47.7009L298.469 47.7321L298.471 47.7633L302.466 47.576ZM300.883 76.664L297.038 75.5593L297.034 75.574L297.03 75.5888L300.883 76.664ZM294.115 78.856C292.821 78.856 292.345 78.4696 291.984 77.9215L285.301 82.3185C287.34 85.4184 290.512 86.856 294.115 86.856V78.856ZM292.01 77.9613C291.301 76.8559 290.603 74.7948 290.245 71.3546L282.288 72.1814C282.698 76.1332 283.584 79.6401 285.275 82.2787L292.01 77.9613ZM290.246 71.3599C289.88 67.7998 289.69 63.267 289.69 57.728H281.69C281.69 63.421 281.885 68.2482 282.287 72.1761L290.246 71.3599ZM289.69 57.728C289.69 54.0656 289.738 50.724 289.833 47.7009L281.836 47.4511C281.739 50.572 281.69 53.9984 281.69 57.728H289.69ZM289.83 47.7633C289.966 44.8601 290.279 42.4821 290.733 40.5863L282.952 38.7257C282.35 41.2459 281.991 44.1479 281.839 47.3887L289.83 47.7633ZM290.737 40.5675C291.163 38.7484 291.751 37.7597 292.248 37.2421L286.477 31.7019C284.67 33.5843 283.578 36.0516 282.948 38.7445L290.737 40.5675ZM292.302 37.1851C292.537 36.9305 292.979 36.6 294.186 36.6V28.6C291.266 28.6 288.492 29.5175 286.423 31.7589L292.302 37.1851ZM294.186 36.6C295.394 36.6 295.836 36.9305 296.071 37.1851L301.95 31.7589C299.881 29.5175 297.107 28.6 294.186 28.6V36.6ZM296.125 37.2421C296.622 37.7597 297.21 38.7484 297.636 40.5675L305.425 38.7445C304.795 36.0516 303.703 33.5843 301.896 31.7019L296.125 37.2421ZM297.64 40.5863C298.087 42.4562 298.378 44.8119 298.468 47.7009L306.465 47.4511C306.363 44.196 306.03 41.2718 305.421 38.7257L297.64 40.5863ZM298.471 47.7633C298.611 50.762 298.682 54.0825 298.682 57.728H306.682C306.682 53.9815 306.61 50.534 306.462 47.3887L298.471 47.7633ZM298.682 57.728C298.682 66.0843 298.079 71.9386 297.038 75.5593L304.727 77.7687C306.086 73.0374 306.682 66.2677 306.682 57.728H298.682ZM297.03 75.5888C296.578 77.2088 296.023 77.9941 295.626 78.3568C295.311 78.6452 294.902 78.856 294.115 78.856V86.856C296.687 86.856 299.086 86.0348 301.027 84.2592C302.886 82.5579 304.035 80.2472 304.735 77.7392L297.03 75.5888ZM310.142 81.92L308.737 85.6653L308.752 85.671L308.767 85.6765L310.142 81.92ZM305.534 78.68L302.371 81.1287L302.39 81.1539L302.41 81.1788L305.534 78.68ZM305.534 68.168L302.497 65.5648L305.534 68.168ZM310.142 65.072L308.767 61.3155L308.752 61.321L308.737 61.3267L310.142 65.072ZM320.438 64.352L319.622 68.2679L319.701 68.2843L319.78 68.2976L320.438 64.352ZM322.814 65.072L320.595 68.4002L326.814 72.5461V65.072H322.814ZM321.446 62.192L318.695 65.0958L318.736 65.135L318.779 65.173L321.446 62.192ZM314.174 61.184L315.144 65.0646L315.248 65.0386L315.35 65.0071L314.174 61.184ZM312.59 61.76L310.801 58.1823L312.59 61.76ZM310.934 62.408L311.904 66.2886L312.008 66.2626L312.11 66.2311L310.934 62.408ZM304.958 61.472L302.211 64.3801L302.294 64.4583L302.381 64.5316L304.958 61.472ZM304.886 53.984L301.736 51.5188L301.728 51.5285L301.721 51.5382L304.886 53.984ZM308.198 51.248L310.087 54.7739L308.198 51.248ZM312.518 49.664L311.688 45.7511L311.675 45.7537L311.663 45.7564L312.518 49.664ZM327.494 51.536L325.463 54.9822L325.486 54.9957L325.509 55.009L327.494 51.536ZM333.47 57.584L329.92 59.4273V59.4273L333.47 57.584ZM334.982 70.256L331.065 69.4456L331.051 69.5108L331.04 69.5764L334.982 70.256ZM333.974 73.496L330.488 71.535L328.878 74.3964L331.371 76.533L333.974 73.496ZM335.486 75.512L331.821 77.1153L331.862 77.2092L331.908 77.3009L335.486 75.512ZM334.694 81.488L331.667 78.8735L331.662 78.8792L331.657 78.8848L334.694 81.488ZM327.998 82.424L326.115 85.9534L326.115 85.9534L327.998 82.424ZM325.838 80.912L328.458 77.8892L326.295 76.0147L323.822 77.4569L325.838 80.912ZM322.022 82.496L322.96 86.3843L323.023 86.3692L323.086 86.352L322.022 82.496ZM320.51 75.08L323.043 78.1758L323.057 78.1644L323.071 78.1529L320.51 75.08ZM320.51 71.984L317.819 74.9438L317.959 75.0707L318.11 75.184L320.51 71.984ZM315.614 71.984L318.014 75.184L318.096 75.1225L318.175 75.0569L315.614 71.984ZM315.614 75.08L313.053 78.1529L313.132 78.2185L313.214 78.28L315.614 75.08ZM316.622 79C314.682 79 312.993 78.704 311.516 78.1635L308.767 85.6765C311.226 86.576 313.858 87 316.622 87V79ZM311.546 78.1747C310.224 77.6786 309.31 76.9971 308.657 76.1812L302.41 81.1788C304.062 83.2429 306.22 84.7214 308.737 85.6653L311.546 78.1747ZM308.697 76.2313C308.189 75.5757 307.806 74.6156 307.806 73.064H299.806C299.806 76.0244 300.574 78.8083 302.371 81.1287L308.697 76.2313ZM307.806 73.064C307.806 72.0117 308.095 71.3267 308.571 70.7712L302.497 65.5648C300.669 67.6973 299.806 70.2763 299.806 73.064H307.806ZM308.571 70.7712C309.219 70.0155 310.157 69.3382 311.546 68.8173L308.737 61.3267C306.286 62.2458 304.153 63.6325 302.497 65.5648L308.571 70.7712ZM311.516 68.8285C312.993 68.288 314.682 67.992 316.622 67.992V59.992C313.858 59.992 311.226 60.416 308.767 61.3155L311.516 68.8285ZM316.622 67.992C317.788 67.992 318.782 68.0929 319.622 68.2679L321.254 60.4361C319.79 60.1311 318.24 59.992 316.622 59.992V67.992ZM319.78 68.2976C320.249 68.3758 320.556 68.4497 320.736 68.5041C320.822 68.5303 320.852 68.5438 320.838 68.5378C320.828 68.5337 320.735 68.4933 320.595 68.4002L325.033 61.7438C323.828 60.9408 322.278 60.6035 321.095 60.4064L319.78 68.2976ZM326.814 65.072C326.814 62.6991 325.77 60.694 324.113 59.211L318.779 65.173C318.84 65.2276 318.868 65.2618 318.875 65.2719C318.882 65.2811 318.873 65.2705 318.859 65.2402C318.844 65.2093 318.831 65.1721 318.823 65.1339C318.819 65.1159 318.816 65.1007 318.815 65.0893C318.814 65.0779 318.814 65.0719 318.814 65.072H326.814ZM324.197 59.2882C322.139 57.3385 319.234 56.896 316.694 56.896V64.896C317.589 64.896 318.173 64.9841 318.521 65.0791C318.866 65.1731 318.842 65.2353 318.695 65.0958L324.197 59.2882ZM316.694 56.896C315.453 56.896 314.164 57.002 312.997 57.3609L315.35 65.0071C315.432 64.982 315.823 64.896 316.694 64.896V56.896ZM313.204 57.3034C312.374 57.5108 311.568 57.7988 310.801 58.1823L314.379 65.3377C314.572 65.2412 314.822 65.1452 315.144 65.0646L313.204 57.3034ZM310.801 58.1823C310.555 58.3054 310.214 58.4443 309.757 58.5849L312.11 66.2311C312.901 65.9877 313.665 65.6946 314.379 65.3377L310.801 58.1823ZM309.964 58.5274C309.849 58.556 309.432 58.624 308.558 58.624V66.624C309.7 66.624 310.866 66.548 311.904 66.2886L309.964 58.5274ZM308.558 58.624C307.772 58.624 307.56 58.434 307.534 58.4124L302.381 64.5316C304.18 66.046 306.368 66.624 308.558 66.624V58.624ZM307.704 58.5639C307.776 58.6318 307.782 58.6795 307.758 58.6107C307.726 58.5203 307.662 58.2742 307.662 57.8H299.662C299.662 60.1088 300.284 62.5599 302.211 64.3801L307.704 58.5639ZM307.662 57.8C307.662 57.0898 307.838 56.7049 308.051 56.4298L301.721 51.5382C300.301 53.3751 299.662 55.5342 299.662 57.8H307.662ZM308.036 56.4492C308.529 55.8196 309.189 55.2549 310.087 54.7739L306.309 47.7221C304.519 48.6811 302.971 49.9404 301.736 51.5188L308.036 56.4492ZM310.087 54.7739C311.095 54.2337 312.186 53.8312 313.373 53.5716L311.663 45.7564C309.778 46.1688 307.988 46.8223 306.309 47.7221L310.087 54.7739ZM313.348 53.5769C314.692 53.2918 315.925 53.16 317.054 53.16V45.16C315.303 45.16 313.512 45.3642 311.688 45.7511L313.348 53.5769ZM317.054 53.16C320.865 53.16 323.577 53.8707 325.463 54.9822L329.525 48.0898C326.035 46.0333 321.787 45.16 317.054 45.16V53.16ZM325.509 55.009C327.599 56.2034 329.013 57.6817 329.92 59.4273L337.02 55.7407C335.334 52.4943 332.764 49.9406 329.478 48.063L325.509 55.009ZM329.92 59.4273C330.908 61.3301 331.414 63.4064 331.414 65.72H339.414C339.414 62.1776 338.624 58.8299 337.02 55.7407L329.92 59.4273ZM331.414 65.72C331.414 67.1189 331.29 68.356 331.065 69.4456L338.899 71.0664C339.249 69.372 339.414 67.5851 339.414 65.72H331.414ZM331.04 69.5764C330.837 70.756 330.602 71.3315 330.488 71.535L337.46 75.457C338.21 74.1245 338.647 72.54 338.924 70.9356L331.04 69.5764ZM331.371 76.533C331.612 76.7395 331.74 76.9297 331.821 77.1153L339.15 73.9087C338.56 72.5583 337.68 71.4045 336.577 70.459L331.371 76.533ZM331.908 77.3009C332.029 77.5433 332.062 77.7255 332.062 77.888H340.062C340.062 76.4185 339.71 75.0167 339.064 73.7231L331.908 77.3009ZM332.062 77.888C332.062 78.2327 331.977 78.5138 331.667 78.8735L337.721 84.1025C339.234 82.3502 340.062 80.2313 340.062 77.888H332.062ZM331.657 78.8848C331.648 78.8953 331.65 78.8976 331.612 78.913C331.553 78.9367 331.359 79 330.95 79V87C333.458 87 335.936 86.1855 337.731 84.0912L331.657 78.8848ZM330.95 79C330.523 79 330.229 78.9666 330.042 78.93C329.854 78.8934 329.82 78.8628 329.88 78.8946L326.115 85.9534C327.642 86.7674 329.363 87 330.95 87V79ZM329.88 78.8946C329.464 78.6725 328.988 78.3491 328.458 77.8892L323.218 83.9348C324.128 84.7229 325.092 85.4075 326.115 85.9534L329.88 78.8946ZM323.822 77.4569C322.992 77.941 322.044 78.3404 320.958 78.64L323.086 86.352C324.783 85.8836 326.379 85.227 327.853 84.3671L323.822 77.4569ZM321.083 78.6077C320.117 78.8409 318.664 79 316.622 79V87C318.995 87 321.143 86.8231 322.96 86.3843L321.083 78.6077ZM318.062 79.728C319.557 79.728 321.475 79.4582 323.043 78.1758L317.977 71.9842C318.247 71.7631 318.462 71.7036 318.478 71.6992C318.488 71.6965 318.461 71.7044 318.389 71.7126C318.316 71.7207 318.209 71.728 318.062 71.728V79.728ZM323.071 78.1529C324.263 77.1591 325.374 75.5964 325.374 73.496H317.374C317.374 73.0847 317.484 72.7052 317.646 72.4086C317.795 72.1361 317.942 72.0129 317.949 72.0071L323.071 78.1529ZM325.374 73.496C325.374 71.3486 324.214 69.7619 322.91 68.784L318.11 75.184C318.063 75.1488 317.869 74.992 317.685 74.6706C317.486 74.3231 317.374 73.9098 317.374 73.496H325.374ZM323.201 69.0242C321.624 67.5907 319.637 67.264 318.062 67.264V75.264C318.339 75.264 318.422 75.2958 318.373 75.2815C318.311 75.2632 318.081 75.1815 317.819 74.9438L323.201 69.0242ZM318.062 67.264C316.447 67.264 314.592 67.6284 313.053 68.9111L318.175 75.0569C318.086 75.1308 318.001 75.1846 317.928 75.2219C317.857 75.2586 317.807 75.2755 317.786 75.2815C317.752 75.2916 317.828 75.264 318.062 75.264V67.264ZM313.214 68.784C311.91 69.7619 310.75 71.3486 310.75 73.496H318.75C318.75 73.9098 318.637 74.3231 318.439 74.6706C318.255 74.992 318.061 75.1488 318.014 75.184L313.214 68.784ZM310.75 73.496C310.75 75.5964 311.861 77.1591 313.053 78.1529L318.175 72.0071C318.182 72.0129 318.329 72.1361 318.477 72.4086C318.639 72.7052 318.75 73.0847 318.75 73.496H310.75ZM313.214 78.28C314.739 79.4235 316.528 79.728 318.062 79.728V71.728C317.933 71.728 317.838 71.7214 317.773 71.7139C317.708 71.7064 317.68 71.6988 317.681 71.6992C317.686 71.7005 317.826 71.7389 318.014 71.88L313.214 78.28ZM343.115 93.008L344.301 89.1877L344.257 89.1743L344.214 89.1619L343.115 93.008ZM339.803 91.064L342.707 88.313L342.67 88.2738L342.631 88.2356L339.803 91.064ZM340.811 83.864L338.85 80.3777L340.811 83.864ZM345.995 82.712L345.795 86.707L345.85 86.7097L345.904 86.711L345.995 82.712ZM350.891 82.424L351.707 86.3399L351.766 86.3276L351.824 86.3136L350.891 82.424ZM353.627 80.84L356.731 83.3624L362.031 76.84H353.627V80.84ZM337.283 72.848L333.596 74.4002L333.608 74.4275L333.62 74.4546L337.283 72.848ZM336.275 55.784L340.156 56.7541L340.158 56.743L340.161 56.7318L336.275 55.784ZM338.579 51.104L335.635 48.3958L335.63 48.4011L338.579 51.104ZM348.011 51.392L344.771 53.738L344.791 53.7652L344.811 53.792L348.011 51.392ZM349.451 60.968L353.449 61.0929L353.449 61.0892L349.451 60.968ZM349.595 65.072L353.567 64.5954L349.595 65.072ZM350.747 67.952L353.77 65.3323L350.747 67.952ZM357.947 61.04L353.949 61.1649L353.949 61.169L357.947 61.04ZM359.387 51.32L356.242 48.8487L356.236 48.8565L356.23 48.8642L359.387 51.32ZM368.819 51.104L365.816 53.7465L365.872 53.8103L365.931 53.8716L368.819 51.104ZM371.195 55.784L367.309 56.7318L367.312 56.743L367.314 56.7541L371.195 55.784ZM370.619 73.784L366.719 72.8954L366.715 72.9138L366.711 72.9322L370.619 73.784ZM366.515 83.864L363.154 81.6955L363.141 81.7148L363.129 81.7342L366.515 83.864ZM359.027 90.992L357.048 87.5157L357.037 87.5224L357.025 87.5291L359.027 90.992ZM347.579 89.656C346.362 89.656 345.277 89.4907 344.301 89.1877L341.929 96.8283C343.737 97.3893 345.628 97.656 347.579 97.656V89.656ZM344.214 89.1619C343.479 88.952 343.024 88.6479 342.707 88.313L336.899 93.815C338.31 95.3041 340.063 96.296 342.016 96.8541L344.214 89.1619ZM342.631 88.2356C342.592 88.1959 342.579 88.1727 342.566 88.1394C342.55 88.0961 342.507 87.9605 342.507 87.68H334.507C334.507 89.9722 335.254 92.1719 336.975 93.8924L342.631 88.2356ZM342.507 87.68C342.507 87.5658 342.52 87.5124 342.522 87.5036C342.524 87.4978 342.52 87.5127 342.507 87.5335C342.495 87.5535 342.493 87.5491 342.522 87.5219C342.554 87.4923 342.629 87.4308 342.772 87.3503L338.85 80.3777C336.131 81.9073 334.507 84.4695 334.507 87.68H342.507ZM342.772 87.3503C343.591 86.8897 344.558 86.6451 345.795 86.707L346.195 78.717C343.592 78.5869 341.103 79.1103 338.85 80.3777L342.772 87.3503ZM345.904 86.711C348.121 86.7613 350.11 86.6726 351.707 86.3399L350.075 78.5081C349.368 78.6554 348.093 78.7587 346.086 78.713L345.904 86.711ZM351.824 86.3136C353.664 85.8721 355.429 84.9658 356.731 83.3624L350.523 78.3176C350.537 78.3003 350.534 78.314 350.471 78.3503C350.401 78.391 350.244 78.4656 349.958 78.5345L351.824 86.3136ZM353.627 76.84C349.542 76.84 346.691 76.2311 344.806 75.3053L341.28 82.4867C344.675 84.1529 348.88 84.84 353.627 84.84V76.84ZM344.806 75.3053C343.028 74.4327 341.773 73.1274 340.946 71.2414L333.62 74.4546C335.193 78.0406 337.778 80.7673 341.28 82.4867L344.806 75.3053ZM340.97 71.2958C340.098 69.2257 339.555 66.2563 339.555 62.192H331.555C331.555 66.8637 332.164 70.9983 333.596 74.4002L340.97 71.2958ZM339.555 62.192C339.555 60.1076 339.768 58.304 340.156 56.7541L332.394 54.8139C331.822 57.104 331.555 59.5724 331.555 62.192H339.555ZM340.161 56.7318C340.527 55.2299 341.042 54.3365 341.528 53.8069L335.63 48.4011C334.004 50.1755 332.983 52.4021 332.389 54.8362L340.161 56.7318ZM341.523 53.8122C341.797 53.5141 342.13 53.304 342.899 53.304V45.304C340.116 45.304 337.569 46.2939 335.635 48.3958L341.523 53.8122ZM342.899 53.304C343.73 53.304 344.214 53.4268 344.465 53.529C344.677 53.6156 344.736 53.6899 344.771 53.738L351.251 49.046C349.219 46.2406 346.036 45.304 342.899 45.304V53.304ZM344.811 53.792C345.254 54.3833 345.523 55.1069 345.523 56.144H353.523C353.523 53.5331 352.784 51.0887 351.211 48.992L344.811 53.792ZM345.523 56.144C345.523 57.7368 345.5 59.3044 345.453 60.8468L353.449 61.0892C353.498 59.4636 353.523 57.8152 353.523 56.144H345.523ZM345.453 60.8431C345.4 62.5288 345.45 64.104 345.624 65.5486L353.567 64.5954C353.452 63.64 353.406 62.4792 353.449 61.0929L345.453 60.8431ZM345.624 65.5486C345.837 67.329 346.453 69.1043 347.724 70.5717L353.77 65.3323C353.77 65.3322 353.764 65.3259 353.754 65.309C353.744 65.2917 353.726 65.2593 353.705 65.2064C353.662 65.0992 353.604 64.906 353.567 64.5954L345.624 65.5486ZM347.724 70.5717C349.38 72.4827 351.688 73.032 353.699 73.032V65.032C353.37 65.032 353.274 64.9861 353.327 65.0055C353.359 65.017 353.426 65.0458 353.513 65.1039C353.601 65.1631 353.69 65.2402 353.77 65.3323L347.724 70.5717ZM353.699 73.032C355.71 73.032 358.018 72.4827 359.674 70.5717L353.628 65.3323C353.708 65.2402 353.797 65.1631 353.885 65.1039C353.972 65.0458 354.039 65.017 354.071 65.0055C354.124 64.9861 354.028 65.032 353.699 65.032V73.032ZM359.674 70.5717C360.945 69.1043 361.561 67.329 361.775 65.5486L353.832 64.5954C353.794 64.906 353.736 65.0992 353.693 65.2064C353.672 65.2593 353.654 65.2917 353.644 65.309C353.634 65.3259 353.628 65.3322 353.628 65.3323L359.674 70.5717ZM361.775 65.5486C361.947 64.108 361.998 62.5569 361.945 60.911L353.949 61.169C353.992 62.4991 353.947 63.636 353.832 64.5954L361.775 65.5486ZM361.945 60.9151C361.898 59.4232 361.875 57.8809 361.875 56.288H353.875C353.875 57.9591 353.9 59.5848 353.949 61.1649L361.945 60.9151ZM361.875 56.288C361.875 54.9536 362.198 54.2215 362.544 53.7758L356.23 48.8642C354.56 51.0105 353.875 53.5904 353.875 56.288H361.875ZM362.532 53.7913C362.571 53.7418 362.884 53.304 364.499 53.304V45.304C361.41 45.304 358.315 46.2102 356.242 48.8487L362.532 53.7913ZM364.499 53.304C365.354 53.304 365.631 53.536 365.816 53.7465L371.822 48.4615C369.895 46.272 367.293 45.304 364.499 45.304V53.304ZM365.931 53.8716C366.433 54.3958 366.952 55.2664 367.309 56.7318L375.081 54.8362C374.479 52.3656 373.413 50.1162 371.707 48.3364L365.931 53.8716ZM367.314 56.7541C367.702 58.304 367.915 60.1076 367.915 62.192H375.915C375.915 59.5724 375.648 57.104 375.076 54.8139L367.314 56.7541ZM367.915 62.192C367.915 65.8326 367.516 69.3984 366.719 72.8954L374.519 74.6726C375.45 70.5856 375.915 66.4234 375.915 62.192H367.915ZM366.711 72.9322C365.988 76.2466 364.794 79.1539 363.154 81.6955L369.876 86.0325C372.076 82.6221 373.618 78.8094 374.527 74.6358L366.711 72.9322ZM363.129 81.7342C361.616 84.1402 359.608 86.0586 357.048 87.5157L361.006 94.4683C364.686 92.3734 367.67 89.5398 369.901 85.9938L363.129 81.7342ZM357.025 87.5291C354.711 88.8666 351.632 89.656 347.579 89.656V97.656C352.646 97.656 357.199 96.6694 361.029 94.4549L357.025 87.5291Z" fill="white" mask="url(#path-1-outside-1_2332_6)"/>
</g>
<defs>
<filter id="filter0_d_2332_6" x="-20" y="22.528" width="420" height="89.1281" filterUnits="userSpaceOnUse" color-interpolation-filters="sRGB">
<feFlood flood-opacity="0" result="BackgroundImageFix"/>
<feColorMatrix in="SourceAlpha" type="matrix" values="0 0 0 0 0 0 0 0 0 0 0 0 0 0 0 0 0 0 127 0" result="hardAlpha"/>
<feOffset dy="4"/>
<feGaussianBlur stdDeviation="2"/>
<feComposite in2="hardAlpha" operator="out"/>
<feColorMatrix type="matrix" values="0 0 0 0 0 0 0 0 0 0 0 0 0 0 0 0 0 0 0.25 0"/>
<feBlend mode="normal" in2="BackgroundImageFix" result="effect1_dropShadow_2332_6"/>
<feBlend mode="normal" in="SourceGraphic" in2="effect1_dropShadow_2332_6" result="shape"/>
</filter>
</defs>
</svg>
