<svg width="45" height="30" viewBox="0 0 45 30" fill="none" xmlns="http://www.w3.org/2000/svg">
<path d="M30.9268 3.60714L31.3468 3.08929C32.3268 2.12262 33.4819 1.63929 34.812 1.63929C36.1771 1.63929 37.3496 2.12262 38.3297 3.08929C39.2747 4.05595 39.7473 5.2125 39.7473 6.55893C39.7473 7.87084 39.2747 9.01012 38.3297 9.97679C39.4147 10.4256 40.4123 11.1161 41.3224 12.0482C43.1075 13.8435 44 16.0012 44 18.5214V18.5732C44 19.9196 43.1075 21.0417 41.3224 21.9393C40.1323 22.5952 38.7847 23.0268 37.2796 23.2339V23.0268C37.2796 18.953 35.827 15.4833 32.9218 12.6179V12.5661L30.7692 10.8054L31.0843 10.0804L31.2942 9.97679L31.1367 9.87322C31.4168 8.9756 31.5568 8.06072 31.5568 7.12857C31.5568 5.85119 31.3468 4.67738 30.9268 3.60714ZM28.1966 12.1C29.2816 12.6869 30.2792 13.4292 31.1892 14.3268C33.6044 16.7434 34.812 19.6435 34.812 23.0268V23.3893C34.672 25.0464 33.4644 26.4619 31.1892 27.6357C28.8091 28.8786 25.9214 29.5 22.5262 29.5C19.131 29.5 16.2259 28.8786 13.8107 27.6357C11.5706 26.4619 10.3805 25.0464 10.2405 23.3893V23.0268C10.2405 19.6435 11.4306 16.7434 13.8107 14.3268C14.7558 13.4292 15.7533 12.6869 16.8034 12.1L17.801 11.6339C16.5759 10.3911 15.9634 8.88929 15.9634 7.12857C15.9634 5.29881 16.6109 3.74524 17.9059 2.46786C19.166 1.15595 20.7061 0.5 22.5262 0.5C24.3463 0.5 25.904 1.15595 27.199 2.46786C28.4591 3.74524 29.0891 5.29881 29.0891 7.12857C29.0891 8.88929 28.4766 10.3911 27.2515 11.6339L28.1966 12.1ZM14.1783 3.60714C13.7232 4.67738 13.4957 5.85119 13.4957 7.12857C13.4957 8.06072 13.6357 8.95834 13.9157 9.82143L13.7582 9.97679L14.0208 10.1321L14.2833 10.8054C13.5132 11.3232 12.7957 11.9101 12.1306 12.5661V12.6179C9.22547 15.4833 7.7729 18.953 7.7729 23.0268V23.2339C6.26781 23.0268 4.92019 22.5952 3.73013 21.9393C1.94502 21.0417 1.035 19.9196 1 18.5732V18.5214C1 16.0012 1.91002 13.8435 3.73013 12.0482C4.60518 11.1161 5.60276 10.4256 6.72282 9.97679C5.77777 9.01012 5.3052 7.87084 5.3052 6.55893C5.3052 5.2125 5.77777 4.05595 6.72282 3.08929C7.70288 2.12262 8.87543 1.63929 10.2405 1.63929C11.6056 1.63929 12.7782 2.12262 13.7582 3.08929L14.1783 3.60714Z" fill="#228B22" stroke="#222222"/>
</svg>
