<svg width="366" height="332" viewBox="0 0 366 332" fill="none" xmlns="http://www.w3.org/2000/svg">
<mask id="path-1-outside-1_2319_2004" maskUnits="userSpaceOnUse" x="0" y="0" width="367" height="332" fill="black">
<rect fill="white" width="367" height="332"/>
<path d="M146.345 72.9755C148.029 75.1652 150.314 76.8313 153.201 77.9738C156.088 79.1162 159.155 79.5446 162.403 79.259C165.531 79.0686 168.417 78.2594 171.064 76.8313C173.59 75.308 175.454 73.3563 176.657 70.9762L208.052 11.1397C209.977 7.4267 213.285 4.76095 217.976 3.14246C222.667 1.61918 227.418 1.61918 232.23 3.14246C236.921 4.76095 240.229 7.4267 242.154 11.1397C244.078 14.8527 244.078 18.5657 242.154 22.2787C236.38 33.5129 230.185 43.9855 223.569 53.6964C221.765 56.3622 221.163 59.1231 221.765 61.9793C222.246 64.9306 223.81 67.4536 226.456 69.5481C229.102 71.7378 232.29 73.0231 236.019 73.4039C239.748 73.8799 243.296 73.4515 246.664 72.1186C250.995 70.2145 255.686 69.2625 260.738 69.2625C269.038 69.2625 276.135 71.595 282.029 76.2601C287.923 80.9251 290.93 86.5422 291.05 93.1114V93.6826C290.93 96.0628 291.592 98.3477 293.035 100.537C294.479 102.632 296.523 104.346 299.17 105.678C301.696 106.916 304.523 107.535 307.65 107.535C310.657 107.63 313.484 107.107 316.13 105.964L331.828 99.3949L339.406 98.8237C342.052 99.4901 344.037 100.775 345.36 102.68C346.683 104.584 346.984 106.631 346.262 108.82C345.42 110.915 343.796 112.486 341.391 113.533C332.971 117.055 324.37 120.34 315.589 123.387L309.635 126.671L306.026 131.67C305.304 133.574 305.064 135.478 305.304 137.382C305.665 139.381 306.447 141.19 307.65 142.809C310.657 146.617 312.161 150.758 312.161 155.233L311.259 160.945C310.537 162.944 310.417 164.896 310.898 166.8C311.499 168.8 312.522 170.608 313.965 172.227C315.409 173.845 317.273 175.131 319.558 176.083C321.724 177.035 324.069 177.606 326.595 177.796L357.629 179.51C359.554 179.605 361.118 180.272 362.321 181.509C363.644 182.652 364.185 183.985 363.944 185.508C363.824 187.031 363.042 188.269 361.599 189.221C360.155 190.268 358.471 190.744 356.547 190.649L324.611 187.365L315.048 188.079C312.041 189.126 309.514 190.697 307.47 192.791C305.545 194.886 304.462 197.266 304.222 199.932C304.102 202.502 304.823 204.93 306.387 207.215C307.71 209.119 308.432 211.118 308.552 213.213C308.552 215.498 307.951 217.592 306.748 219.496L301.876 224.066C299.952 225.304 297.726 226.113 295.2 226.494C292.193 226.97 289.547 228.017 287.261 229.636C284.976 231.254 283.352 233.253 282.39 235.634C280.465 240.489 276.856 244.44 271.564 247.487C266.271 250.533 260.317 252.056 253.701 252.056C249.13 252.056 244.86 251.342 240.891 249.914C237.402 248.582 233.854 248.248 230.245 248.915C226.516 249.486 223.329 250.914 220.682 253.199C218.277 255.389 216.893 258.007 216.532 261.053C216.172 264.005 217.014 266.766 219.058 269.336L250.995 309.894C253.521 313.035 254.242 316.368 253.16 319.89C252.077 323.413 249.611 326.126 245.762 328.03C241.913 329.934 237.763 330.458 233.312 329.601C228.862 328.839 225.374 326.888 222.847 323.746C201.557 296.708 187.784 271.907 181.529 249.343C180.687 246.677 179.003 244.345 176.477 242.346C173.951 240.441 170.944 239.299 167.455 238.918C164.087 238.442 160.779 238.823 157.531 240.061C154.404 241.203 151.938 242.964 150.134 245.345L146.706 249.772C145.022 252.056 142.496 253.342 139.128 253.627C134.917 253.913 131.369 255.246 128.482 257.626C125.475 260.006 123.851 262.862 123.61 266.194L120.543 299.326C120.303 301.611 119.16 303.467 117.115 304.895C114.95 306.323 112.484 306.942 109.717 306.752C106.951 306.657 104.665 305.752 102.861 304.039C101.057 302.42 100.275 300.468 100.515 298.183C102.921 271.336 109.356 249.105 119.821 231.492C121.626 228.731 122.107 225.827 121.265 222.781C120.303 219.734 118.318 217.259 115.311 215.355C112.424 213.356 108.996 212.308 105.026 212.213C101.177 212.023 97.6284 212.832 94.3807 214.641L91.3133 216.069C87.4641 217.402 84.5772 219.544 82.6526 222.495C79.044 228.017 73.9318 232.444 67.316 235.776C60.3393 239.299 52.7613 241.06 44.5817 241.06C32.9138 241.06 22.93 237.728 14.6302 231.064C6.21006 224.495 2 216.545 2 207.215C2 201.026 4.04489 195.267 8.13466 189.935C11.9838 184.794 17.2164 180.748 23.8322 177.796C27.3205 176.368 29.8465 174.226 31.4103 171.37C32.8537 168.514 33.0943 165.61 32.132 162.659C31.29 159.707 29.3052 157.28 26.1777 155.376C23.1706 153.471 19.7424 152.472 15.8932 152.377C14.0889 152.377 12.5251 151.853 11.202 150.806C9.87883 149.854 9.1571 148.616 9.03681 147.093C9.03681 145.569 9.63825 144.284 10.8411 143.237C12.1643 142.094 13.8483 141.476 15.8932 141.38H37.0036C40.3717 141.476 43.4991 140.809 46.386 139.381C49.3932 137.953 51.6185 136.001 53.062 133.526C54.5054 131.146 54.9866 128.623 54.5054 125.957C54.0243 123.291 52.641 120.911 50.3555 118.817C45.4237 114.342 42.9578 109.058 42.9578 102.965C42.9578 96.396 45.9049 90.7789 51.799 86.1138C57.693 81.3535 64.79 78.9734 73.0898 78.9734L82.4722 80.2587L93.4785 80.1159C97.0871 79.1638 99.974 77.4025 102.139 74.832C104.304 72.2614 105.267 69.4529 105.026 66.4063C104.786 63.3598 103.342 60.694 100.696 58.4091L94.0198 52.2684C91.614 50.0786 90.5315 47.5557 90.772 44.6995C91.0126 41.8434 92.5162 39.4632 95.2828 37.5591C98.0494 35.655 101.237 34.8458 104.846 35.1314C108.454 35.3218 111.461 36.4643 113.867 38.5588C126.979 50.4595 137.804 61.9317 146.345 72.9755ZM230.426 92.3973C230.546 89.446 229.523 86.7326 227.358 84.2573C225.313 81.782 222.487 80.0683 218.878 79.1162L208.233 78.9734C204.624 79.9255 201.737 81.5916 199.572 83.9717C192.355 91.5881 184.777 98.4429 176.838 104.536C173.59 106.916 171.846 109.868 171.605 113.39C171.365 116.817 172.567 119.912 175.214 122.673C177.86 125.434 181.348 127.1 185.679 127.671C190.009 128.242 194.039 127.623 197.768 125.814C200.895 124.291 204.263 123.529 207.872 123.529L210.939 123.815C214.668 124.291 218.277 123.863 221.765 122.53C225.253 121.102 227.839 119.055 229.523 116.389L231.689 112.533C233.974 109.011 234.215 105.44 232.41 101.823C231.207 99.2521 230.546 96.4436 230.426 93.397V92.3973ZM98.5306 173.655C101.057 171.751 102.68 169.418 103.402 166.657C104.124 163.896 103.823 161.231 102.5 158.66C101.057 155.994 98.8313 153.948 95.8241 152.519C92.8169 150.996 89.5692 150.282 86.0808 150.377L69.1203 150.806C65.1508 150.996 61.6625 152.091 58.6553 154.09C55.6481 156.09 53.7837 158.66 53.062 161.802C52.22 164.849 52.7011 167.752 54.5054 170.513C56.3097 173.274 59.0162 175.369 62.6248 176.797C65.1508 177.654 67.5566 178.748 69.842 180.081C73.2101 182.081 76.9991 182.938 81.2092 182.652C85.4192 182.461 89.0279 181.176 92.035 178.796L98.5306 173.655Z"/>
</mask>
<path d="M146.345 72.9755C148.029 75.1652 150.314 76.8313 153.201 77.9738C156.088 79.1162 159.155 79.5446 162.403 79.259C165.531 79.0686 168.417 78.2594 171.064 76.8313C173.59 75.308 175.454 73.3563 176.657 70.9762L208.052 11.1397C209.977 7.4267 213.285 4.76095 217.976 3.14246C222.667 1.61918 227.418 1.61918 232.23 3.14246C236.921 4.76095 240.229 7.4267 242.154 11.1397C244.078 14.8527 244.078 18.5657 242.154 22.2787C236.38 33.5129 230.185 43.9855 223.569 53.6964C221.765 56.3622 221.163 59.1231 221.765 61.9793C222.246 64.9306 223.81 67.4536 226.456 69.5481C229.102 71.7378 232.29 73.0231 236.019 73.4039C239.748 73.8799 243.296 73.4515 246.664 72.1186C250.995 70.2145 255.686 69.2625 260.738 69.2625C269.038 69.2625 276.135 71.595 282.029 76.2601C287.923 80.9251 290.93 86.5422 291.05 93.1114V93.6826C290.93 96.0628 291.592 98.3477 293.035 100.537C294.479 102.632 296.523 104.346 299.17 105.678C301.696 106.916 304.523 107.535 307.65 107.535C310.657 107.63 313.484 107.107 316.13 105.964L331.828 99.3949L339.406 98.8237C342.052 99.4901 344.037 100.775 345.36 102.68C346.683 104.584 346.984 106.631 346.262 108.82C345.42 110.915 343.796 112.486 341.391 113.533C332.971 117.055 324.37 120.34 315.589 123.387L309.635 126.671L306.026 131.67C305.304 133.574 305.064 135.478 305.304 137.382C305.665 139.381 306.447 141.19 307.65 142.809C310.657 146.617 312.161 150.758 312.161 155.233L311.259 160.945C310.537 162.944 310.417 164.896 310.898 166.8C311.499 168.8 312.522 170.608 313.965 172.227C315.409 173.845 317.273 175.131 319.558 176.083C321.724 177.035 324.069 177.606 326.595 177.796L357.629 179.51C359.554 179.605 361.118 180.272 362.321 181.509C363.644 182.652 364.185 183.985 363.944 185.508C363.824 187.031 363.042 188.269 361.599 189.221C360.155 190.268 358.471 190.744 356.547 190.649L324.611 187.365L315.048 188.079C312.041 189.126 309.514 190.697 307.47 192.791C305.545 194.886 304.462 197.266 304.222 199.932C304.102 202.502 304.823 204.93 306.387 207.215C307.71 209.119 308.432 211.118 308.552 213.213C308.552 215.498 307.951 217.592 306.748 219.496L301.876 224.066C299.952 225.304 297.726 226.113 295.2 226.494C292.193 226.97 289.547 228.017 287.261 229.636C284.976 231.254 283.352 233.253 282.39 235.634C280.465 240.489 276.856 244.44 271.564 247.487C266.271 250.533 260.317 252.056 253.701 252.056C249.13 252.056 244.86 251.342 240.891 249.914C237.402 248.582 233.854 248.248 230.245 248.915C226.516 249.486 223.329 250.914 220.682 253.199C218.277 255.389 216.893 258.007 216.532 261.053C216.172 264.005 217.014 266.766 219.058 269.336L250.995 309.894C253.521 313.035 254.242 316.368 253.16 319.89C252.077 323.413 249.611 326.126 245.762 328.03C241.913 329.934 237.763 330.458 233.312 329.601C228.862 328.839 225.374 326.888 222.847 323.746C201.557 296.708 187.784 271.907 181.529 249.343C180.687 246.677 179.003 244.345 176.477 242.346C173.951 240.441 170.944 239.299 167.455 238.918C164.087 238.442 160.779 238.823 157.531 240.061C154.404 241.203 151.938 242.964 150.134 245.345L146.706 249.772C145.022 252.056 142.496 253.342 139.128 253.627C134.917 253.913 131.369 255.246 128.482 257.626C125.475 260.006 123.851 262.862 123.61 266.194L120.543 299.326C120.303 301.611 119.16 303.467 117.115 304.895C114.95 306.323 112.484 306.942 109.717 306.752C106.951 306.657 104.665 305.752 102.861 304.039C101.057 302.42 100.275 300.468 100.515 298.183C102.921 271.336 109.356 249.105 119.821 231.492C121.626 228.731 122.107 225.827 121.265 222.781C120.303 219.734 118.318 217.259 115.311 215.355C112.424 213.356 108.996 212.308 105.026 212.213C101.177 212.023 97.6284 212.832 94.3807 214.641L91.3133 216.069C87.4641 217.402 84.5772 219.544 82.6526 222.495C79.044 228.017 73.9318 232.444 67.316 235.776C60.3393 239.299 52.7613 241.06 44.5817 241.06C32.9138 241.06 22.93 237.728 14.6302 231.064C6.21006 224.495 2 216.545 2 207.215C2 201.026 4.04489 195.267 8.13466 189.935C11.9838 184.794 17.2164 180.748 23.8322 177.796C27.3205 176.368 29.8465 174.226 31.4103 171.37C32.8537 168.514 33.0943 165.61 32.132 162.659C31.29 159.707 29.3052 157.28 26.1777 155.376C23.1706 153.471 19.7424 152.472 15.8932 152.377C14.0889 152.377 12.5251 151.853 11.202 150.806C9.87883 149.854 9.1571 148.616 9.03681 147.093C9.03681 145.569 9.63825 144.284 10.8411 143.237C12.1643 142.094 13.8483 141.476 15.8932 141.38H37.0036C40.3717 141.476 43.4991 140.809 46.386 139.381C49.3932 137.953 51.6185 136.001 53.062 133.526C54.5054 131.146 54.9866 128.623 54.5054 125.957C54.0243 123.291 52.641 120.911 50.3555 118.817C45.4237 114.342 42.9578 109.058 42.9578 102.965C42.9578 96.396 45.9049 90.7789 51.799 86.1138C57.693 81.3535 64.79 78.9734 73.0898 78.9734L82.4722 80.2587L93.4785 80.1159C97.0871 79.1638 99.974 77.4025 102.139 74.832C104.304 72.2614 105.267 69.4529 105.026 66.4063C104.786 63.3598 103.342 60.694 100.696 58.4091L94.0198 52.2684C91.614 50.0786 90.5315 47.5557 90.772 44.6995C91.0126 41.8434 92.5162 39.4632 95.2828 37.5591C98.0494 35.655 101.237 34.8458 104.846 35.1314C108.454 35.3218 111.461 36.4643 113.867 38.5588C126.979 50.4595 137.804 61.9317 146.345 72.9755ZM230.426 92.3973C230.546 89.446 229.523 86.7326 227.358 84.2573C225.313 81.782 222.487 80.0683 218.878 79.1162L208.233 78.9734C204.624 79.9255 201.737 81.5916 199.572 83.9717C192.355 91.5881 184.777 98.4429 176.838 104.536C173.59 106.916 171.846 109.868 171.605 113.39C171.365 116.817 172.567 119.912 175.214 122.673C177.86 125.434 181.348 127.1 185.679 127.671C190.009 128.242 194.039 127.623 197.768 125.814C200.895 124.291 204.263 123.529 207.872 123.529L210.939 123.815C214.668 124.291 218.277 123.863 221.765 122.53C225.253 121.102 227.839 119.055 229.523 116.389L231.689 112.533C233.974 109.011 234.215 105.44 232.41 101.823C231.207 99.2521 230.546 96.4436 230.426 93.397V92.3973ZM98.5306 173.655C101.057 171.751 102.68 169.418 103.402 166.657C104.124 163.896 103.823 161.231 102.5 158.66C101.057 155.994 98.8313 153.948 95.8241 152.519C92.8169 150.996 89.5692 150.282 86.0808 150.377L69.1203 150.806C65.1508 150.996 61.6625 152.091 58.6553 154.09C55.6481 156.09 53.7837 158.66 53.062 161.802C52.22 164.849 52.7011 167.752 54.5054 170.513C56.3097 173.274 59.0162 175.369 62.6248 176.797C65.1508 177.654 67.5566 178.748 69.842 180.081C73.2101 182.081 76.9991 182.938 81.2092 182.652C85.4192 182.461 89.0279 181.176 92.035 178.796L98.5306 173.655Z" fill="#FF2D55"/>
<path d="M146.345 72.9755C148.029 75.1652 150.314 76.8313 153.201 77.9738C156.088 79.1162 159.155 79.5446 162.403 79.259C165.531 79.0686 168.417 78.2594 171.064 76.8313C173.59 75.308 175.454 73.3563 176.657 70.9762L208.052 11.1397C209.977 7.4267 213.285 4.76095 217.976 3.14246C222.667 1.61918 227.418 1.61918 232.23 3.14246C236.921 4.76095 240.229 7.4267 242.154 11.1397C244.078 14.8527 244.078 18.5657 242.154 22.2787C236.38 33.5129 230.185 43.9855 223.569 53.6964C221.765 56.3622 221.163 59.1231 221.765 61.9793C222.246 64.9306 223.81 67.4536 226.456 69.5481C229.102 71.7378 232.29 73.0231 236.019 73.4039C239.748 73.8799 243.296 73.4515 246.664 72.1186C250.995 70.2145 255.686 69.2625 260.738 69.2625C269.038 69.2625 276.135 71.595 282.029 76.2601C287.923 80.9251 290.93 86.5422 291.05 93.1114V93.6826C290.93 96.0628 291.592 98.3477 293.035 100.537C294.479 102.632 296.523 104.346 299.17 105.678C301.696 106.916 304.523 107.535 307.65 107.535C310.657 107.63 313.484 107.107 316.13 105.964L331.828 99.3949L339.406 98.8237C342.052 99.4901 344.037 100.775 345.36 102.68C346.683 104.584 346.984 106.631 346.262 108.82C345.42 110.915 343.796 112.486 341.391 113.533C332.971 117.055 324.37 120.34 315.589 123.387L309.635 126.671L306.026 131.67C305.304 133.574 305.064 135.478 305.304 137.382C305.665 139.381 306.447 141.19 307.65 142.809C310.657 146.617 312.161 150.758 312.161 155.233L311.259 160.945C310.537 162.944 310.417 164.896 310.898 166.8C311.499 168.8 312.522 170.608 313.965 172.227C315.409 173.845 317.273 175.131 319.558 176.083C321.724 177.035 324.069 177.606 326.595 177.796L357.629 179.51C359.554 179.605 361.118 180.272 362.321 181.509C363.644 182.652 364.185 183.985 363.944 185.508C363.824 187.031 363.042 188.269 361.599 189.221C360.155 190.268 358.471 190.744 356.547 190.649L324.611 187.365L315.048 188.079C312.041 189.126 309.514 190.697 307.47 192.791C305.545 194.886 304.462 197.266 304.222 199.932C304.102 202.502 304.823 204.93 306.387 207.215C307.71 209.119 308.432 211.118 308.552 213.213C308.552 215.498 307.951 217.592 306.748 219.496L301.876 224.066C299.952 225.304 297.726 226.113 295.2 226.494C292.193 226.97 289.547 228.017 287.261 229.636C284.976 231.254 283.352 233.253 282.39 235.634C280.465 240.489 276.856 244.44 271.564 247.487C266.271 250.533 260.317 252.056 253.701 252.056C249.13 252.056 244.86 251.342 240.891 249.914C237.402 248.582 233.854 248.248 230.245 248.915C226.516 249.486 223.329 250.914 220.682 253.199C218.277 255.389 216.893 258.007 216.532 261.053C216.172 264.005 217.014 266.766 219.058 269.336L250.995 309.894C253.521 313.035 254.242 316.368 253.16 319.89C252.077 323.413 249.611 326.126 245.762 328.03C241.913 329.934 237.763 330.458 233.312 329.601C228.862 328.839 225.374 326.888 222.847 323.746C201.557 296.708 187.784 271.907 181.529 249.343C180.687 246.677 179.003 244.345 176.477 242.346C173.951 240.441 170.944 239.299 167.455 238.918C164.087 238.442 160.779 238.823 157.531 240.061C154.404 241.203 151.938 242.964 150.134 245.345L146.706 249.772C145.022 252.056 142.496 253.342 139.128 253.627C134.917 253.913 131.369 255.246 128.482 257.626C125.475 260.006 123.851 262.862 123.61 266.194L120.543 299.326C120.303 301.611 119.16 303.467 117.115 304.895C114.95 306.323 112.484 306.942 109.717 306.752C106.951 306.657 104.665 305.752 102.861 304.039C101.057 302.42 100.275 300.468 100.515 298.183C102.921 271.336 109.356 249.105 119.821 231.492C121.626 228.731 122.107 225.827 121.265 222.781C120.303 219.734 118.318 217.259 115.311 215.355C112.424 213.356 108.996 212.308 105.026 212.213C101.177 212.023 97.6284 212.832 94.3807 214.641L91.3133 216.069C87.4641 217.402 84.5772 219.544 82.6526 222.495C79.044 228.017 73.9318 232.444 67.316 235.776C60.3393 239.299 52.7613 241.06 44.5817 241.06C32.9138 241.06 22.93 237.728 14.6302 231.064C6.21006 224.495 2 216.545 2 207.215C2 201.026 4.04489 195.267 8.13466 189.935C11.9838 184.794 17.2164 180.748 23.8322 177.796C27.3205 176.368 29.8465 174.226 31.4103 171.37C32.8537 168.514 33.0943 165.61 32.132 162.659C31.29 159.707 29.3052 157.28 26.1777 155.376C23.1706 153.471 19.7424 152.472 15.8932 152.377C14.0889 152.377 12.5251 151.853 11.202 150.806C9.87883 149.854 9.1571 148.616 9.03681 147.093C9.03681 145.569 9.63825 144.284 10.8411 143.237C12.1643 142.094 13.8483 141.476 15.8932 141.38H37.0036C40.3717 141.476 43.4991 140.809 46.386 139.381C49.3932 137.953 51.6185 136.001 53.062 133.526C54.5054 131.146 54.9866 128.623 54.5054 125.957C54.0243 123.291 52.641 120.911 50.3555 118.817C45.4237 114.342 42.9578 109.058 42.9578 102.965C42.9578 96.396 45.9049 90.7789 51.799 86.1138C57.693 81.3535 64.79 78.9734 73.0898 78.9734L82.4722 80.2587L93.4785 80.1159C97.0871 79.1638 99.974 77.4025 102.139 74.832C104.304 72.2614 105.267 69.4529 105.026 66.4063C104.786 63.3598 103.342 60.694 100.696 58.4091L94.0198 52.2684C91.614 50.0786 90.5315 47.5557 90.772 44.6995C91.0126 41.8434 92.5162 39.4632 95.2828 37.5591C98.0494 35.655 101.237 34.8458 104.846 35.1314C108.454 35.3218 111.461 36.4643 113.867 38.5588C126.979 50.4595 137.804 61.9317 146.345 72.9755ZM230.426 92.3973C230.546 89.446 229.523 86.7326 227.358 84.2573C225.313 81.782 222.487 80.0683 218.878 79.1162L208.233 78.9734C204.624 79.9255 201.737 81.5916 199.572 83.9717C192.355 91.5881 184.777 98.4429 176.838 104.536C173.59 106.916 171.846 109.868 171.605 113.39C171.365 116.817 172.567 119.912 175.214 122.673C177.86 125.434 181.348 127.1 185.679 127.671C190.009 128.242 194.039 127.623 197.768 125.814C200.895 124.291 204.263 123.529 207.872 123.529L210.939 123.815C214.668 124.291 218.277 123.863 221.765 122.53C225.253 121.102 227.839 119.055 229.523 116.389L231.689 112.533C233.974 109.011 234.215 105.44 232.41 101.823C231.207 99.2521 230.546 96.4436 230.426 93.397V92.3973ZM98.5306 173.655C101.057 171.751 102.68 169.418 103.402 166.657C104.124 163.896 103.823 161.231 102.5 158.66C101.057 155.994 98.8313 153.948 95.8241 152.519C92.8169 150.996 89.5692 150.282 86.0808 150.377L69.1203 150.806C65.1508 150.996 61.6625 152.091 58.6553 154.09C55.6481 156.09 53.7837 158.66 53.062 161.802C52.22 164.849 52.7011 167.752 54.5054 170.513C56.3097 173.274 59.0162 175.369 62.6248 176.797C65.1508 177.654 67.5566 178.748 69.842 180.081C73.2101 182.081 76.9991 182.938 81.2092 182.652C85.4192 182.461 89.0279 181.176 92.035 178.796L98.5306 173.655Z" stroke="#222222" stroke-width="4" mask="url(#path-1-outside-1_2319_2004)"/>
</svg>
