<svg width="421" height="307" viewBox="0 0 421 307" fill="none" xmlns="http://www.w3.org/2000/svg">
<mask id="path-1-outside-1_2319_1986" maskUnits="userSpaceOnUse" x="0" y="0" width="421" height="307" fill="black">
<rect fill="white" width="421" height="307"/>
<path d="M369.464 46.3415L366.762 46.4836L364.06 46.1993L352.172 46.9099C348.329 47.9521 345.147 49.7524 342.625 52.3105C339.983 54.774 338.362 57.6164 337.761 60.8377C337.281 64.0591 337.822 67.1857 339.383 70.2176L340.283 71.4967C342.325 76.3288 346.348 79.7871 352.352 81.8715C355.234 82.819 358.236 83.2927 361.359 83.2927L370.185 81.7293L373.787 80.8766L374.688 80.5924H375.409L377.39 80.4503C381.953 80.545 385.856 81.9188 389.098 84.5717C392.221 87.0351 393.782 90.1144 393.782 93.8095C393.782 97.4099 392.221 100.442 389.098 102.905C385.856 105.558 381.953 106.932 377.39 107.027L374.688 106.885C371.205 106.695 367.843 107.169 364.601 108.306C361.359 109.443 358.657 111.101 356.495 113.28C354.213 115.364 352.712 117.781 351.992 120.528C351.271 123.276 351.391 125.976 352.352 128.629L353.253 134.314L353.072 135.877C352.592 140.235 354.033 144.167 357.396 147.673C360.758 151.273 365.201 153.5 370.725 154.353C377.09 155.395 382.374 157.858 386.577 161.743C390.78 165.722 393.001 170.317 393.241 175.529C393.361 179.129 394.743 182.35 397.384 185.193C400.026 188.13 403.569 190.214 408.012 191.446C411.254 192.299 413.896 193.862 415.938 196.136C417.979 198.505 419 201.063 419 203.81C419 207.506 417.379 210.632 414.137 213.19C410.774 215.749 406.811 217.028 402.248 217.028C398.885 217.028 395.763 216.27 392.881 214.754C390.239 213.333 388.258 211.39 386.937 208.927C385.136 205.611 382.314 203.005 378.471 201.11C374.628 199.215 370.485 198.315 366.042 198.41H363.52C359.197 198.126 355.174 198.789 351.451 200.4C347.609 202.01 344.666 204.284 342.625 207.221C340.463 210.159 339.503 213.332 339.743 216.743C340.103 220.06 341.544 223.091 344.066 225.839C347.428 229.629 349.11 233.893 349.11 238.63C349.11 241.946 348.209 245.12 346.408 248.152C344.606 251.089 342.144 253.6 339.022 255.684C336.5 257.295 334.579 259.237 333.258 261.511C331.937 263.785 331.217 266.201 331.097 268.759C330.977 271.223 331.577 273.639 332.898 276.007C334.219 278.281 336.08 280.271 338.482 281.977C342.205 284.535 344.066 287.803 344.066 291.783C344.066 295.383 342.385 298.462 339.022 301.021C335.78 303.674 331.877 305 327.314 305C322.63 305 318.668 303.674 315.425 301.021C312.183 298.557 310.562 295.478 310.562 291.783C310.562 288.751 311.642 286.098 313.804 283.824C317.887 279.655 319.328 275.013 318.127 269.896C316.806 264.685 313.264 260.753 307.5 258.1L306.959 257.958C301.796 255.59 296.332 254.974 290.568 256.111C284.803 257.248 280.36 259.806 277.238 263.785C274.596 267.007 271.234 269.565 267.151 271.46C262.828 273.449 258.144 274.444 253.1 274.444L250.038 274.16C245.835 273.781 241.813 274.302 237.97 275.723C234.127 277.144 231.065 279.276 228.783 282.119C226.261 285.245 222.959 287.756 218.876 289.651C214.553 291.451 209.929 292.351 205.006 292.351C197.32 292.351 190.716 290.172 185.192 285.814C179.668 281.55 176.906 276.339 176.906 270.181C176.906 265.917 178.347 261.938 181.229 258.242C184.351 254.453 185.372 250.331 184.291 245.878C183.33 241.425 180.508 237.825 175.825 235.077C171.982 232.898 169.1 230.008 167.179 226.408C165.858 224.228 164.056 222.286 161.775 220.581L153.669 217.028C147.545 215.417 141.601 215.938 135.836 218.591C131.753 220.581 127.07 221.575 121.786 221.575L117.103 221.291C111.459 220.439 106.235 221.291 101.431 223.849C96.628 226.313 93.5058 229.771 92.0648 234.224C91.1041 237.067 89.1226 239.435 86.1204 241.33C83.1183 243.225 79.6959 244.173 75.8531 244.173C71.2898 244.173 67.387 242.846 64.1447 240.193C60.7823 237.635 59.101 234.556 59.101 230.955C59.101 227.545 60.5419 224.56 63.4239 222.002C66.306 219.538 69.8488 218.117 74.0518 217.738C79.6959 217.265 84.4391 215.37 88.2819 212.053C92.0046 208.548 93.8059 204.568 93.6858 200.115V199.121C93.6858 193.057 96.4479 187.893 101.972 183.629C107.496 179.271 114.101 177.092 121.786 177.092C127.43 177.092 132.594 178.324 137.277 180.787C141.84 183.156 145.263 186.282 147.545 190.167C148.746 192.441 150.547 194.383 152.949 195.994L160.874 199.689C167.119 201.205 173.063 200.684 178.707 198.126C183.03 196.136 187.713 195.141 192.757 195.141C200.082 195.141 206.447 197.036 211.851 200.826C217.135 204.711 220.137 209.495 220.857 215.18C221.218 217.549 222.118 219.823 223.559 222.002C225.121 224.181 227.162 225.981 229.684 227.402C232.205 228.824 235.027 229.818 238.15 230.387C241.272 230.861 244.334 230.861 247.336 230.387L253.1 229.818L256.703 230.103C261.627 230.671 266.31 229.961 270.753 227.971C275.076 225.981 278.139 223.139 279.94 219.444C281.861 215.843 282.162 212.101 280.841 208.216C279.52 204.426 276.878 201.347 272.915 198.978C269.432 196.894 266.73 194.336 264.809 191.304C262.767 188.177 261.747 184.814 261.747 181.213C261.747 179.129 262.107 177.139 262.828 175.244C263.909 172.118 263.968 168.991 263.008 165.864C261.927 162.738 259.825 160.037 256.703 157.764C253.821 155.584 250.338 154.116 246.255 153.358L234.547 154.068C228.423 155.679 221.998 156.485 215.273 156.485C203.865 156.485 193.298 154.068 183.571 149.236C174.324 144.594 167.179 138.341 162.135 130.477C160.694 128.108 158.653 126.118 156.011 124.508C153.369 122.897 150.427 121.807 147.184 121.239C143.942 120.67 140.7 120.67 137.457 121.239C134.215 121.902 131.273 123.039 128.631 124.65C123.588 127.871 117.763 129.482 111.158 129.482L105.935 129.055C100.171 128.203 94.8269 129.008 89.9033 131.471C84.9798 133.84 81.7974 137.251 80.3564 141.704C79.3957 144.546 77.4142 146.868 74.412 148.668C71.4098 150.563 67.9875 151.51 64.1447 151.51C59.5814 151.51 55.6184 150.184 52.256 147.531C49.0136 144.973 47.3926 141.846 47.3926 138.151C47.3926 134.74 48.8936 131.803 51.8958 129.34C54.898 126.781 58.5006 125.36 62.7036 125.076C68.5878 124.697 73.4515 122.802 77.2943 119.391C81.2571 115.98 83.1784 111.954 83.0583 107.311V107.027C83.0583 101.342 85.5198 96.4151 90.4434 92.2462C95.3669 88.0774 101.431 85.7087 108.637 85.1402C112.72 84.856 116.442 83.719 119.805 81.7293C123.167 79.7396 125.569 77.2289 127.01 74.197C128.571 71.0703 128.991 67.9437 128.271 64.8171C127.55 61.501 125.809 58.6111 123.047 56.1477C118.244 52.0736 115.842 47.2416 115.842 41.6515C115.842 35.493 118.664 30.2345 124.308 25.8762C129.712 21.5178 136.316 19.3387 144.122 19.3387C151.327 19.3387 157.572 21.2336 162.856 25.0235C165.618 27.0131 168.8 28.3396 172.402 29.0028L183.39 28.8607C186.993 28.1028 190.115 26.7289 192.757 24.7392C195.519 22.6548 197.44 20.1914 198.521 17.3489C200.442 12.8011 203.805 9.15334 208.609 6.40569C213.652 3.46854 219.236 2 225.361 2C233.166 2 239.831 4.17914 245.355 8.53749C250.879 12.8011 253.641 18.0122 253.641 24.1707C253.641 27.5816 252.68 30.803 250.759 33.8349C249.077 36.7721 246.616 39.2828 243.374 41.3673C240.612 43.1675 238.51 45.3466 237.069 47.9048C235.628 50.4629 235.028 53.1632 235.268 56.0056C235.628 58.848 236.709 61.4536 238.51 63.8222C240.312 66.2856 242.773 68.2279 245.895 69.6491L254.181 74.3391C256.703 76.1393 259.645 77.371 263.008 78.0342L272.915 78.3185C276.157 77.8448 279.159 76.8025 281.921 75.1918C284.683 73.4864 286.845 71.4494 288.406 69.0807C291.408 64.2486 295.911 60.7904 301.916 58.7059C305.158 57.569 307.92 55.9109 310.201 53.7317C312.363 51.5526 313.804 49.0891 314.525 46.3415C315.245 43.5938 315.125 40.8935 314.165 38.2406C313.204 35.5877 311.523 33.219 309.121 31.1346C306.239 28.6712 304.798 25.734 304.798 22.3232C304.798 18.7228 306.419 15.5962 309.661 12.9433C312.904 10.3851 316.866 9.106 321.55 9.106C324.312 9.106 326.894 9.57974 329.295 10.5272C331.697 11.5694 333.679 12.9433 335.24 14.6487C338.122 17.9649 342.025 20.2388 346.948 21.4705L361.359 20.902L367.303 20.0493C371.866 20.0493 375.769 21.3284 379.011 23.8865C382.254 26.4447 383.875 29.524 383.875 33.1243C383.875 36.3457 382.614 39.1881 380.092 41.6515C377.45 44.1149 374.208 45.6308 370.365 46.1993L369.464 46.3415ZM16.5902 64.9592C21.0334 64.4854 24.9965 63.0169 28.479 60.5535C31.9615 58.1848 34.183 55.2003 35.1437 51.5999C35.9843 48.7575 37.9658 46.3889 41.088 44.4939C44.0902 42.599 47.5126 41.6515 51.3553 41.6515C56.0387 41.6515 60.0017 42.9305 63.2441 45.4887C66.4864 48.0469 68.1075 51.1261 68.1075 54.7265C68.1075 58.0426 66.7264 60.9798 63.9644 63.538C61.2024 66.0014 57.78 67.4226 53.6971 67.8016C49.1338 68.2753 45.111 69.7439 41.6285 72.2073C38.2661 74.576 36.0446 77.5605 34.9638 81.1609C34.1232 84.0033 32.2015 86.372 29.1993 88.2669C26.0771 90.1618 22.5949 91.1093 18.7521 91.1093C14.1889 91.1093 10.2258 89.8302 6.86341 87.272C3.62108 84.7139 2 81.6346 2 78.0342C2 74.6234 3.38108 71.6862 6.14307 69.2228C8.90506 66.7594 12.3872 65.3382 16.5902 64.9592Z"/>
</mask>
<path d="M369.464 46.3415L366.762 46.4836L364.06 46.1993L352.172 46.9099C348.329 47.9521 345.147 49.7524 342.625 52.3105C339.983 54.774 338.362 57.6164 337.761 60.8377C337.281 64.0591 337.822 67.1857 339.383 70.2176L340.283 71.4967C342.325 76.3288 346.348 79.7871 352.352 81.8715C355.234 82.819 358.236 83.2927 361.359 83.2927L370.185 81.7293L373.787 80.8766L374.688 80.5924H375.409L377.39 80.4503C381.953 80.545 385.856 81.9188 389.098 84.5717C392.221 87.0351 393.782 90.1144 393.782 93.8095C393.782 97.4099 392.221 100.442 389.098 102.905C385.856 105.558 381.953 106.932 377.39 107.027L374.688 106.885C371.205 106.695 367.843 107.169 364.601 108.306C361.359 109.443 358.657 111.101 356.495 113.28C354.213 115.364 352.712 117.781 351.992 120.528C351.271 123.276 351.391 125.976 352.352 128.629L353.253 134.314L353.072 135.877C352.592 140.235 354.033 144.167 357.396 147.673C360.758 151.273 365.201 153.5 370.725 154.353C377.09 155.395 382.374 157.858 386.577 161.743C390.78 165.722 393.001 170.317 393.241 175.529C393.361 179.129 394.743 182.35 397.384 185.193C400.026 188.13 403.569 190.214 408.012 191.446C411.254 192.299 413.896 193.862 415.938 196.136C417.979 198.505 419 201.063 419 203.81C419 207.506 417.379 210.632 414.137 213.19C410.774 215.749 406.811 217.028 402.248 217.028C398.885 217.028 395.763 216.27 392.881 214.754C390.239 213.333 388.258 211.39 386.937 208.927C385.136 205.611 382.314 203.005 378.471 201.11C374.628 199.215 370.485 198.315 366.042 198.41H363.52C359.197 198.126 355.174 198.789 351.451 200.4C347.609 202.01 344.666 204.284 342.625 207.221C340.463 210.159 339.503 213.332 339.743 216.743C340.103 220.06 341.544 223.091 344.066 225.839C347.428 229.629 349.11 233.893 349.11 238.63C349.11 241.946 348.209 245.12 346.408 248.152C344.606 251.089 342.144 253.6 339.022 255.684C336.5 257.295 334.579 259.237 333.258 261.511C331.937 263.785 331.217 266.201 331.097 268.759C330.977 271.223 331.577 273.639 332.898 276.007C334.219 278.281 336.08 280.271 338.482 281.977C342.205 284.535 344.066 287.803 344.066 291.783C344.066 295.383 342.385 298.462 339.022 301.021C335.78 303.674 331.877 305 327.314 305C322.63 305 318.668 303.674 315.425 301.021C312.183 298.557 310.562 295.478 310.562 291.783C310.562 288.751 311.642 286.098 313.804 283.824C317.887 279.655 319.328 275.013 318.127 269.896C316.806 264.685 313.264 260.753 307.5 258.1L306.959 257.958C301.796 255.59 296.332 254.974 290.568 256.111C284.803 257.248 280.36 259.806 277.238 263.785C274.596 267.007 271.234 269.565 267.151 271.46C262.828 273.449 258.144 274.444 253.1 274.444L250.038 274.16C245.835 273.781 241.813 274.302 237.97 275.723C234.127 277.144 231.065 279.276 228.783 282.119C226.261 285.245 222.959 287.756 218.876 289.651C214.553 291.451 209.929 292.351 205.006 292.351C197.32 292.351 190.716 290.172 185.192 285.814C179.668 281.55 176.906 276.339 176.906 270.181C176.906 265.917 178.347 261.938 181.229 258.242C184.351 254.453 185.372 250.331 184.291 245.878C183.33 241.425 180.508 237.825 175.825 235.077C171.982 232.898 169.1 230.008 167.179 226.408C165.858 224.228 164.056 222.286 161.775 220.581L153.669 217.028C147.545 215.417 141.601 215.938 135.836 218.591C131.753 220.581 127.07 221.575 121.786 221.575L117.103 221.291C111.459 220.439 106.235 221.291 101.431 223.849C96.628 226.313 93.5058 229.771 92.0648 234.224C91.1041 237.067 89.1226 239.435 86.1204 241.33C83.1183 243.225 79.6959 244.173 75.8531 244.173C71.2898 244.173 67.387 242.846 64.1447 240.193C60.7823 237.635 59.101 234.556 59.101 230.955C59.101 227.545 60.5419 224.56 63.4239 222.002C66.306 219.538 69.8488 218.117 74.0518 217.738C79.6959 217.265 84.4391 215.37 88.2819 212.053C92.0046 208.548 93.8059 204.568 93.6858 200.115V199.121C93.6858 193.057 96.4479 187.893 101.972 183.629C107.496 179.271 114.101 177.092 121.786 177.092C127.43 177.092 132.594 178.324 137.277 180.787C141.84 183.156 145.263 186.282 147.545 190.167C148.746 192.441 150.547 194.383 152.949 195.994L160.874 199.689C167.119 201.205 173.063 200.684 178.707 198.126C183.03 196.136 187.713 195.141 192.757 195.141C200.082 195.141 206.447 197.036 211.851 200.826C217.135 204.711 220.137 209.495 220.857 215.18C221.218 217.549 222.118 219.823 223.559 222.002C225.121 224.181 227.162 225.981 229.684 227.402C232.205 228.824 235.027 229.818 238.15 230.387C241.272 230.861 244.334 230.861 247.336 230.387L253.1 229.818L256.703 230.103C261.627 230.671 266.31 229.961 270.753 227.971C275.076 225.981 278.139 223.139 279.94 219.444C281.861 215.843 282.162 212.101 280.841 208.216C279.52 204.426 276.878 201.347 272.915 198.978C269.432 196.894 266.73 194.336 264.809 191.304C262.767 188.177 261.747 184.814 261.747 181.213C261.747 179.129 262.107 177.139 262.828 175.244C263.909 172.118 263.968 168.991 263.008 165.864C261.927 162.738 259.825 160.037 256.703 157.764C253.821 155.584 250.338 154.116 246.255 153.358L234.547 154.068C228.423 155.679 221.998 156.485 215.273 156.485C203.865 156.485 193.298 154.068 183.571 149.236C174.324 144.594 167.179 138.341 162.135 130.477C160.694 128.108 158.653 126.118 156.011 124.508C153.369 122.897 150.427 121.807 147.184 121.239C143.942 120.67 140.7 120.67 137.457 121.239C134.215 121.902 131.273 123.039 128.631 124.65C123.588 127.871 117.763 129.482 111.158 129.482L105.935 129.055C100.171 128.203 94.8269 129.008 89.9033 131.471C84.9798 133.84 81.7974 137.251 80.3564 141.704C79.3957 144.546 77.4142 146.868 74.412 148.668C71.4098 150.563 67.9875 151.51 64.1447 151.51C59.5814 151.51 55.6184 150.184 52.256 147.531C49.0136 144.973 47.3926 141.846 47.3926 138.151C47.3926 134.74 48.8936 131.803 51.8958 129.34C54.898 126.781 58.5006 125.36 62.7036 125.076C68.5878 124.697 73.4515 122.802 77.2943 119.391C81.2571 115.98 83.1784 111.954 83.0583 107.311V107.027C83.0583 101.342 85.5198 96.4151 90.4434 92.2462C95.3669 88.0774 101.431 85.7087 108.637 85.1402C112.72 84.856 116.442 83.719 119.805 81.7293C123.167 79.7396 125.569 77.2289 127.01 74.197C128.571 71.0703 128.991 67.9437 128.271 64.8171C127.55 61.501 125.809 58.6111 123.047 56.1477C118.244 52.0736 115.842 47.2416 115.842 41.6515C115.842 35.493 118.664 30.2345 124.308 25.8762C129.712 21.5178 136.316 19.3387 144.122 19.3387C151.327 19.3387 157.572 21.2336 162.856 25.0235C165.618 27.0131 168.8 28.3396 172.402 29.0028L183.39 28.8607C186.993 28.1028 190.115 26.7289 192.757 24.7392C195.519 22.6548 197.44 20.1914 198.521 17.3489C200.442 12.8011 203.805 9.15334 208.609 6.40569C213.652 3.46854 219.236 2 225.361 2C233.166 2 239.831 4.17914 245.355 8.53749C250.879 12.8011 253.641 18.0122 253.641 24.1707C253.641 27.5816 252.68 30.803 250.759 33.8349C249.077 36.7721 246.616 39.2828 243.374 41.3673C240.612 43.1675 238.51 45.3466 237.069 47.9048C235.628 50.4629 235.028 53.1632 235.268 56.0056C235.628 58.848 236.709 61.4536 238.51 63.8222C240.312 66.2856 242.773 68.2279 245.895 69.6491L254.181 74.3391C256.703 76.1393 259.645 77.371 263.008 78.0342L272.915 78.3185C276.157 77.8448 279.159 76.8025 281.921 75.1918C284.683 73.4864 286.845 71.4494 288.406 69.0807C291.408 64.2486 295.911 60.7904 301.916 58.7059C305.158 57.569 307.92 55.9109 310.201 53.7317C312.363 51.5526 313.804 49.0891 314.525 46.3415C315.245 43.5938 315.125 40.8935 314.165 38.2406C313.204 35.5877 311.523 33.219 309.121 31.1346C306.239 28.6712 304.798 25.734 304.798 22.3232C304.798 18.7228 306.419 15.5962 309.661 12.9433C312.904 10.3851 316.866 9.106 321.55 9.106C324.312 9.106 326.894 9.57974 329.295 10.5272C331.697 11.5694 333.679 12.9433 335.24 14.6487C338.122 17.9649 342.025 20.2388 346.948 21.4705L361.359 20.902L367.303 20.0493C371.866 20.0493 375.769 21.3284 379.011 23.8865C382.254 26.4447 383.875 29.524 383.875 33.1243C383.875 36.3457 382.614 39.1881 380.092 41.6515C377.45 44.1149 374.208 45.6308 370.365 46.1993L369.464 46.3415ZM16.5902 64.9592C21.0334 64.4854 24.9965 63.0169 28.479 60.5535C31.9615 58.1848 34.183 55.2003 35.1437 51.5999C35.9843 48.7575 37.9658 46.3889 41.088 44.4939C44.0902 42.599 47.5126 41.6515 51.3553 41.6515C56.0387 41.6515 60.0017 42.9305 63.2441 45.4887C66.4864 48.0469 68.1075 51.1261 68.1075 54.7265C68.1075 58.0426 66.7264 60.9798 63.9644 63.538C61.2024 66.0014 57.78 67.4226 53.6971 67.8016C49.1338 68.2753 45.111 69.7439 41.6285 72.2073C38.2661 74.576 36.0446 77.5605 34.9638 81.1609C34.1232 84.0033 32.2015 86.372 29.1993 88.2669C26.0771 90.1618 22.5949 91.1093 18.7521 91.1093C14.1889 91.1093 10.2258 89.8302 6.86341 87.272C3.62108 84.7139 2 81.6346 2 78.0342C2 74.6234 3.38108 71.6862 6.14307 69.2228C8.90506 66.7594 12.3872 65.3382 16.5902 64.9592Z" fill="#FFC700"/>
<path d="M369.464 46.3415L366.762 46.4836L364.06 46.1993L352.172 46.9099C348.329 47.9521 345.147 49.7524 342.625 52.3105C339.983 54.774 338.362 57.6164 337.761 60.8377C337.281 64.0591 337.822 67.1857 339.383 70.2176L340.283 71.4967C342.325 76.3288 346.348 79.7871 352.352 81.8715C355.234 82.819 358.236 83.2927 361.359 83.2927L370.185 81.7293L373.787 80.8766L374.688 80.5924H375.409L377.39 80.4503C381.953 80.545 385.856 81.9188 389.098 84.5717C392.221 87.0351 393.782 90.1144 393.782 93.8095C393.782 97.4099 392.221 100.442 389.098 102.905C385.856 105.558 381.953 106.932 377.39 107.027L374.688 106.885C371.205 106.695 367.843 107.169 364.601 108.306C361.359 109.443 358.657 111.101 356.495 113.28C354.213 115.364 352.712 117.781 351.992 120.528C351.271 123.276 351.391 125.976 352.352 128.629L353.253 134.314L353.072 135.877C352.592 140.235 354.033 144.167 357.396 147.673C360.758 151.273 365.201 153.5 370.725 154.353C377.09 155.395 382.374 157.858 386.577 161.743C390.78 165.722 393.001 170.317 393.241 175.529C393.361 179.129 394.743 182.35 397.384 185.193C400.026 188.13 403.569 190.214 408.012 191.446C411.254 192.299 413.896 193.862 415.938 196.136C417.979 198.505 419 201.063 419 203.81C419 207.506 417.379 210.632 414.137 213.19C410.774 215.749 406.811 217.028 402.248 217.028C398.885 217.028 395.763 216.27 392.881 214.754C390.239 213.333 388.258 211.39 386.937 208.927C385.136 205.611 382.314 203.005 378.471 201.11C374.628 199.215 370.485 198.315 366.042 198.41H363.52C359.197 198.126 355.174 198.789 351.451 200.4C347.609 202.01 344.666 204.284 342.625 207.221C340.463 210.159 339.503 213.332 339.743 216.743C340.103 220.06 341.544 223.091 344.066 225.839C347.428 229.629 349.11 233.893 349.11 238.63C349.11 241.946 348.209 245.12 346.408 248.152C344.606 251.089 342.144 253.6 339.022 255.684C336.5 257.295 334.579 259.237 333.258 261.511C331.937 263.785 331.217 266.201 331.097 268.759C330.977 271.223 331.577 273.639 332.898 276.007C334.219 278.281 336.08 280.271 338.482 281.977C342.205 284.535 344.066 287.803 344.066 291.783C344.066 295.383 342.385 298.462 339.022 301.021C335.78 303.674 331.877 305 327.314 305C322.63 305 318.668 303.674 315.425 301.021C312.183 298.557 310.562 295.478 310.562 291.783C310.562 288.751 311.642 286.098 313.804 283.824C317.887 279.655 319.328 275.013 318.127 269.896C316.806 264.685 313.264 260.753 307.5 258.1L306.959 257.958C301.796 255.59 296.332 254.974 290.568 256.111C284.803 257.248 280.36 259.806 277.238 263.785C274.596 267.007 271.234 269.565 267.151 271.46C262.828 273.449 258.144 274.444 253.1 274.444L250.038 274.16C245.835 273.781 241.813 274.302 237.97 275.723C234.127 277.144 231.065 279.276 228.783 282.119C226.261 285.245 222.959 287.756 218.876 289.651C214.553 291.451 209.929 292.351 205.006 292.351C197.32 292.351 190.716 290.172 185.192 285.814C179.668 281.55 176.906 276.339 176.906 270.181C176.906 265.917 178.347 261.938 181.229 258.242C184.351 254.453 185.372 250.331 184.291 245.878C183.33 241.425 180.508 237.825 175.825 235.077C171.982 232.898 169.1 230.008 167.179 226.408C165.858 224.228 164.056 222.286 161.775 220.581L153.669 217.028C147.545 215.417 141.601 215.938 135.836 218.591C131.753 220.581 127.07 221.575 121.786 221.575L117.103 221.291C111.459 220.439 106.235 221.291 101.431 223.849C96.628 226.313 93.5058 229.771 92.0648 234.224C91.1041 237.067 89.1226 239.435 86.1204 241.33C83.1183 243.225 79.6959 244.173 75.8531 244.173C71.2898 244.173 67.387 242.846 64.1447 240.193C60.7823 237.635 59.101 234.556 59.101 230.955C59.101 227.545 60.5419 224.56 63.4239 222.002C66.306 219.538 69.8488 218.117 74.0518 217.738C79.6959 217.265 84.4391 215.37 88.2819 212.053C92.0046 208.548 93.8059 204.568 93.6858 200.115V199.121C93.6858 193.057 96.4479 187.893 101.972 183.629C107.496 179.271 114.101 177.092 121.786 177.092C127.43 177.092 132.594 178.324 137.277 180.787C141.84 183.156 145.263 186.282 147.545 190.167C148.746 192.441 150.547 194.383 152.949 195.994L160.874 199.689C167.119 201.205 173.063 200.684 178.707 198.126C183.03 196.136 187.713 195.141 192.757 195.141C200.082 195.141 206.447 197.036 211.851 200.826C217.135 204.711 220.137 209.495 220.857 215.18C221.218 217.549 222.118 219.823 223.559 222.002C225.121 224.181 227.162 225.981 229.684 227.402C232.205 228.824 235.027 229.818 238.15 230.387C241.272 230.861 244.334 230.861 247.336 230.387L253.1 229.818L256.703 230.103C261.627 230.671 266.31 229.961 270.753 227.971C275.076 225.981 278.139 223.139 279.94 219.444C281.861 215.843 282.162 212.101 280.841 208.216C279.52 204.426 276.878 201.347 272.915 198.978C269.432 196.894 266.73 194.336 264.809 191.304C262.767 188.177 261.747 184.814 261.747 181.213C261.747 179.129 262.107 177.139 262.828 175.244C263.909 172.118 263.968 168.991 263.008 165.864C261.927 162.738 259.825 160.037 256.703 157.764C253.821 155.584 250.338 154.116 246.255 153.358L234.547 154.068C228.423 155.679 221.998 156.485 215.273 156.485C203.865 156.485 193.298 154.068 183.571 149.236C174.324 144.594 167.179 138.341 162.135 130.477C160.694 128.108 158.653 126.118 156.011 124.508C153.369 122.897 150.427 121.807 147.184 121.239C143.942 120.67 140.7 120.67 137.457 121.239C134.215 121.902 131.273 123.039 128.631 124.65C123.588 127.871 117.763 129.482 111.158 129.482L105.935 129.055C100.171 128.203 94.8269 129.008 89.9033 131.471C84.9798 133.84 81.7974 137.251 80.3564 141.704C79.3957 144.546 77.4142 146.868 74.412 148.668C71.4098 150.563 67.9875 151.51 64.1447 151.51C59.5814 151.51 55.6184 150.184 52.256 147.531C49.0136 144.973 47.3926 141.846 47.3926 138.151C47.3926 134.74 48.8936 131.803 51.8958 129.34C54.898 126.781 58.5006 125.36 62.7036 125.076C68.5878 124.697 73.4515 122.802 77.2943 119.391C81.2571 115.98 83.1784 111.954 83.0583 107.311V107.027C83.0583 101.342 85.5198 96.4151 90.4434 92.2462C95.3669 88.0774 101.431 85.7087 108.637 85.1402C112.72 84.856 116.442 83.719 119.805 81.7293C123.167 79.7396 125.569 77.2289 127.01 74.197C128.571 71.0703 128.991 67.9437 128.271 64.8171C127.55 61.501 125.809 58.6111 123.047 56.1477C118.244 52.0736 115.842 47.2416 115.842 41.6515C115.842 35.493 118.664 30.2345 124.308 25.8762C129.712 21.5178 136.316 19.3387 144.122 19.3387C151.327 19.3387 157.572 21.2336 162.856 25.0235C165.618 27.0131 168.8 28.3396 172.402 29.0028L183.39 28.8607C186.993 28.1028 190.115 26.7289 192.757 24.7392C195.519 22.6548 197.44 20.1914 198.521 17.3489C200.442 12.8011 203.805 9.15334 208.609 6.40569C213.652 3.46854 219.236 2 225.361 2C233.166 2 239.831 4.17914 245.355 8.53749C250.879 12.8011 253.641 18.0122 253.641 24.1707C253.641 27.5816 252.68 30.803 250.759 33.8349C249.077 36.7721 246.616 39.2828 243.374 41.3673C240.612 43.1675 238.51 45.3466 237.069 47.9048C235.628 50.4629 235.028 53.1632 235.268 56.0056C235.628 58.848 236.709 61.4536 238.51 63.8222C240.312 66.2856 242.773 68.2279 245.895 69.6491L254.181 74.3391C256.703 76.1393 259.645 77.371 263.008 78.0342L272.915 78.3185C276.157 77.8448 279.159 76.8025 281.921 75.1918C284.683 73.4864 286.845 71.4494 288.406 69.0807C291.408 64.2486 295.911 60.7904 301.916 58.7059C305.158 57.569 307.92 55.9109 310.201 53.7317C312.363 51.5526 313.804 49.0891 314.525 46.3415C315.245 43.5938 315.125 40.8935 314.165 38.2406C313.204 35.5877 311.523 33.219 309.121 31.1346C306.239 28.6712 304.798 25.734 304.798 22.3232C304.798 18.7228 306.419 15.5962 309.661 12.9433C312.904 10.3851 316.866 9.106 321.55 9.106C324.312 9.106 326.894 9.57974 329.295 10.5272C331.697 11.5694 333.679 12.9433 335.24 14.6487C338.122 17.9649 342.025 20.2388 346.948 21.4705L361.359 20.902L367.303 20.0493C371.866 20.0493 375.769 21.3284 379.011 23.8865C382.254 26.4447 383.875 29.524 383.875 33.1243C383.875 36.3457 382.614 39.1881 380.092 41.6515C377.45 44.1149 374.208 45.6308 370.365 46.1993L369.464 46.3415ZM16.5902 64.9592C21.0334 64.4854 24.9965 63.0169 28.479 60.5535C31.9615 58.1848 34.183 55.2003 35.1437 51.5999C35.9843 48.7575 37.9658 46.3889 41.088 44.4939C44.0902 42.599 47.5126 41.6515 51.3553 41.6515C56.0387 41.6515 60.0017 42.9305 63.2441 45.4887C66.4864 48.0469 68.1075 51.1261 68.1075 54.7265C68.1075 58.0426 66.7264 60.9798 63.9644 63.538C61.2024 66.0014 57.78 67.4226 53.6971 67.8016C49.1338 68.2753 45.111 69.7439 41.6285 72.2073C38.2661 74.576 36.0446 77.5605 34.9638 81.1609C34.1232 84.0033 32.2015 86.372 29.1993 88.2669C26.0771 90.1618 22.5949 91.1093 18.7521 91.1093C14.1889 91.1093 10.2258 89.8302 6.86341 87.272C3.62108 84.7139 2 81.6346 2 78.0342C2 74.6234 3.38108 71.6862 6.14307 69.2228C8.90506 66.7594 12.3872 65.3382 16.5902 64.9592Z" stroke="#222222" stroke-width="4" mask="url(#path-1-outside-1_2319_1986)"/>
</svg>
