<svg width="421" height="313" viewBox="0 0 421 313" fill="none" xmlns="http://www.w3.org/2000/svg">
<mask id="path-1-outside-1_2319_1980" maskUnits="userSpaceOnUse" x="0" y="0" width="421" height="313" fill="black">
<rect fill="white" width="421" height="313"/>
<path d="M94.753 102.784L109.188 102.214C114 100.601 117.428 97.944 119.473 94.243C121.638 90.542 121.879 86.7936 120.195 82.9977C118.631 79.012 115.624 76.0227 111.173 74.0299C93.8508 66.3432 79.536 58.0397 68.2286 49.1194C63.6575 45.5133 61.3118 41.1006 61.1915 35.8812C61.0712 30.7568 63.3567 26.3915 68.0481 22.7854C72.6192 19.0844 78.2129 17.1865 84.8289 17.0916C91.2044 17.0916 96.7377 18.8947 101.429 22.5008C111.293 29.9977 120.616 39.3925 129.397 50.6852C131.562 53.2474 134.449 55.1928 138.058 56.5214C141.667 57.8499 145.396 58.3244 149.245 57.9448C153.215 57.4703 156.703 56.2367 159.711 54.2439C162.718 52.1561 164.703 49.6414 165.665 46.6996C166.387 44.6118 167.77 42.8562 169.815 41.4328C171.74 39.9144 174.025 38.8705 176.672 38.3011C180.762 37.4471 184.611 37.8266 188.22 39.4399C191.949 41.148 194.355 43.6154 195.437 46.8419L197.963 58.5142C198.565 62.405 200.73 65.6789 204.459 68.336C208.188 70.9932 212.639 72.3218 217.812 72.3218C222.744 72.3218 227.134 71.0881 230.984 68.6208C234.713 65.9636 236.938 62.6897 237.66 58.7989L238.562 54.3862C239.284 51.6342 241.208 49.499 244.336 47.9806C247.223 46.3674 250.471 45.8455 254.08 46.4149C257.568 46.9842 260.335 48.4551 262.38 50.8275C264.425 53.2 265.086 55.8096 264.365 58.6566C262.56 65.3942 259.493 72.7963 255.162 80.8625C252.997 84.6584 252.757 88.5017 254.441 92.3925C256.125 96.3782 259.252 99.2725 263.823 101.076C268.394 103.068 273.266 103.59 278.439 102.641C283.491 101.692 287.401 99.4623 290.167 95.9512C331.067 46.8893 357.29 17.7559 368.838 8.55083C374.612 4.09067 381.529 1.90807 389.589 2.00297C397.768 2.00297 404.745 4.23307 410.52 8.69323C416.173 13.1534 419 18.61 419 25.063C418.88 31.4211 415.993 36.8302 410.339 41.2904C400.595 49.0719 372.627 65.1096 326.435 89.4033C323.187 91.1114 320.842 93.3889 319.398 96.2359C317.835 98.9879 317.353 101.93 317.955 105.061C318.556 108.098 320.12 110.755 322.646 113.033C325.293 115.405 328.48 116.971 332.209 117.73C334.615 118.299 336.66 119.343 338.344 120.862C340.028 122.285 341.051 123.993 341.412 125.986C342.013 128.738 341.291 131.3 339.246 133.673C337.202 135.95 334.375 137.374 330.766 137.943L299.911 138.94C296.062 138.75 292.393 139.509 288.904 141.217C285.416 142.735 282.83 144.871 281.145 147.623L275.371 153.174C271.763 155.167 269.357 157.777 268.154 161.003C266.831 164.325 266.891 167.598 268.334 170.825L269.236 173.957C269.597 177.752 271.462 181.026 274.83 183.778C278.198 186.436 282.288 187.954 287.1 188.334C319.579 190.896 347.186 196.305 369.921 204.561C377.138 207.218 382.131 211.536 384.897 217.514C387.544 223.303 387.183 229.044 383.815 234.738C380.567 240.432 375.154 244.37 367.575 246.553C360.237 248.641 352.9 248.356 345.562 245.699C330.646 240.195 315.549 232.603 300.272 222.924C296.783 220.741 292.874 219.602 288.543 219.507C283.972 219.317 279.882 220.266 276.274 222.354C272.545 224.347 269.958 227.052 268.515 230.468C267.312 233.884 267.372 237.206 268.695 240.432L269.778 242.852C271.221 247.122 270.5 251.155 267.613 254.951C264.966 258.842 260.876 261.357 255.343 262.496C250.05 263.634 244.938 263.113 240.006 260.93C235.194 258.652 232.066 255.378 230.623 251.108L229.36 246.268C228.638 243.326 227.014 240.717 224.488 238.439C221.962 236.162 218.834 234.596 215.105 233.742L204.279 233.6C200.55 234.454 197.362 235.924 194.716 238.012C192.791 239.815 190.325 240.859 187.318 241.144C184.31 241.618 181.544 241.239 179.017 240.005C176.251 238.866 173.424 238.202 170.537 238.012C167.53 237.728 164.643 238.06 161.876 239.009C158.989 239.863 156.523 241.144 154.478 242.852C152.313 244.56 150.809 246.6 149.967 248.973C138.78 275.734 130.841 292.578 126.149 299.506C122.54 304.82 117.007 308.331 109.549 310.039C102.211 311.747 95.1138 311.178 88.2572 308.331C81.6411 305.389 77.1904 300.977 74.9048 295.093C72.7396 289.399 73.5214 283.895 77.2505 278.581C84.8289 267.478 112.015 240.1 158.808 196.447C160.853 194.549 162.237 192.462 162.959 190.184C163.801 187.812 163.861 185.439 163.139 183.067C162.658 180.789 161.515 178.654 159.711 176.661C157.786 174.763 155.5 173.292 152.854 172.248L150.869 171.11C147.02 169.022 142.87 168.073 138.419 168.263C133.848 168.358 129.818 169.591 126.33 171.964C94.9334 192.746 64.9205 206.649 36.291 213.671C29.3141 215.284 22.5777 214.762 16.082 212.105C9.70649 209.353 5.43617 205.273 3.27091 199.864C1.10566 194.265 1.70712 188.95 5.07529 183.921C8.44347 178.796 13.6762 175.38 20.7734 173.672C30.9982 171.205 42.0049 169.402 53.7936 168.263C57.8835 167.883 61.4922 166.602 64.6198 164.419C67.7474 162.237 69.7923 159.58 70.7547 156.448C71.717 153.222 71.4765 150.09 70.033 147.053C68.4692 143.922 65.943 141.407 62.4546 139.509C57.7632 136.947 54.3348 133.53 52.1696 129.26C50.1246 124.8 49.8841 120.245 51.4479 115.595C53.4928 109.806 57.8233 105.441 64.4393 102.499C71.1757 99.5572 78.2128 98.893 85.5506 100.506L94.753 102.784Z"/>
</mask>
<path d="M94.753 102.784L109.188 102.214C114 100.601 117.428 97.944 119.473 94.243C121.638 90.542 121.879 86.7936 120.195 82.9977C118.631 79.012 115.624 76.0227 111.173 74.0299C93.8508 66.3432 79.536 58.0397 68.2286 49.1194C63.6575 45.5133 61.3118 41.1006 61.1915 35.8812C61.0712 30.7568 63.3567 26.3915 68.0481 22.7854C72.6192 19.0844 78.2129 17.1865 84.8289 17.0916C91.2044 17.0916 96.7377 18.8947 101.429 22.5008C111.293 29.9977 120.616 39.3925 129.397 50.6852C131.562 53.2474 134.449 55.1928 138.058 56.5214C141.667 57.8499 145.396 58.3244 149.245 57.9448C153.215 57.4703 156.703 56.2367 159.711 54.2439C162.718 52.1561 164.703 49.6414 165.665 46.6996C166.387 44.6118 167.77 42.8562 169.815 41.4328C171.74 39.9144 174.025 38.8705 176.672 38.3011C180.762 37.4471 184.611 37.8266 188.22 39.4399C191.949 41.148 194.355 43.6154 195.437 46.8419L197.963 58.5142C198.565 62.405 200.73 65.6789 204.459 68.336C208.188 70.9932 212.639 72.3218 217.812 72.3218C222.744 72.3218 227.134 71.0881 230.984 68.6208C234.713 65.9636 236.938 62.6897 237.66 58.7989L238.562 54.3862C239.284 51.6342 241.208 49.499 244.336 47.9806C247.223 46.3674 250.471 45.8455 254.08 46.4149C257.568 46.9842 260.335 48.4551 262.38 50.8275C264.425 53.2 265.086 55.8096 264.365 58.6566C262.56 65.3942 259.493 72.7963 255.162 80.8625C252.997 84.6584 252.757 88.5017 254.441 92.3925C256.125 96.3782 259.252 99.2725 263.823 101.076C268.394 103.068 273.266 103.59 278.439 102.641C283.491 101.692 287.401 99.4623 290.167 95.9512C331.067 46.8893 357.29 17.7559 368.838 8.55083C374.612 4.09067 381.529 1.90807 389.589 2.00297C397.768 2.00297 404.745 4.23307 410.52 8.69323C416.173 13.1534 419 18.61 419 25.063C418.88 31.4211 415.993 36.8302 410.339 41.2904C400.595 49.0719 372.627 65.1096 326.435 89.4033C323.187 91.1114 320.842 93.3889 319.398 96.2359C317.835 98.9879 317.353 101.93 317.955 105.061C318.556 108.098 320.12 110.755 322.646 113.033C325.293 115.405 328.48 116.971 332.209 117.73C334.615 118.299 336.66 119.343 338.344 120.862C340.028 122.285 341.051 123.993 341.412 125.986C342.013 128.738 341.291 131.3 339.246 133.673C337.202 135.95 334.375 137.374 330.766 137.943L299.911 138.94C296.062 138.75 292.393 139.509 288.904 141.217C285.416 142.735 282.83 144.871 281.145 147.623L275.371 153.174C271.763 155.167 269.357 157.777 268.154 161.003C266.831 164.325 266.891 167.598 268.334 170.825L269.236 173.957C269.597 177.752 271.462 181.026 274.83 183.778C278.198 186.436 282.288 187.954 287.1 188.334C319.579 190.896 347.186 196.305 369.921 204.561C377.138 207.218 382.131 211.536 384.897 217.514C387.544 223.303 387.183 229.044 383.815 234.738C380.567 240.432 375.154 244.37 367.575 246.553C360.237 248.641 352.9 248.356 345.562 245.699C330.646 240.195 315.549 232.603 300.272 222.924C296.783 220.741 292.874 219.602 288.543 219.507C283.972 219.317 279.882 220.266 276.274 222.354C272.545 224.347 269.958 227.052 268.515 230.468C267.312 233.884 267.372 237.206 268.695 240.432L269.778 242.852C271.221 247.122 270.5 251.155 267.613 254.951C264.966 258.842 260.876 261.357 255.343 262.496C250.05 263.634 244.938 263.113 240.006 260.93C235.194 258.652 232.066 255.378 230.623 251.108L229.36 246.268C228.638 243.326 227.014 240.717 224.488 238.439C221.962 236.162 218.834 234.596 215.105 233.742L204.279 233.6C200.55 234.454 197.362 235.924 194.716 238.012C192.791 239.815 190.325 240.859 187.318 241.144C184.31 241.618 181.544 241.239 179.017 240.005C176.251 238.866 173.424 238.202 170.537 238.012C167.53 237.728 164.643 238.06 161.876 239.009C158.989 239.863 156.523 241.144 154.478 242.852C152.313 244.56 150.809 246.6 149.967 248.973C138.78 275.734 130.841 292.578 126.149 299.506C122.54 304.82 117.007 308.331 109.549 310.039C102.211 311.747 95.1138 311.178 88.2572 308.331C81.6411 305.389 77.1904 300.977 74.9048 295.093C72.7396 289.399 73.5214 283.895 77.2505 278.581C84.8289 267.478 112.015 240.1 158.808 196.447C160.853 194.549 162.237 192.462 162.959 190.184C163.801 187.812 163.861 185.439 163.139 183.067C162.658 180.789 161.515 178.654 159.711 176.661C157.786 174.763 155.5 173.292 152.854 172.248L150.869 171.11C147.02 169.022 142.87 168.073 138.419 168.263C133.848 168.358 129.818 169.591 126.33 171.964C94.9334 192.746 64.9205 206.649 36.291 213.671C29.3141 215.284 22.5777 214.762 16.082 212.105C9.70649 209.353 5.43617 205.273 3.27091 199.864C1.10566 194.265 1.70712 188.95 5.07529 183.921C8.44347 178.796 13.6762 175.38 20.7734 173.672C30.9982 171.205 42.0049 169.402 53.7936 168.263C57.8835 167.883 61.4922 166.602 64.6198 164.419C67.7474 162.237 69.7923 159.58 70.7547 156.448C71.717 153.222 71.4765 150.09 70.033 147.053C68.4692 143.922 65.943 141.407 62.4546 139.509C57.7632 136.947 54.3348 133.53 52.1696 129.26C50.1246 124.8 49.8841 120.245 51.4479 115.595C53.4928 109.806 57.8233 105.441 64.4393 102.499C71.1757 99.5572 78.2128 98.893 85.5506 100.506L94.753 102.784Z" fill="#EF5DA8"/>
<path d="M94.753 102.784L109.188 102.214C114 100.601 117.428 97.944 119.473 94.243C121.638 90.542 121.879 86.7936 120.195 82.9977C118.631 79.012 115.624 76.0227 111.173 74.0299C93.8508 66.3432 79.536 58.0397 68.2286 49.1194C63.6575 45.5133 61.3118 41.1006 61.1915 35.8812C61.0712 30.7568 63.3567 26.3915 68.0481 22.7854C72.6192 19.0844 78.2129 17.1865 84.8289 17.0916C91.2044 17.0916 96.7377 18.8947 101.429 22.5008C111.293 29.9977 120.616 39.3925 129.397 50.6852C131.562 53.2474 134.449 55.1928 138.058 56.5214C141.667 57.8499 145.396 58.3244 149.245 57.9448C153.215 57.4703 156.703 56.2367 159.711 54.2439C162.718 52.1561 164.703 49.6414 165.665 46.6996C166.387 44.6118 167.77 42.8562 169.815 41.4328C171.74 39.9144 174.025 38.8705 176.672 38.3011C180.762 37.4471 184.611 37.8266 188.22 39.4399C191.949 41.148 194.355 43.6154 195.437 46.8419L197.963 58.5142C198.565 62.405 200.73 65.6789 204.459 68.336C208.188 70.9932 212.639 72.3218 217.812 72.3218C222.744 72.3218 227.134 71.0881 230.984 68.6208C234.713 65.9636 236.938 62.6897 237.66 58.7989L238.562 54.3862C239.284 51.6342 241.208 49.499 244.336 47.9806C247.223 46.3674 250.471 45.8455 254.08 46.4149C257.568 46.9842 260.335 48.4551 262.38 50.8275C264.425 53.2 265.086 55.8096 264.365 58.6566C262.56 65.3942 259.493 72.7963 255.162 80.8625C252.997 84.6584 252.757 88.5017 254.441 92.3925C256.125 96.3782 259.252 99.2725 263.823 101.076C268.394 103.068 273.266 103.59 278.439 102.641C283.491 101.692 287.401 99.4623 290.167 95.9512C331.067 46.8893 357.29 17.7559 368.838 8.55083C374.612 4.09067 381.529 1.90807 389.589 2.00297C397.768 2.00297 404.745 4.23307 410.52 8.69323C416.173 13.1534 419 18.61 419 25.063C418.88 31.4211 415.993 36.8302 410.339 41.2904C400.595 49.0719 372.627 65.1096 326.435 89.4033C323.187 91.1114 320.842 93.3889 319.398 96.2359C317.835 98.9879 317.353 101.93 317.955 105.061C318.556 108.098 320.12 110.755 322.646 113.033C325.293 115.405 328.48 116.971 332.209 117.73C334.615 118.299 336.66 119.343 338.344 120.862C340.028 122.285 341.051 123.993 341.412 125.986C342.013 128.738 341.291 131.3 339.246 133.673C337.202 135.95 334.375 137.374 330.766 137.943L299.911 138.94C296.062 138.75 292.393 139.509 288.904 141.217C285.416 142.735 282.83 144.871 281.145 147.623L275.371 153.174C271.763 155.167 269.357 157.777 268.154 161.003C266.831 164.325 266.891 167.598 268.334 170.825L269.236 173.957C269.597 177.752 271.462 181.026 274.83 183.778C278.198 186.436 282.288 187.954 287.1 188.334C319.579 190.896 347.186 196.305 369.921 204.561C377.138 207.218 382.131 211.536 384.897 217.514C387.544 223.303 387.183 229.044 383.815 234.738C380.567 240.432 375.154 244.37 367.575 246.553C360.237 248.641 352.9 248.356 345.562 245.699C330.646 240.195 315.549 232.603 300.272 222.924C296.783 220.741 292.874 219.602 288.543 219.507C283.972 219.317 279.882 220.266 276.274 222.354C272.545 224.347 269.958 227.052 268.515 230.468C267.312 233.884 267.372 237.206 268.695 240.432L269.778 242.852C271.221 247.122 270.5 251.155 267.613 254.951C264.966 258.842 260.876 261.357 255.343 262.496C250.05 263.634 244.938 263.113 240.006 260.93C235.194 258.652 232.066 255.378 230.623 251.108L229.36 246.268C228.638 243.326 227.014 240.717 224.488 238.439C221.962 236.162 218.834 234.596 215.105 233.742L204.279 233.6C200.55 234.454 197.362 235.924 194.716 238.012C192.791 239.815 190.325 240.859 187.318 241.144C184.31 241.618 181.544 241.239 179.017 240.005C176.251 238.866 173.424 238.202 170.537 238.012C167.53 237.728 164.643 238.06 161.876 239.009C158.989 239.863 156.523 241.144 154.478 242.852C152.313 244.56 150.809 246.6 149.967 248.973C138.78 275.734 130.841 292.578 126.149 299.506C122.54 304.82 117.007 308.331 109.549 310.039C102.211 311.747 95.1138 311.178 88.2572 308.331C81.6411 305.389 77.1904 300.977 74.9048 295.093C72.7396 289.399 73.5214 283.895 77.2505 278.581C84.8289 267.478 112.015 240.1 158.808 196.447C160.853 194.549 162.237 192.462 162.959 190.184C163.801 187.812 163.861 185.439 163.139 183.067C162.658 180.789 161.515 178.654 159.711 176.661C157.786 174.763 155.5 173.292 152.854 172.248L150.869 171.11C147.02 169.022 142.87 168.073 138.419 168.263C133.848 168.358 129.818 169.591 126.33 171.964C94.9334 192.746 64.9205 206.649 36.291 213.671C29.3141 215.284 22.5777 214.762 16.082 212.105C9.70649 209.353 5.43617 205.273 3.27091 199.864C1.10566 194.265 1.70712 188.95 5.07529 183.921C8.44347 178.796 13.6762 175.38 20.7734 173.672C30.9982 171.205 42.0049 169.402 53.7936 168.263C57.8835 167.883 61.4922 166.602 64.6198 164.419C67.7474 162.237 69.7923 159.58 70.7547 156.448C71.717 153.222 71.4765 150.09 70.033 147.053C68.4692 143.922 65.943 141.407 62.4546 139.509C57.7632 136.947 54.3348 133.53 52.1696 129.26C50.1246 124.8 49.8841 120.245 51.4479 115.595C53.4928 109.806 57.8233 105.441 64.4393 102.499C71.1757 99.5572 78.2128 98.893 85.5506 100.506L94.753 102.784Z" stroke="#222222" stroke-width="4" mask="url(#path-1-outside-1_2319_1980)"/>
</svg>
