<svg width="424" height="319" viewBox="0 0 424 319" fill="none" xmlns="http://www.w3.org/2000/svg">
<mask id="path-1-outside-1_2319_1994" maskUnits="userSpaceOnUse" x="0" y="0" width="424" height="319" fill="black">
<rect fill="white" width="424" height="319"/>
<path d="M378.502 112.683L376.156 113.11L370.019 113.962C366.169 113.962 362.619 113.11 359.37 111.405C356.242 109.794 353.895 107.616 352.331 104.869C351.128 102.69 349.323 100.843 346.916 99.3274C344.51 97.9066 341.803 96.9594 338.794 96.4858L330.131 96.7699C327.243 97.433 324.656 98.5697 322.37 100.18C319.361 102.548 315.872 104.158 311.901 105.011C307.93 106.053 304.742 107.853 302.336 110.41C299.929 112.968 298.726 115.857 298.726 119.077L298.003 123.34C297.522 125.424 297.583 127.46 298.184 129.449C298.665 131.533 299.748 133.428 301.433 135.133C302.997 136.932 304.982 138.306 307.389 139.253C309.795 140.295 312.323 140.863 314.97 140.958C321.949 141.432 327.905 143.705 332.838 147.778C337.651 151.946 340.058 156.824 340.058 162.413C340.058 165.444 339.336 168.238 337.892 170.796C335.967 174.679 336.027 178.516 338.072 182.304C340.118 186.093 343.607 188.746 348.541 190.261C357.325 192.819 364.424 197.128 369.839 203.191C375.253 209.253 377.961 216.073 377.961 223.651C377.961 233.407 373.569 241.79 364.785 248.8C355.881 255.714 345.232 259.172 332.838 259.172C324.415 259.172 316.654 257.467 309.555 254.057C302.696 250.836 297.282 246.432 293.311 240.843C291.626 238.475 289.22 236.628 286.091 235.302C283.083 233.976 279.834 233.36 276.345 233.455C272.855 233.455 269.666 234.212 266.779 235.728C263.891 237.243 261.665 239.233 260.101 241.696C256.491 247.758 251.016 252.636 243.676 256.33C236.336 260.024 228.214 261.871 219.31 261.871C207.999 261.871 198.072 258.935 189.529 253.062C181.106 247.284 176.113 239.991 174.549 231.181C174.067 228.434 172.683 225.971 170.397 223.793C168.111 221.614 165.283 220.099 161.914 219.246C157.342 218.11 153.431 216.073 150.182 213.137C147.054 210.295 143.083 208.685 138.27 208.306C133.457 207.927 129.125 208.827 125.275 211.005C120.582 213.658 115.348 214.984 109.572 214.984C104.157 214.984 99.2841 213.847 94.9523 211.574C90.5002 209.395 87.1912 206.411 85.0254 202.622C82.9798 199.307 79.7312 196.892 75.2791 195.376C70.9473 193.955 66.4952 193.908 61.9228 195.234L47.1225 197.081C34.6085 197.081 23.9597 193.624 15.1759 186.709C6.39201 179.794 2 171.411 2 161.56C2 152.467 5.8505 144.51 13.5514 137.69C21.2523 130.965 30.7582 127.129 42.0689 126.181C44.9567 125.897 47.604 125.139 50.0105 123.908L55.9665 119.219C57.5308 117.325 58.4332 115.241 58.6739 112.968C58.9145 110.694 58.5536 108.516 57.591 106.432C56.508 104.158 55.9665 101.79 55.9665 99.3274C55.9665 93.3599 58.6138 88.2923 63.9081 84.1245C69.3228 79.862 75.7602 77.7308 83.2205 77.7308L87.1914 78.0149C92.6061 78.6779 97.4191 77.636 101.631 74.8891C105.842 72.2369 108.188 68.7794 108.67 64.5169C108.79 62.7172 109.211 61.0122 109.933 59.4019C110.775 57.318 111.016 55.1394 110.655 52.8661C110.294 50.6875 109.392 48.6509 107.948 46.7564C106.383 44.862 104.338 43.3465 101.811 42.2098C99.4045 41.0731 96.7573 40.3627 93.8694 40.0785C88.3344 39.6997 83.6418 37.8525 79.7913 34.5372C75.9409 31.2219 74.0155 27.3383 74.0155 22.8863C74.0155 18.0555 76.1814 13.935 80.5131 10.525C84.8449 7.11502 90.0191 5.41005 96.0354 5.41005C102.172 5.41005 107.406 7.11502 111.738 10.525C116.07 13.935 118.236 18.0555 118.236 22.8863L117.694 26.5806C116.972 28.7592 116.972 30.9378 117.694 33.1164C118.296 35.295 119.439 37.2368 121.123 38.9418C122.928 40.7415 125.154 42.115 127.802 43.0623C130.328 44.0095 132.976 44.4831 135.743 44.4831C141.76 44.4831 147.234 45.9513 152.168 48.8877C156.86 51.6346 160.109 55.1867 161.914 59.544C163.238 63.0487 165.825 65.7483 169.675 67.6428C173.526 69.5372 177.677 70.2476 182.129 69.774L185.558 69.632L190.973 70.0582L199.636 69.774C202.645 69.111 205.232 67.9743 207.398 66.3641L212.271 60.6807C213.233 58.4074 213.534 56.1339 213.173 53.8606L212.993 50.3085C213.113 45.8565 211.128 42.1151 207.037 39.0839C204.39 37.0948 202.344 34.8214 200.9 32.2639C199.336 29.517 198.554 26.6279 198.554 23.5968C198.554 17.6292 201.201 12.5616 206.495 8.39377C211.79 4.13126 218.227 2 225.808 2C231.463 2 236.637 3.32619 241.33 5.97842C245.782 8.4412 249.031 11.6618 251.076 15.6401C252.039 17.6293 253.543 19.3817 255.588 20.8972L262.266 24.1651C267.801 25.6807 273.036 25.2544 277.969 22.8863C281.94 20.9919 286.452 20.0447 291.506 20.0447C298.966 20.0447 305.404 22.1759 310.818 26.4384C316.113 30.6062 318.76 35.6266 318.76 41.4994C318.76 44.6252 317.918 47.609 316.233 50.4506C314.428 53.4818 314.007 56.6076 314.97 59.8281C315.932 63.1434 318.038 65.843 321.287 67.9269C325.498 70.7686 328.386 74.226 329.95 78.299C330.913 80.5724 332.417 82.5616 334.462 84.2666C336.508 86.0663 338.975 87.3451 341.863 88.1029L350.706 88.6711C353.594 88.2923 356.302 87.3924 358.829 85.9716C362.198 84.0772 365.928 83.1299 370.019 83.1299C375.434 83.1299 380.066 84.6455 383.917 87.6766C387.647 90.7078 389.512 94.3545 389.512 98.617C389.512 101.269 388.67 103.779 386.985 106.148C385.421 108.326 383.255 110.126 380.487 111.547L378.502 112.683ZM259.198 99.7538C263.41 98.0488 266.478 95.4912 268.403 92.0812C270.088 88.5765 270.088 85.0244 268.403 81.4249C266.839 77.9202 263.951 75.3153 259.74 73.6103C255.528 71.8106 251.136 71.337 246.564 72.1895L240.247 72.7578L235.013 72.3315L226.168 72.6157C223.281 73.2787 220.754 74.4155 218.588 76.0257C216.302 77.636 214.677 79.5305 213.715 81.7091C212.632 83.9824 212.271 86.3031 212.632 88.6711L212.993 91.0866C212.993 93.7388 212.331 96.2964 211.007 98.7592C209.443 102.074 209.323 105.39 210.647 108.705C212.09 112.115 214.737 114.767 218.588 116.662L219.49 117.088C224.303 119.361 229.417 119.835 234.832 118.509C237.479 117.846 239.765 116.804 241.691 115.383C243.736 113.962 245.301 112.304 246.384 110.41C249.031 105.579 253.302 102.027 259.198 99.7538ZM394.024 138.4L396.371 137.832L402.507 137.122C407.922 137.122 412.555 138.637 416.405 141.668C420.135 144.605 422 148.204 422 152.467C422 156.729 420.135 160.376 416.405 163.407C412.555 166.344 407.922 167.812 402.507 167.812C397.213 167.812 392.64 166.344 388.79 163.407C384.94 160.376 383.014 156.729 383.014 152.467C383.014 149.815 383.857 147.304 385.541 144.936C387.226 142.663 389.452 140.863 392.219 139.537L394.024 138.4ZM293.311 177.474C291.025 175.674 288.377 174.395 285.369 173.637L275.984 173.495C272.855 174.064 270.088 175.2 267.681 176.905C265.275 178.61 263.59 180.647 262.628 183.015L258.115 189.409C255.589 191.871 254.265 194.666 254.144 197.792C253.904 200.917 254.866 203.854 257.032 206.601L259.018 209.158C260.703 211.526 263.109 213.374 266.238 214.7C269.125 216.026 272.314 216.641 275.803 216.547C279.293 216.452 282.481 215.647 285.369 214.131C288.257 212.616 290.483 210.674 292.047 208.306C293.852 205.275 296.018 202.622 298.545 200.349C300.23 198.928 301.433 197.223 302.155 195.234L303.057 189.409C302.576 185.241 300.23 181.831 296.018 179.179L293.311 177.474ZM285.008 286.31C290.423 286.31 294.996 287.825 298.726 290.857C302.576 293.888 304.501 297.487 304.501 301.655C304.501 305.917 302.576 309.564 298.726 312.595C294.996 315.532 290.423 317 285.008 317C279.594 317 274.961 315.532 271.111 312.595C267.381 309.564 265.515 305.917 265.515 301.655C265.515 297.392 267.381 293.793 271.111 290.857C274.961 287.825 279.594 286.31 285.008 286.31ZM131.772 87.2503L124.192 87.5345C121.665 88.1028 119.379 89.0501 117.333 90.3762C113.001 93.0284 110.715 96.4858 110.475 100.748L109.392 105.295C108.429 107.758 108.369 110.221 109.211 112.683C109.813 115.241 111.257 117.467 113.543 119.361C115.709 121.256 118.356 122.582 121.484 123.34L130.87 123.908L135.743 123.482L142.06 124.05L152.709 123.624C156.319 122.582 159.207 120.829 161.373 118.367C163.659 115.999 164.862 113.346 164.982 110.41C165.223 107.474 164.321 104.727 162.275 102.169L159.207 96.7699C157.763 93.5494 155.176 91.0392 151.446 89.2395C147.595 87.4398 143.504 86.7767 139.172 87.2503L135.743 87.5345L131.772 87.2503ZM86.2889 276.506C85.206 272.528 82.4986 269.402 78.1669 267.128C73.8351 264.855 69.1423 264.145 64.0886 264.997L60.1179 265.281C54.7032 265.281 50.1308 263.766 46.4007 260.735C42.5502 257.798 40.6249 254.199 40.6249 249.936C40.6249 245.674 42.5502 242.027 46.4007 238.996C50.2512 236.06 54.8235 234.591 60.1179 234.591C64.209 234.591 67.939 235.491 71.3082 237.291C74.557 239.091 76.9034 241.411 78.3473 244.253C80.2726 248.137 83.5815 250.836 88.2743 252.352C93.0873 254.057 97.9605 254.104 102.894 252.494C106.143 251.452 109.512 250.931 113.001 250.931C120.462 250.931 126.899 253.015 132.314 257.183C137.608 261.445 140.255 266.513 140.255 272.386C140.255 278.353 137.608 283.421 132.314 287.589C126.899 291.756 120.462 293.84 113.001 293.84C106.383 293.84 100.548 292.183 95.4939 288.867C90.5605 285.647 87.4922 281.526 86.2889 276.506Z"/>
</mask>
<path d="M378.502 112.683L376.156 113.11L370.019 113.962C366.169 113.962 362.619 113.11 359.37 111.405C356.242 109.794 353.895 107.616 352.331 104.869C351.128 102.69 349.323 100.843 346.916 99.3274C344.51 97.9066 341.803 96.9594 338.794 96.4858L330.131 96.7699C327.243 97.433 324.656 98.5697 322.37 100.18C319.361 102.548 315.872 104.158 311.901 105.011C307.93 106.053 304.742 107.853 302.336 110.41C299.929 112.968 298.726 115.857 298.726 119.077L298.003 123.34C297.522 125.424 297.583 127.46 298.184 129.449C298.665 131.533 299.748 133.428 301.433 135.133C302.997 136.932 304.982 138.306 307.389 139.253C309.795 140.295 312.323 140.863 314.97 140.958C321.949 141.432 327.905 143.705 332.838 147.778C337.651 151.946 340.058 156.824 340.058 162.413C340.058 165.444 339.336 168.238 337.892 170.796C335.967 174.679 336.027 178.516 338.072 182.304C340.118 186.093 343.607 188.746 348.541 190.261C357.325 192.819 364.424 197.128 369.839 203.191C375.253 209.253 377.961 216.073 377.961 223.651C377.961 233.407 373.569 241.79 364.785 248.8C355.881 255.714 345.232 259.172 332.838 259.172C324.415 259.172 316.654 257.467 309.555 254.057C302.696 250.836 297.282 246.432 293.311 240.843C291.626 238.475 289.22 236.628 286.091 235.302C283.083 233.976 279.834 233.36 276.345 233.455C272.855 233.455 269.666 234.212 266.779 235.728C263.891 237.243 261.665 239.233 260.101 241.696C256.491 247.758 251.016 252.636 243.676 256.33C236.336 260.024 228.214 261.871 219.31 261.871C207.999 261.871 198.072 258.935 189.529 253.062C181.106 247.284 176.113 239.991 174.549 231.181C174.067 228.434 172.683 225.971 170.397 223.793C168.111 221.614 165.283 220.099 161.914 219.246C157.342 218.11 153.431 216.073 150.182 213.137C147.054 210.295 143.083 208.685 138.27 208.306C133.457 207.927 129.125 208.827 125.275 211.005C120.582 213.658 115.348 214.984 109.572 214.984C104.157 214.984 99.2841 213.847 94.9523 211.574C90.5002 209.395 87.1912 206.411 85.0254 202.622C82.9798 199.307 79.7312 196.892 75.2791 195.376C70.9473 193.955 66.4952 193.908 61.9228 195.234L47.1225 197.081C34.6085 197.081 23.9597 193.624 15.1759 186.709C6.39201 179.794 2 171.411 2 161.56C2 152.467 5.8505 144.51 13.5514 137.69C21.2523 130.965 30.7582 127.129 42.0689 126.181C44.9567 125.897 47.604 125.139 50.0105 123.908L55.9665 119.219C57.5308 117.325 58.4332 115.241 58.6739 112.968C58.9145 110.694 58.5536 108.516 57.591 106.432C56.508 104.158 55.9665 101.79 55.9665 99.3274C55.9665 93.3599 58.6138 88.2923 63.9081 84.1245C69.3228 79.862 75.7602 77.7308 83.2205 77.7308L87.1914 78.0149C92.6061 78.6779 97.4191 77.636 101.631 74.8891C105.842 72.2369 108.188 68.7794 108.67 64.5169C108.79 62.7172 109.211 61.0122 109.933 59.4019C110.775 57.318 111.016 55.1394 110.655 52.8661C110.294 50.6875 109.392 48.6509 107.948 46.7564C106.383 44.862 104.338 43.3465 101.811 42.2098C99.4045 41.0731 96.7573 40.3627 93.8694 40.0785C88.3344 39.6997 83.6418 37.8525 79.7913 34.5372C75.9409 31.2219 74.0155 27.3383 74.0155 22.8863C74.0155 18.0555 76.1814 13.935 80.5131 10.525C84.8449 7.11502 90.0191 5.41005 96.0354 5.41005C102.172 5.41005 107.406 7.11502 111.738 10.525C116.07 13.935 118.236 18.0555 118.236 22.8863L117.694 26.5806C116.972 28.7592 116.972 30.9378 117.694 33.1164C118.296 35.295 119.439 37.2368 121.123 38.9418C122.928 40.7415 125.154 42.115 127.802 43.0623C130.328 44.0095 132.976 44.4831 135.743 44.4831C141.76 44.4831 147.234 45.9513 152.168 48.8877C156.86 51.6346 160.109 55.1867 161.914 59.544C163.238 63.0487 165.825 65.7483 169.675 67.6428C173.526 69.5372 177.677 70.2476 182.129 69.774L185.558 69.632L190.973 70.0582L199.636 69.774C202.645 69.111 205.232 67.9743 207.398 66.3641L212.271 60.6807C213.233 58.4074 213.534 56.1339 213.173 53.8606L212.993 50.3085C213.113 45.8565 211.128 42.1151 207.037 39.0839C204.39 37.0948 202.344 34.8214 200.9 32.2639C199.336 29.517 198.554 26.6279 198.554 23.5968C198.554 17.6292 201.201 12.5616 206.495 8.39377C211.79 4.13126 218.227 2 225.808 2C231.463 2 236.637 3.32619 241.33 5.97842C245.782 8.4412 249.031 11.6618 251.076 15.6401C252.039 17.6293 253.543 19.3817 255.588 20.8972L262.266 24.1651C267.801 25.6807 273.036 25.2544 277.969 22.8863C281.94 20.9919 286.452 20.0447 291.506 20.0447C298.966 20.0447 305.404 22.1759 310.818 26.4384C316.113 30.6062 318.76 35.6266 318.76 41.4994C318.76 44.6252 317.918 47.609 316.233 50.4506C314.428 53.4818 314.007 56.6076 314.97 59.8281C315.932 63.1434 318.038 65.843 321.287 67.9269C325.498 70.7686 328.386 74.226 329.95 78.299C330.913 80.5724 332.417 82.5616 334.462 84.2666C336.508 86.0663 338.975 87.3451 341.863 88.1029L350.706 88.6711C353.594 88.2923 356.302 87.3924 358.829 85.9716C362.198 84.0772 365.928 83.1299 370.019 83.1299C375.434 83.1299 380.066 84.6455 383.917 87.6766C387.647 90.7078 389.512 94.3545 389.512 98.617C389.512 101.269 388.67 103.779 386.985 106.148C385.421 108.326 383.255 110.126 380.487 111.547L378.502 112.683ZM259.198 99.7538C263.41 98.0488 266.478 95.4912 268.403 92.0812C270.088 88.5765 270.088 85.0244 268.403 81.4249C266.839 77.9202 263.951 75.3153 259.74 73.6103C255.528 71.8106 251.136 71.337 246.564 72.1895L240.247 72.7578L235.013 72.3315L226.168 72.6157C223.281 73.2787 220.754 74.4155 218.588 76.0257C216.302 77.636 214.677 79.5305 213.715 81.7091C212.632 83.9824 212.271 86.3031 212.632 88.6711L212.993 91.0866C212.993 93.7388 212.331 96.2964 211.007 98.7592C209.443 102.074 209.323 105.39 210.647 108.705C212.09 112.115 214.737 114.767 218.588 116.662L219.49 117.088C224.303 119.361 229.417 119.835 234.832 118.509C237.479 117.846 239.765 116.804 241.691 115.383C243.736 113.962 245.301 112.304 246.384 110.41C249.031 105.579 253.302 102.027 259.198 99.7538ZM394.024 138.4L396.371 137.832L402.507 137.122C407.922 137.122 412.555 138.637 416.405 141.668C420.135 144.605 422 148.204 422 152.467C422 156.729 420.135 160.376 416.405 163.407C412.555 166.344 407.922 167.812 402.507 167.812C397.213 167.812 392.64 166.344 388.79 163.407C384.94 160.376 383.014 156.729 383.014 152.467C383.014 149.815 383.857 147.304 385.541 144.936C387.226 142.663 389.452 140.863 392.219 139.537L394.024 138.4ZM293.311 177.474C291.025 175.674 288.377 174.395 285.369 173.637L275.984 173.495C272.855 174.064 270.088 175.2 267.681 176.905C265.275 178.61 263.59 180.647 262.628 183.015L258.115 189.409C255.589 191.871 254.265 194.666 254.144 197.792C253.904 200.917 254.866 203.854 257.032 206.601L259.018 209.158C260.703 211.526 263.109 213.374 266.238 214.7C269.125 216.026 272.314 216.641 275.803 216.547C279.293 216.452 282.481 215.647 285.369 214.131C288.257 212.616 290.483 210.674 292.047 208.306C293.852 205.275 296.018 202.622 298.545 200.349C300.23 198.928 301.433 197.223 302.155 195.234L303.057 189.409C302.576 185.241 300.23 181.831 296.018 179.179L293.311 177.474ZM285.008 286.31C290.423 286.31 294.996 287.825 298.726 290.857C302.576 293.888 304.501 297.487 304.501 301.655C304.501 305.917 302.576 309.564 298.726 312.595C294.996 315.532 290.423 317 285.008 317C279.594 317 274.961 315.532 271.111 312.595C267.381 309.564 265.515 305.917 265.515 301.655C265.515 297.392 267.381 293.793 271.111 290.857C274.961 287.825 279.594 286.31 285.008 286.31ZM131.772 87.2503L124.192 87.5345C121.665 88.1028 119.379 89.0501 117.333 90.3762C113.001 93.0284 110.715 96.4858 110.475 100.748L109.392 105.295C108.429 107.758 108.369 110.221 109.211 112.683C109.813 115.241 111.257 117.467 113.543 119.361C115.709 121.256 118.356 122.582 121.484 123.34L130.87 123.908L135.743 123.482L142.06 124.05L152.709 123.624C156.319 122.582 159.207 120.829 161.373 118.367C163.659 115.999 164.862 113.346 164.982 110.41C165.223 107.474 164.321 104.727 162.275 102.169L159.207 96.7699C157.763 93.5494 155.176 91.0392 151.446 89.2395C147.595 87.4398 143.504 86.7767 139.172 87.2503L135.743 87.5345L131.772 87.2503ZM86.2889 276.506C85.206 272.528 82.4986 269.402 78.1669 267.128C73.8351 264.855 69.1423 264.145 64.0886 264.997L60.1179 265.281C54.7032 265.281 50.1308 263.766 46.4007 260.735C42.5502 257.798 40.6249 254.199 40.6249 249.936C40.6249 245.674 42.5502 242.027 46.4007 238.996C50.2512 236.06 54.8235 234.591 60.1179 234.591C64.209 234.591 67.939 235.491 71.3082 237.291C74.557 239.091 76.9034 241.411 78.3473 244.253C80.2726 248.137 83.5815 250.836 88.2743 252.352C93.0873 254.057 97.9605 254.104 102.894 252.494C106.143 251.452 109.512 250.931 113.001 250.931C120.462 250.931 126.899 253.015 132.314 257.183C137.608 261.445 140.255 266.513 140.255 272.386C140.255 278.353 137.608 283.421 132.314 287.589C126.899 291.756 120.462 293.84 113.001 293.84C106.383 293.84 100.548 292.183 95.4939 288.867C90.5605 285.647 87.4922 281.526 86.2889 276.506Z" fill="#228B22"/>
<path d="M378.502 112.683L376.156 113.11L370.019 113.962C366.169 113.962 362.619 113.11 359.37 111.405C356.242 109.794 353.895 107.616 352.331 104.869C351.128 102.69 349.323 100.843 346.916 99.3274C344.51 97.9066 341.803 96.9594 338.794 96.4858L330.131 96.7699C327.243 97.433 324.656 98.5697 322.37 100.18C319.361 102.548 315.872 104.158 311.901 105.011C307.93 106.053 304.742 107.853 302.336 110.41C299.929 112.968 298.726 115.857 298.726 119.077L298.003 123.34C297.522 125.424 297.583 127.46 298.184 129.449C298.665 131.533 299.748 133.428 301.433 135.133C302.997 136.932 304.982 138.306 307.389 139.253C309.795 140.295 312.323 140.863 314.97 140.958C321.949 141.432 327.905 143.705 332.838 147.778C337.651 151.946 340.058 156.824 340.058 162.413C340.058 165.444 339.336 168.238 337.892 170.796C335.967 174.679 336.027 178.516 338.072 182.304C340.118 186.093 343.607 188.746 348.541 190.261C357.325 192.819 364.424 197.128 369.839 203.191C375.253 209.253 377.961 216.073 377.961 223.651C377.961 233.407 373.569 241.79 364.785 248.8C355.881 255.714 345.232 259.172 332.838 259.172C324.415 259.172 316.654 257.467 309.555 254.057C302.696 250.836 297.282 246.432 293.311 240.843C291.626 238.475 289.22 236.628 286.091 235.302C283.083 233.976 279.834 233.36 276.345 233.455C272.855 233.455 269.666 234.212 266.779 235.728C263.891 237.243 261.665 239.233 260.101 241.696C256.491 247.758 251.016 252.636 243.676 256.33C236.336 260.024 228.214 261.871 219.31 261.871C207.999 261.871 198.072 258.935 189.529 253.062C181.106 247.284 176.113 239.991 174.549 231.181C174.067 228.434 172.683 225.971 170.397 223.793C168.111 221.614 165.283 220.099 161.914 219.246C157.342 218.11 153.431 216.073 150.182 213.137C147.054 210.295 143.083 208.685 138.27 208.306C133.457 207.927 129.125 208.827 125.275 211.005C120.582 213.658 115.348 214.984 109.572 214.984C104.157 214.984 99.2841 213.847 94.9523 211.574C90.5002 209.395 87.1912 206.411 85.0254 202.622C82.9798 199.307 79.7312 196.892 75.2791 195.376C70.9473 193.955 66.4952 193.908 61.9228 195.234L47.1225 197.081C34.6085 197.081 23.9597 193.624 15.1759 186.709C6.39201 179.794 2 171.411 2 161.56C2 152.467 5.8505 144.51 13.5514 137.69C21.2523 130.965 30.7582 127.129 42.0689 126.181C44.9567 125.897 47.604 125.139 50.0105 123.908L55.9665 119.219C57.5308 117.325 58.4332 115.241 58.6739 112.968C58.9145 110.694 58.5536 108.516 57.591 106.432C56.508 104.158 55.9665 101.79 55.9665 99.3274C55.9665 93.3599 58.6138 88.2923 63.9081 84.1245C69.3228 79.862 75.7602 77.7308 83.2205 77.7308L87.1914 78.0149C92.6061 78.6779 97.4191 77.636 101.631 74.8891C105.842 72.2369 108.188 68.7794 108.67 64.5169C108.79 62.7172 109.211 61.0122 109.933 59.4019C110.775 57.318 111.016 55.1394 110.655 52.8661C110.294 50.6875 109.392 48.6509 107.948 46.7564C106.383 44.862 104.338 43.3465 101.811 42.2098C99.4045 41.0731 96.7573 40.3627 93.8694 40.0785C88.3344 39.6997 83.6418 37.8525 79.7913 34.5372C75.9409 31.2219 74.0155 27.3383 74.0155 22.8863C74.0155 18.0555 76.1814 13.935 80.5131 10.525C84.8449 7.11502 90.0191 5.41005 96.0354 5.41005C102.172 5.41005 107.406 7.11502 111.738 10.525C116.07 13.935 118.236 18.0555 118.236 22.8863L117.694 26.5806C116.972 28.7592 116.972 30.9378 117.694 33.1164C118.296 35.295 119.439 37.2368 121.123 38.9418C122.928 40.7415 125.154 42.115 127.802 43.0623C130.328 44.0095 132.976 44.4831 135.743 44.4831C141.76 44.4831 147.234 45.9513 152.168 48.8877C156.86 51.6346 160.109 55.1867 161.914 59.544C163.238 63.0487 165.825 65.7483 169.675 67.6428C173.526 69.5372 177.677 70.2476 182.129 69.774L185.558 69.632L190.973 70.0582L199.636 69.774C202.645 69.111 205.232 67.9743 207.398 66.3641L212.271 60.6807C213.233 58.4074 213.534 56.1339 213.173 53.8606L212.993 50.3085C213.113 45.8565 211.128 42.1151 207.037 39.0839C204.39 37.0948 202.344 34.8214 200.9 32.2639C199.336 29.517 198.554 26.6279 198.554 23.5968C198.554 17.6292 201.201 12.5616 206.495 8.39377C211.79 4.13126 218.227 2 225.808 2C231.463 2 236.637 3.32619 241.33 5.97842C245.782 8.4412 249.031 11.6618 251.076 15.6401C252.039 17.6293 253.543 19.3817 255.588 20.8972L262.266 24.1651C267.801 25.6807 273.036 25.2544 277.969 22.8863C281.94 20.9919 286.452 20.0447 291.506 20.0447C298.966 20.0447 305.404 22.1759 310.818 26.4384C316.113 30.6062 318.76 35.6266 318.76 41.4994C318.76 44.6252 317.918 47.609 316.233 50.4506C314.428 53.4818 314.007 56.6076 314.97 59.8281C315.932 63.1434 318.038 65.843 321.287 67.9269C325.498 70.7686 328.386 74.226 329.95 78.299C330.913 80.5724 332.417 82.5616 334.462 84.2666C336.508 86.0663 338.975 87.3451 341.863 88.1029L350.706 88.6711C353.594 88.2923 356.302 87.3924 358.829 85.9716C362.198 84.0772 365.928 83.1299 370.019 83.1299C375.434 83.1299 380.066 84.6455 383.917 87.6766C387.647 90.7078 389.512 94.3545 389.512 98.617C389.512 101.269 388.67 103.779 386.985 106.148C385.421 108.326 383.255 110.126 380.487 111.547L378.502 112.683ZM259.198 99.7538C263.41 98.0488 266.478 95.4912 268.403 92.0812C270.088 88.5765 270.088 85.0244 268.403 81.4249C266.839 77.9202 263.951 75.3153 259.74 73.6103C255.528 71.8106 251.136 71.337 246.564 72.1895L240.247 72.7578L235.013 72.3315L226.168 72.6157C223.281 73.2787 220.754 74.4155 218.588 76.0257C216.302 77.636 214.677 79.5305 213.715 81.7091C212.632 83.9824 212.271 86.3031 212.632 88.6711L212.993 91.0866C212.993 93.7388 212.331 96.2964 211.007 98.7592C209.443 102.074 209.323 105.39 210.647 108.705C212.09 112.115 214.737 114.767 218.588 116.662L219.49 117.088C224.303 119.361 229.417 119.835 234.832 118.509C237.479 117.846 239.765 116.804 241.691 115.383C243.736 113.962 245.301 112.304 246.384 110.41C249.031 105.579 253.302 102.027 259.198 99.7538ZM394.024 138.4L396.371 137.832L402.507 137.122C407.922 137.122 412.555 138.637 416.405 141.668C420.135 144.605 422 148.204 422 152.467C422 156.729 420.135 160.376 416.405 163.407C412.555 166.344 407.922 167.812 402.507 167.812C397.213 167.812 392.64 166.344 388.79 163.407C384.94 160.376 383.014 156.729 383.014 152.467C383.014 149.815 383.857 147.304 385.541 144.936C387.226 142.663 389.452 140.863 392.219 139.537L394.024 138.4ZM293.311 177.474C291.025 175.674 288.377 174.395 285.369 173.637L275.984 173.495C272.855 174.064 270.088 175.2 267.681 176.905C265.275 178.61 263.59 180.647 262.628 183.015L258.115 189.409C255.589 191.871 254.265 194.666 254.144 197.792C253.904 200.917 254.866 203.854 257.032 206.601L259.018 209.158C260.703 211.526 263.109 213.374 266.238 214.7C269.125 216.026 272.314 216.641 275.803 216.547C279.293 216.452 282.481 215.647 285.369 214.131C288.257 212.616 290.483 210.674 292.047 208.306C293.852 205.275 296.018 202.622 298.545 200.349C300.23 198.928 301.433 197.223 302.155 195.234L303.057 189.409C302.576 185.241 300.23 181.831 296.018 179.179L293.311 177.474ZM285.008 286.31C290.423 286.31 294.996 287.825 298.726 290.857C302.576 293.888 304.501 297.487 304.501 301.655C304.501 305.917 302.576 309.564 298.726 312.595C294.996 315.532 290.423 317 285.008 317C279.594 317 274.961 315.532 271.111 312.595C267.381 309.564 265.515 305.917 265.515 301.655C265.515 297.392 267.381 293.793 271.111 290.857C274.961 287.825 279.594 286.31 285.008 286.31ZM131.772 87.2503L124.192 87.5345C121.665 88.1028 119.379 89.0501 117.333 90.3762C113.001 93.0284 110.715 96.4858 110.475 100.748L109.392 105.295C108.429 107.758 108.369 110.221 109.211 112.683C109.813 115.241 111.257 117.467 113.543 119.361C115.709 121.256 118.356 122.582 121.484 123.34L130.87 123.908L135.743 123.482L142.06 124.05L152.709 123.624C156.319 122.582 159.207 120.829 161.373 118.367C163.659 115.999 164.862 113.346 164.982 110.41C165.223 107.474 164.321 104.727 162.275 102.169L159.207 96.7699C157.763 93.5494 155.176 91.0392 151.446 89.2395C147.595 87.4398 143.504 86.7767 139.172 87.2503L135.743 87.5345L131.772 87.2503ZM86.2889 276.506C85.206 272.528 82.4986 269.402 78.1669 267.128C73.8351 264.855 69.1423 264.145 64.0886 264.997L60.1179 265.281C54.7032 265.281 50.1308 263.766 46.4007 260.735C42.5502 257.798 40.6249 254.199 40.6249 249.936C40.6249 245.674 42.5502 242.027 46.4007 238.996C50.2512 236.06 54.8235 234.591 60.1179 234.591C64.209 234.591 67.939 235.491 71.3082 237.291C74.557 239.091 76.9034 241.411 78.3473 244.253C80.2726 248.137 83.5815 250.836 88.2743 252.352C93.0873 254.057 97.9605 254.104 102.894 252.494C106.143 251.452 109.512 250.931 113.001 250.931C120.462 250.931 126.899 253.015 132.314 257.183C137.608 261.445 140.255 266.513 140.255 272.386C140.255 278.353 137.608 283.421 132.314 287.589C126.899 291.756 120.462 293.84 113.001 293.84C106.383 293.84 100.548 292.183 95.4939 288.867C90.5605 285.647 87.4922 281.526 86.2889 276.506Z" stroke="#222222" stroke-width="4" mask="url(#path-1-outside-1_2319_1994)"/>
</svg>
