<svg width="431" height="296" viewBox="0 0 431 296" fill="none" xmlns="http://www.w3.org/2000/svg">
<mask id="path-1-outside-1_2319_2046" maskUnits="userSpaceOnUse" x="0" y="0" width="431" height="296" fill="black">
<rect fill="white" width="431" height="296"/>
<path d="M131.509 17.2422C135.964 19.8766 140.901 21.6642 146.32 22.6051C151.739 23.546 157.218 23.593 162.757 22.7463C168.056 21.9936 173.053 20.3941 177.749 17.9478C182.325 15.4074 186.058 12.3026 188.948 8.63316C190.513 6.65733 192.621 5.05784 195.27 3.83471C198.039 2.61157 200.929 2 203.94 2C208.757 2 212.971 3.36427 216.584 6.0928C220.076 8.72725 221.822 11.9262 221.822 15.6897V15.972C221.581 22.9344 224.11 29.2853 229.408 35.0247C234.707 40.6699 241.691 44.4804 250.361 46.4563C259.031 48.4321 267.581 48.1028 276.01 45.4683C284.319 42.928 290.761 38.647 295.337 32.6254C297.023 30.5555 299.19 28.909 301.839 27.6858C304.609 26.4627 307.559 25.8511 310.69 25.8511C315.507 25.8511 319.661 27.1684 323.153 29.8028C326.645 32.4373 328.391 35.6362 328.391 39.3997C328.512 44.7627 330.318 49.7493 333.81 54.3596C337.302 58.9699 341.998 62.5922 347.899 65.2267C353.799 67.9552 360.181 69.4136 367.045 69.6017C373.789 69.6958 380.231 68.5197 386.372 66.0735C388.901 65.0385 391.61 64.521 394.5 64.521C399.438 64.521 403.592 65.8853 406.964 68.6138C410.456 71.3424 412.202 74.6354 412.202 78.493C412.202 81.4097 411.118 84.0912 408.95 86.5375C406.903 88.8896 404.134 90.5362 400.642 91.477C391.851 94.0174 385.048 98.4395 380.231 104.743C375.414 111.047 373.728 117.869 375.173 125.207C376.498 132.452 380.652 138.521 387.637 143.413C394.621 148.4 402.809 151.081 412.202 151.458C416.898 151.646 420.872 153.057 424.123 155.692C427.374 158.42 429 161.619 429 165.289C429 169.146 427.254 172.439 423.762 175.168C420.27 177.896 416.055 179.261 411.118 179.261C408.108 179.261 405.157 178.602 402.267 177.285C397.21 174.932 391.61 173.568 385.469 173.192C379.448 172.91 373.608 173.615 367.948 175.309L363.252 176.156C355.907 176.626 349.284 178.461 343.383 181.66C337.362 184.953 332.847 189.187 329.836 194.362C326.946 199.536 325.923 204.993 326.766 210.733C327.609 216.378 330.258 221.459 334.713 225.975C336.76 228.045 337.964 230.35 338.326 232.89C339.289 240.7 343.383 247.286 350.608 252.649C357.954 258.012 366.624 260.74 376.618 260.834C381.435 260.928 385.529 262.34 388.901 265.068C392.273 267.797 393.959 271.043 393.959 274.806C393.959 278.664 392.213 281.91 388.72 284.544C385.228 287.273 381.074 288.637 376.257 288.637C371.561 288.637 367.527 287.461 364.155 285.109C360.784 282.662 358.857 279.699 358.375 276.218C357.532 268.408 353.438 261.822 346.093 256.459C338.747 251.19 330.077 248.462 320.083 248.274C316.109 248.085 312.737 247.145 309.967 245.451C304.308 242.158 297.986 240.135 291.002 239.382C284.017 238.724 277.274 239.429 270.772 241.499C264.269 243.663 258.91 246.956 254.696 251.378C250.361 255.612 247.712 260.505 246.748 266.056C246.146 269.443 244.159 272.266 240.788 274.524C237.536 276.782 233.683 277.911 229.228 277.911C225.856 277.911 222.785 277.252 220.016 275.935C217.246 274.618 215.079 272.877 213.513 270.713C209.419 264.786 203.458 260.411 195.631 257.588C187.924 254.672 179.796 253.825 171.247 255.048C162.817 256.365 155.653 259.47 149.752 264.362C143.852 269.349 140.42 275.183 139.456 281.863C138.975 285.25 137.048 288.12 133.676 290.472C130.305 292.824 126.331 294 121.755 294C116.938 294 112.784 292.636 109.292 289.907C105.8 287.273 104.054 284.027 104.054 280.169C104.054 277.158 105.137 274.524 107.305 272.266C111.279 267.844 113.627 262.904 114.349 257.447C114.951 251.99 113.808 246.768 110.918 241.782C108.027 236.795 103.753 232.702 98.0931 229.503C92.4334 226.304 86.1717 224.375 79.3079 223.717C74.8525 223.34 71.1196 221.835 68.1091 219.201C65.0987 216.566 63.5935 213.461 63.5935 209.886C63.5935 205.746 65.6406 202.265 69.7348 199.442C74.0698 196.526 77.4415 193.044 79.8498 188.999C82.2582 185.047 83.4623 180.813 83.4623 176.297C83.5828 171.875 82.499 167.641 80.2111 163.595C77.9231 159.549 74.6719 156.021 70.4573 153.01C66.3631 150.282 64.316 146.847 64.316 142.708C64.316 140.544 65.0385 138.38 66.4835 136.216C70.096 130.947 71.6012 125.301 70.9991 119.28C70.3971 113.352 67.8081 107.989 63.2322 103.191C58.5359 98.3925 52.5753 94.9112 45.3503 92.7472C38.2456 90.6773 30.9002 90.2539 23.3139 91.477L19.7013 91.7593C14.7642 91.7593 10.6098 90.395 7.23814 87.6665C3.74604 84.938 2 81.6449 2 77.7873C2 74.0238 3.74604 70.7778 7.23814 68.0493C10.6098 65.3208 14.7642 63.9565 19.7013 63.9565C23.6751 63.9565 27.2876 64.8974 30.5389 66.7791C37.1619 70.7308 44.5675 72.8948 52.7559 73.2711C61.1851 73.5534 68.8918 71.9069 75.876 68.3316L78.9467 67.2025C88.2188 64.474 95.203 59.7226 99.8993 52.9483C104.596 46.0799 105.86 38.8822 103.692 31.3552L103.331 28.3915C103.331 24.628 105.017 21.382 108.389 18.6535C111.881 15.9249 116.095 14.5607 121.033 14.5607C124.886 14.5607 128.378 15.4545 131.509 17.2422Z"/>
</mask>
<path d="M131.509 17.2422C135.964 19.8766 140.901 21.6642 146.32 22.6051C151.739 23.546 157.218 23.593 162.757 22.7463C168.056 21.9936 173.053 20.3941 177.749 17.9478C182.325 15.4074 186.058 12.3026 188.948 8.63316C190.513 6.65733 192.621 5.05784 195.27 3.83471C198.039 2.61157 200.929 2 203.94 2C208.757 2 212.971 3.36427 216.584 6.0928C220.076 8.72725 221.822 11.9262 221.822 15.6897V15.972C221.581 22.9344 224.11 29.2853 229.408 35.0247C234.707 40.6699 241.691 44.4804 250.361 46.4563C259.031 48.4321 267.581 48.1028 276.01 45.4683C284.319 42.928 290.761 38.647 295.337 32.6254C297.023 30.5555 299.19 28.909 301.839 27.6858C304.609 26.4627 307.559 25.8511 310.69 25.8511C315.507 25.8511 319.661 27.1684 323.153 29.8028C326.645 32.4373 328.391 35.6362 328.391 39.3997C328.512 44.7627 330.318 49.7493 333.81 54.3596C337.302 58.9699 341.998 62.5922 347.899 65.2267C353.799 67.9552 360.181 69.4136 367.045 69.6017C373.789 69.6958 380.231 68.5197 386.372 66.0735C388.901 65.0385 391.61 64.521 394.5 64.521C399.438 64.521 403.592 65.8853 406.964 68.6138C410.456 71.3424 412.202 74.6354 412.202 78.493C412.202 81.4097 411.118 84.0912 408.95 86.5375C406.903 88.8896 404.134 90.5362 400.642 91.477C391.851 94.0174 385.048 98.4395 380.231 104.743C375.414 111.047 373.728 117.869 375.173 125.207C376.498 132.452 380.652 138.521 387.637 143.413C394.621 148.4 402.809 151.081 412.202 151.458C416.898 151.646 420.872 153.057 424.123 155.692C427.374 158.42 429 161.619 429 165.289C429 169.146 427.254 172.439 423.762 175.168C420.27 177.896 416.055 179.261 411.118 179.261C408.108 179.261 405.157 178.602 402.267 177.285C397.21 174.932 391.61 173.568 385.469 173.192C379.448 172.91 373.608 173.615 367.948 175.309L363.252 176.156C355.907 176.626 349.284 178.461 343.383 181.66C337.362 184.953 332.847 189.187 329.836 194.362C326.946 199.536 325.923 204.993 326.766 210.733C327.609 216.378 330.258 221.459 334.713 225.975C336.76 228.045 337.964 230.35 338.326 232.89C339.289 240.7 343.383 247.286 350.608 252.649C357.954 258.012 366.624 260.74 376.618 260.834C381.435 260.928 385.529 262.34 388.901 265.068C392.273 267.797 393.959 271.043 393.959 274.806C393.959 278.664 392.213 281.91 388.72 284.544C385.228 287.273 381.074 288.637 376.257 288.637C371.561 288.637 367.527 287.461 364.155 285.109C360.784 282.662 358.857 279.699 358.375 276.218C357.532 268.408 353.438 261.822 346.093 256.459C338.747 251.19 330.077 248.462 320.083 248.274C316.109 248.085 312.737 247.145 309.967 245.451C304.308 242.158 297.986 240.135 291.002 239.382C284.017 238.724 277.274 239.429 270.772 241.499C264.269 243.663 258.91 246.956 254.696 251.378C250.361 255.612 247.712 260.505 246.748 266.056C246.146 269.443 244.159 272.266 240.788 274.524C237.536 276.782 233.683 277.911 229.228 277.911C225.856 277.911 222.785 277.252 220.016 275.935C217.246 274.618 215.079 272.877 213.513 270.713C209.419 264.786 203.458 260.411 195.631 257.588C187.924 254.672 179.796 253.825 171.247 255.048C162.817 256.365 155.653 259.47 149.752 264.362C143.852 269.349 140.42 275.183 139.456 281.863C138.975 285.25 137.048 288.12 133.676 290.472C130.305 292.824 126.331 294 121.755 294C116.938 294 112.784 292.636 109.292 289.907C105.8 287.273 104.054 284.027 104.054 280.169C104.054 277.158 105.137 274.524 107.305 272.266C111.279 267.844 113.627 262.904 114.349 257.447C114.951 251.99 113.808 246.768 110.918 241.782C108.027 236.795 103.753 232.702 98.0931 229.503C92.4334 226.304 86.1717 224.375 79.3079 223.717C74.8525 223.34 71.1196 221.835 68.1091 219.201C65.0987 216.566 63.5935 213.461 63.5935 209.886C63.5935 205.746 65.6406 202.265 69.7348 199.442C74.0698 196.526 77.4415 193.044 79.8498 188.999C82.2582 185.047 83.4623 180.813 83.4623 176.297C83.5828 171.875 82.499 167.641 80.2111 163.595C77.9231 159.549 74.6719 156.021 70.4573 153.01C66.3631 150.282 64.316 146.847 64.316 142.708C64.316 140.544 65.0385 138.38 66.4835 136.216C70.096 130.947 71.6012 125.301 70.9991 119.28C70.3971 113.352 67.8081 107.989 63.2322 103.191C58.5359 98.3925 52.5753 94.9112 45.3503 92.7472C38.2456 90.6773 30.9002 90.2539 23.3139 91.477L19.7013 91.7593C14.7642 91.7593 10.6098 90.395 7.23814 87.6665C3.74604 84.938 2 81.6449 2 77.7873C2 74.0238 3.74604 70.7778 7.23814 68.0493C10.6098 65.3208 14.7642 63.9565 19.7013 63.9565C23.6751 63.9565 27.2876 64.8974 30.5389 66.7791C37.1619 70.7308 44.5675 72.8948 52.7559 73.2711C61.1851 73.5534 68.8918 71.9069 75.876 68.3316L78.9467 67.2025C88.2188 64.474 95.203 59.7226 99.8993 52.9483C104.596 46.0799 105.86 38.8822 103.692 31.3552L103.331 28.3915C103.331 24.628 105.017 21.382 108.389 18.6535C111.881 15.9249 116.095 14.5607 121.033 14.5607C124.886 14.5607 128.378 15.4545 131.509 17.2422Z" fill="white"/>
<path d="M131.509 17.2422C135.964 19.8766 140.901 21.6642 146.32 22.6051C151.739 23.546 157.218 23.593 162.757 22.7463C168.056 21.9936 173.053 20.3941 177.749 17.9478C182.325 15.4074 186.058 12.3026 188.948 8.63316C190.513 6.65733 192.621 5.05784 195.27 3.83471C198.039 2.61157 200.929 2 203.94 2C208.757 2 212.971 3.36427 216.584 6.0928C220.076 8.72725 221.822 11.9262 221.822 15.6897V15.972C221.581 22.9344 224.11 29.2853 229.408 35.0247C234.707 40.6699 241.691 44.4804 250.361 46.4563C259.031 48.4321 267.581 48.1028 276.01 45.4683C284.319 42.928 290.761 38.647 295.337 32.6254C297.023 30.5555 299.19 28.909 301.839 27.6858C304.609 26.4627 307.559 25.8511 310.69 25.8511C315.507 25.8511 319.661 27.1684 323.153 29.8028C326.645 32.4373 328.391 35.6362 328.391 39.3997C328.512 44.7627 330.318 49.7493 333.81 54.3596C337.302 58.9699 341.998 62.5922 347.899 65.2267C353.799 67.9552 360.181 69.4136 367.045 69.6017C373.789 69.6958 380.231 68.5197 386.372 66.0735C388.901 65.0385 391.61 64.521 394.5 64.521C399.438 64.521 403.592 65.8853 406.964 68.6138C410.456 71.3424 412.202 74.6354 412.202 78.493C412.202 81.4097 411.118 84.0912 408.95 86.5375C406.903 88.8896 404.134 90.5362 400.642 91.477C391.851 94.0174 385.048 98.4395 380.231 104.743C375.414 111.047 373.728 117.869 375.173 125.207C376.498 132.452 380.652 138.521 387.637 143.413C394.621 148.4 402.809 151.081 412.202 151.458C416.898 151.646 420.872 153.057 424.123 155.692C427.374 158.42 429 161.619 429 165.289C429 169.146 427.254 172.439 423.762 175.168C420.27 177.896 416.055 179.261 411.118 179.261C408.108 179.261 405.157 178.602 402.267 177.285C397.21 174.932 391.61 173.568 385.469 173.192C379.448 172.91 373.608 173.615 367.948 175.309L363.252 176.156C355.907 176.626 349.284 178.461 343.383 181.66C337.362 184.953 332.847 189.187 329.836 194.362C326.946 199.536 325.923 204.993 326.766 210.733C327.609 216.378 330.258 221.459 334.713 225.975C336.76 228.045 337.964 230.35 338.326 232.89C339.289 240.7 343.383 247.286 350.608 252.649C357.954 258.012 366.624 260.74 376.618 260.834C381.435 260.928 385.529 262.34 388.901 265.068C392.273 267.797 393.959 271.043 393.959 274.806C393.959 278.664 392.213 281.91 388.72 284.544C385.228 287.273 381.074 288.637 376.257 288.637C371.561 288.637 367.527 287.461 364.155 285.109C360.784 282.662 358.857 279.699 358.375 276.218C357.532 268.408 353.438 261.822 346.093 256.459C338.747 251.19 330.077 248.462 320.083 248.274C316.109 248.085 312.737 247.145 309.967 245.451C304.308 242.158 297.986 240.135 291.002 239.382C284.017 238.724 277.274 239.429 270.772 241.499C264.269 243.663 258.91 246.956 254.696 251.378C250.361 255.612 247.712 260.505 246.748 266.056C246.146 269.443 244.159 272.266 240.788 274.524C237.536 276.782 233.683 277.911 229.228 277.911C225.856 277.911 222.785 277.252 220.016 275.935C217.246 274.618 215.079 272.877 213.513 270.713C209.419 264.786 203.458 260.411 195.631 257.588C187.924 254.672 179.796 253.825 171.247 255.048C162.817 256.365 155.653 259.47 149.752 264.362C143.852 269.349 140.42 275.183 139.456 281.863C138.975 285.25 137.048 288.12 133.676 290.472C130.305 292.824 126.331 294 121.755 294C116.938 294 112.784 292.636 109.292 289.907C105.8 287.273 104.054 284.027 104.054 280.169C104.054 277.158 105.137 274.524 107.305 272.266C111.279 267.844 113.627 262.904 114.349 257.447C114.951 251.99 113.808 246.768 110.918 241.782C108.027 236.795 103.753 232.702 98.0931 229.503C92.4334 226.304 86.1717 224.375 79.3079 223.717C74.8525 223.34 71.1196 221.835 68.1091 219.201C65.0987 216.566 63.5935 213.461 63.5935 209.886C63.5935 205.746 65.6406 202.265 69.7348 199.442C74.0698 196.526 77.4415 193.044 79.8498 188.999C82.2582 185.047 83.4623 180.813 83.4623 176.297C83.5828 171.875 82.499 167.641 80.2111 163.595C77.9231 159.549 74.6719 156.021 70.4573 153.01C66.3631 150.282 64.316 146.847 64.316 142.708C64.316 140.544 65.0385 138.38 66.4835 136.216C70.096 130.947 71.6012 125.301 70.9991 119.28C70.3971 113.352 67.8081 107.989 63.2322 103.191C58.5359 98.3925 52.5753 94.9112 45.3503 92.7472C38.2456 90.6773 30.9002 90.2539 23.3139 91.477L19.7013 91.7593C14.7642 91.7593 10.6098 90.395 7.23814 87.6665C3.74604 84.938 2 81.6449 2 77.7873C2 74.0238 3.74604 70.7778 7.23814 68.0493C10.6098 65.3208 14.7642 63.9565 19.7013 63.9565C23.6751 63.9565 27.2876 64.8974 30.5389 66.7791C37.1619 70.7308 44.5675 72.8948 52.7559 73.2711C61.1851 73.5534 68.8918 71.9069 75.876 68.3316L78.9467 67.2025C88.2188 64.474 95.203 59.7226 99.8993 52.9483C104.596 46.0799 105.86 38.8822 103.692 31.3552L103.331 28.3915C103.331 24.628 105.017 21.382 108.389 18.6535C111.881 15.9249 116.095 14.5607 121.033 14.5607C124.886 14.5607 128.378 15.4545 131.509 17.2422Z" stroke="#222222" stroke-width="4" mask="url(#path-1-outside-1_2319_2046)"/>
</svg>
