<svg width="403" height="336" viewBox="0 0 403 336" fill="none" xmlns="http://www.w3.org/2000/svg">
<mask id="path-1-outside-1_2319_1936" maskUnits="userSpaceOnUse" x="0" y="0" width="404" height="336" fill="black">
<rect fill="white" width="404" height="336"/>
<path d="M83.6367 70.0287C87.8603 71.9217 92.3856 72.5369 97.2126 71.8744C102.16 71.1172 106.143 69.2715 109.159 66.3374C112.297 63.3086 113.805 59.9012 113.685 56.1152C113.685 52.2345 112.056 48.8271 108.797 45.893L82.5506 22.1832C79.7751 19.6276 78.508 16.6935 78.7493 13.3807C79.1113 9.97331 80.9215 7.18114 84.1797 5.00419C87.3173 2.82724 91.0582 1.83342 95.4025 2.02272C99.6261 2.30667 103.186 3.72642 106.082 6.28196C129.01 26.9157 146.388 46.8868 158.214 66.1954C160.507 69.7921 163.946 72.3476 168.532 73.862L182.832 74.2879C187.659 73.0575 191.339 70.7386 193.873 67.3312C196.528 63.9238 197.373 60.2324 196.408 56.2571L190.796 33.9671C190.193 31.5062 190.796 29.1872 192.606 27.0103C194.416 24.928 196.951 23.6029 200.209 23.035C203.467 22.6564 206.424 23.177 209.078 24.5967C211.854 26.0165 213.543 28.0041 214.147 30.5597C217.284 43.0535 219.336 54.6008 220.301 65.2016C220.663 68.7982 222.292 71.969 225.189 74.7139C228.326 77.3641 232.127 79.0204 236.592 79.683C241.057 80.3455 245.341 79.9196 249.444 78.4052C253.547 76.7015 256.564 74.2406 258.495 71.0225L266.821 57.8189C268.269 55.5473 270.562 53.9855 273.7 53.1337L282.751 53.5596C285.647 54.6954 287.638 56.4938 288.724 58.9547C289.81 61.3209 289.629 63.6871 288.181 66.0534L279.311 79.399C277.139 82.4278 276.415 85.6933 277.139 89.1953C277.743 92.6974 279.613 95.6788 282.751 98.1397C285.888 100.601 289.689 102.068 294.154 102.541C298.499 103.109 302.662 102.541 306.644 100.837L362.939 77.2694L371.99 76.5595C375.127 77.3167 377.48 78.8311 379.049 81.1027C380.618 83.3743 380.92 85.7406 379.954 88.2015C378.989 90.6624 377.058 92.5081 374.162 93.7385C355.699 101.594 338.02 107.699 321.125 112.053C317.988 113 315.272 114.42 312.98 116.313C310.687 118.206 309.118 120.43 308.273 122.985C307.308 125.446 307.187 128.002 307.911 130.652C308.635 133.113 310.083 135.384 312.256 137.467C313.704 138.792 314.367 140.306 314.247 142.01L313.342 144.424C311.894 146.79 311.169 149.298 311.169 151.948C311.29 154.598 312.195 157.059 313.885 159.331C315.574 161.697 317.807 163.543 320.582 164.868C323.478 166.382 326.616 167.234 329.995 167.423L393.349 170.973C395.642 171.068 397.512 171.777 398.961 173.102C400.529 174.522 401.193 176.084 400.952 177.788C400.831 179.681 399.926 181.195 398.237 182.331C396.547 183.467 394.496 183.987 392.082 183.893L354.612 180.201L343.209 180.911C339.588 182.047 336.632 183.893 334.339 186.448C332.046 188.909 330.779 191.654 330.538 194.683C330.296 197.806 331.141 200.693 333.072 203.343C334.641 205.52 335.425 207.839 335.425 210.3C335.546 212.855 334.882 215.316 333.434 217.683C331.021 221.469 327.28 224.024 322.211 225.349C317.022 226.674 312.014 226.39 307.187 224.497C289.81 217.588 274.303 210.679 260.667 203.769C257.529 202.16 254.211 201.308 250.711 201.214C247.212 201.024 243.833 201.592 240.575 202.917C237.437 204.053 234.843 205.804 232.791 208.17C230.86 210.537 229.714 213.092 229.352 215.837L219.577 319.763C219.215 323.927 217.043 327.429 213.061 330.269C208.958 333.014 204.191 334.244 198.761 333.96C193.33 333.676 188.865 331.925 185.366 328.707C181.866 325.489 180.297 321.75 180.659 317.491C183.194 290.421 188.564 266.427 196.77 245.51C198.338 241.629 198.097 237.89 196.045 234.294C193.873 230.602 190.494 227.952 185.909 226.343C181.202 224.639 176.436 224.403 171.609 225.633C166.661 226.864 162.86 229.183 160.205 232.59L144.638 253.034C143.19 255.022 141.018 256.394 138.121 257.152L129.795 256.726C124.485 254.927 119.115 254.927 113.685 256.726C108.254 258.524 104.574 261.553 102.643 265.812L85.8088 302.158C84.7227 304.619 82.6713 306.37 79.6544 307.411L70.6038 307.695C67.4662 306.843 65.2337 305.234 63.9063 302.868C62.5789 300.596 62.4582 298.23 63.5443 295.769C74.1637 272.864 86.3519 253.744 100.109 238.411C102.522 235.571 103.729 232.495 103.729 229.183C103.608 225.775 102.281 222.699 99.7468 219.954C97.3333 217.209 94.0147 215.316 89.7911 214.275C85.8088 213.139 81.7059 213.092 77.4822 214.133L67.8886 214.417C64.5097 213.944 61.4928 212.808 58.8379 211.01C54.8557 208.265 52.6835 204.763 52.3215 200.504C51.9595 196.244 53.5282 192.506 57.0278 189.288L69.8797 178.356C72.6552 175.989 74.405 173.244 75.1291 170.121C75.7324 166.903 75.1894 163.827 73.5 160.893C71.8105 158.053 69.2763 155.734 65.8974 153.936C62.2772 152.327 58.4156 151.57 54.3126 151.664L10.6886 152.942C8.39577 153.037 6.40464 152.469 4.71519 151.238C3.02574 150.008 2.12068 148.494 2 146.695C2 144.897 2.72404 143.382 4.17215 142.152C5.74092 140.827 7.67172 140.117 9.96454 140.022H35.8493C38.9869 140.117 42.0038 139.644 44.9 138.603C47.7962 137.656 50.2097 136.236 52.1405 134.343C54.192 132.45 55.5797 130.321 56.3038 127.954C57.1485 125.494 57.2088 123.08 56.4848 120.714V118.158C56.8468 116.454 57.9932 115.082 59.924 114.041C61.7342 113 63.7253 112.669 65.8974 113.047L67.5265 113.189C72.4742 113.946 77.1202 113.378 81.4645 111.485C85.8088 109.592 88.886 106.8 90.6962 103.109C92.2649 99.4175 92.2046 95.7262 90.5151 92.0348C88.705 88.3435 85.6278 85.5986 81.2835 83.8003L72.5949 80.1089C70.6641 79.1624 69.3367 77.8373 68.6126 76.1336C68.0092 74.5246 68.2506 72.9155 69.3367 71.3065C70.4228 69.6974 72.0519 68.6563 74.224 68.183L80.3784 68.609L83.6367 70.0287Z"/>
</mask>
<path d="M83.6367 70.0287C87.8603 71.9217 92.3856 72.5369 97.2126 71.8744C102.16 71.1172 106.143 69.2715 109.159 66.3374C112.297 63.3086 113.805 59.9012 113.685 56.1152C113.685 52.2345 112.056 48.8271 108.797 45.893L82.5506 22.1832C79.7751 19.6276 78.508 16.6935 78.7493 13.3807C79.1113 9.97331 80.9215 7.18114 84.1797 5.00419C87.3173 2.82724 91.0582 1.83342 95.4025 2.02272C99.6261 2.30667 103.186 3.72642 106.082 6.28196C129.01 26.9157 146.388 46.8868 158.214 66.1954C160.507 69.7921 163.946 72.3476 168.532 73.862L182.832 74.2879C187.659 73.0575 191.339 70.7386 193.873 67.3312C196.528 63.9238 197.373 60.2324 196.408 56.2571L190.796 33.9671C190.193 31.5062 190.796 29.1872 192.606 27.0103C194.416 24.928 196.951 23.6029 200.209 23.035C203.467 22.6564 206.424 23.177 209.078 24.5967C211.854 26.0165 213.543 28.0041 214.147 30.5597C217.284 43.0535 219.336 54.6008 220.301 65.2016C220.663 68.7982 222.292 71.969 225.189 74.7139C228.326 77.3641 232.127 79.0204 236.592 79.683C241.057 80.3455 245.341 79.9196 249.444 78.4052C253.547 76.7015 256.564 74.2406 258.495 71.0225L266.821 57.8189C268.269 55.5473 270.562 53.9855 273.7 53.1337L282.751 53.5596C285.647 54.6954 287.638 56.4938 288.724 58.9547C289.81 61.3209 289.629 63.6871 288.181 66.0534L279.311 79.399C277.139 82.4278 276.415 85.6933 277.139 89.1953C277.743 92.6974 279.613 95.6788 282.751 98.1397C285.888 100.601 289.689 102.068 294.154 102.541C298.499 103.109 302.662 102.541 306.644 100.837L362.939 77.2694L371.99 76.5595C375.127 77.3167 377.48 78.8311 379.049 81.1027C380.618 83.3743 380.92 85.7406 379.954 88.2015C378.989 90.6624 377.058 92.5081 374.162 93.7385C355.699 101.594 338.02 107.699 321.125 112.053C317.988 113 315.272 114.42 312.98 116.313C310.687 118.206 309.118 120.43 308.273 122.985C307.308 125.446 307.187 128.002 307.911 130.652C308.635 133.113 310.083 135.384 312.256 137.467C313.704 138.792 314.367 140.306 314.247 142.01L313.342 144.424C311.894 146.79 311.169 149.298 311.169 151.948C311.29 154.598 312.195 157.059 313.885 159.331C315.574 161.697 317.807 163.543 320.582 164.868C323.478 166.382 326.616 167.234 329.995 167.423L393.349 170.973C395.642 171.068 397.512 171.777 398.961 173.102C400.529 174.522 401.193 176.084 400.952 177.788C400.831 179.681 399.926 181.195 398.237 182.331C396.547 183.467 394.496 183.987 392.082 183.893L354.612 180.201L343.209 180.911C339.588 182.047 336.632 183.893 334.339 186.448C332.046 188.909 330.779 191.654 330.538 194.683C330.296 197.806 331.141 200.693 333.072 203.343C334.641 205.52 335.425 207.839 335.425 210.3C335.546 212.855 334.882 215.316 333.434 217.683C331.021 221.469 327.28 224.024 322.211 225.349C317.022 226.674 312.014 226.39 307.187 224.497C289.81 217.588 274.303 210.679 260.667 203.769C257.529 202.16 254.211 201.308 250.711 201.214C247.212 201.024 243.833 201.592 240.575 202.917C237.437 204.053 234.843 205.804 232.791 208.17C230.86 210.537 229.714 213.092 229.352 215.837L219.577 319.763C219.215 323.927 217.043 327.429 213.061 330.269C208.958 333.014 204.191 334.244 198.761 333.96C193.33 333.676 188.865 331.925 185.366 328.707C181.866 325.489 180.297 321.75 180.659 317.491C183.194 290.421 188.564 266.427 196.77 245.51C198.338 241.629 198.097 237.89 196.045 234.294C193.873 230.602 190.494 227.952 185.909 226.343C181.202 224.639 176.436 224.403 171.609 225.633C166.661 226.864 162.86 229.183 160.205 232.59L144.638 253.034C143.19 255.022 141.018 256.394 138.121 257.152L129.795 256.726C124.485 254.927 119.115 254.927 113.685 256.726C108.254 258.524 104.574 261.553 102.643 265.812L85.8088 302.158C84.7227 304.619 82.6713 306.37 79.6544 307.411L70.6038 307.695C67.4662 306.843 65.2337 305.234 63.9063 302.868C62.5789 300.596 62.4582 298.23 63.5443 295.769C74.1637 272.864 86.3519 253.744 100.109 238.411C102.522 235.571 103.729 232.495 103.729 229.183C103.608 225.775 102.281 222.699 99.7468 219.954C97.3333 217.209 94.0147 215.316 89.7911 214.275C85.8088 213.139 81.7059 213.092 77.4822 214.133L67.8886 214.417C64.5097 213.944 61.4928 212.808 58.8379 211.01C54.8557 208.265 52.6835 204.763 52.3215 200.504C51.9595 196.244 53.5282 192.506 57.0278 189.288L69.8797 178.356C72.6552 175.989 74.405 173.244 75.1291 170.121C75.7324 166.903 75.1894 163.827 73.5 160.893C71.8105 158.053 69.2763 155.734 65.8974 153.936C62.2772 152.327 58.4156 151.57 54.3126 151.664L10.6886 152.942C8.39577 153.037 6.40464 152.469 4.71519 151.238C3.02574 150.008 2.12068 148.494 2 146.695C2 144.897 2.72404 143.382 4.17215 142.152C5.74092 140.827 7.67172 140.117 9.96454 140.022H35.8493C38.9869 140.117 42.0038 139.644 44.9 138.603C47.7962 137.656 50.2097 136.236 52.1405 134.343C54.192 132.45 55.5797 130.321 56.3038 127.954C57.1485 125.494 57.2088 123.08 56.4848 120.714V118.158C56.8468 116.454 57.9932 115.082 59.924 114.041C61.7342 113 63.7253 112.669 65.8974 113.047L67.5265 113.189C72.4742 113.946 77.1202 113.378 81.4645 111.485C85.8088 109.592 88.886 106.8 90.6962 103.109C92.2649 99.4175 92.2046 95.7262 90.5151 92.0348C88.705 88.3435 85.6278 85.5986 81.2835 83.8003L72.5949 80.1089C70.6641 79.1624 69.3367 77.8373 68.6126 76.1336C68.0092 74.5246 68.2506 72.9155 69.3367 71.3065C70.4228 69.6974 72.0519 68.6563 74.224 68.183L80.3784 68.609L83.6367 70.0287Z" fill="#5D5FEF"/>
<path d="M83.6367 70.0287C87.8603 71.9217 92.3856 72.5369 97.2126 71.8744C102.16 71.1172 106.143 69.2715 109.159 66.3374C112.297 63.3086 113.805 59.9012 113.685 56.1152C113.685 52.2345 112.056 48.8271 108.797 45.893L82.5506 22.1832C79.7751 19.6276 78.508 16.6935 78.7493 13.3807C79.1113 9.97331 80.9215 7.18114 84.1797 5.00419C87.3173 2.82724 91.0582 1.83342 95.4025 2.02272C99.6261 2.30667 103.186 3.72642 106.082 6.28196C129.01 26.9157 146.388 46.8868 158.214 66.1954C160.507 69.7921 163.946 72.3476 168.532 73.862L182.832 74.2879C187.659 73.0575 191.339 70.7386 193.873 67.3312C196.528 63.9238 197.373 60.2324 196.408 56.2571L190.796 33.9671C190.193 31.5062 190.796 29.1872 192.606 27.0103C194.416 24.928 196.951 23.6029 200.209 23.035C203.467 22.6564 206.424 23.177 209.078 24.5967C211.854 26.0165 213.543 28.0041 214.147 30.5597C217.284 43.0535 219.336 54.6008 220.301 65.2016C220.663 68.7982 222.292 71.969 225.189 74.7139C228.326 77.3641 232.127 79.0204 236.592 79.683C241.057 80.3455 245.341 79.9196 249.444 78.4052C253.547 76.7015 256.564 74.2406 258.495 71.0225L266.821 57.8189C268.269 55.5473 270.562 53.9855 273.7 53.1337L282.751 53.5596C285.647 54.6954 287.638 56.4938 288.724 58.9547C289.81 61.3209 289.629 63.6871 288.181 66.0534L279.311 79.399C277.139 82.4278 276.415 85.6933 277.139 89.1953C277.743 92.6974 279.613 95.6788 282.751 98.1397C285.888 100.601 289.689 102.068 294.154 102.541C298.499 103.109 302.662 102.541 306.644 100.837L362.939 77.2694L371.99 76.5595C375.127 77.3167 377.48 78.8311 379.049 81.1027C380.618 83.3743 380.92 85.7406 379.954 88.2015C378.989 90.6624 377.058 92.5081 374.162 93.7385C355.699 101.594 338.02 107.699 321.125 112.053C317.988 113 315.272 114.42 312.98 116.313C310.687 118.206 309.118 120.43 308.273 122.985C307.308 125.446 307.187 128.002 307.911 130.652C308.635 133.113 310.083 135.384 312.256 137.467C313.704 138.792 314.367 140.306 314.247 142.01L313.342 144.424C311.894 146.79 311.169 149.298 311.169 151.948C311.29 154.598 312.195 157.059 313.885 159.331C315.574 161.697 317.807 163.543 320.582 164.868C323.478 166.382 326.616 167.234 329.995 167.423L393.349 170.973C395.642 171.068 397.512 171.777 398.961 173.102C400.529 174.522 401.193 176.084 400.952 177.788C400.831 179.681 399.926 181.195 398.237 182.331C396.547 183.467 394.496 183.987 392.082 183.893L354.612 180.201L343.209 180.911C339.588 182.047 336.632 183.893 334.339 186.448C332.046 188.909 330.779 191.654 330.538 194.683C330.296 197.806 331.141 200.693 333.072 203.343C334.641 205.52 335.425 207.839 335.425 210.3C335.546 212.855 334.882 215.316 333.434 217.683C331.021 221.469 327.28 224.024 322.211 225.349C317.022 226.674 312.014 226.39 307.187 224.497C289.81 217.588 274.303 210.679 260.667 203.769C257.529 202.16 254.211 201.308 250.711 201.214C247.212 201.024 243.833 201.592 240.575 202.917C237.437 204.053 234.843 205.804 232.791 208.17C230.86 210.537 229.714 213.092 229.352 215.837L219.577 319.763C219.215 323.927 217.043 327.429 213.061 330.269C208.958 333.014 204.191 334.244 198.761 333.96C193.33 333.676 188.865 331.925 185.366 328.707C181.866 325.489 180.297 321.75 180.659 317.491C183.194 290.421 188.564 266.427 196.77 245.51C198.338 241.629 198.097 237.89 196.045 234.294C193.873 230.602 190.494 227.952 185.909 226.343C181.202 224.639 176.436 224.403 171.609 225.633C166.661 226.864 162.86 229.183 160.205 232.59L144.638 253.034C143.19 255.022 141.018 256.394 138.121 257.152L129.795 256.726C124.485 254.927 119.115 254.927 113.685 256.726C108.254 258.524 104.574 261.553 102.643 265.812L85.8088 302.158C84.7227 304.619 82.6713 306.37 79.6544 307.411L70.6038 307.695C67.4662 306.843 65.2337 305.234 63.9063 302.868C62.5789 300.596 62.4582 298.23 63.5443 295.769C74.1637 272.864 86.3519 253.744 100.109 238.411C102.522 235.571 103.729 232.495 103.729 229.183C103.608 225.775 102.281 222.699 99.7468 219.954C97.3333 217.209 94.0147 215.316 89.7911 214.275C85.8088 213.139 81.7059 213.092 77.4822 214.133L67.8886 214.417C64.5097 213.944 61.4928 212.808 58.8379 211.01C54.8557 208.265 52.6835 204.763 52.3215 200.504C51.9595 196.244 53.5282 192.506 57.0278 189.288L69.8797 178.356C72.6552 175.989 74.405 173.244 75.1291 170.121C75.7324 166.903 75.1894 163.827 73.5 160.893C71.8105 158.053 69.2763 155.734 65.8974 153.936C62.2772 152.327 58.4156 151.57 54.3126 151.664L10.6886 152.942C8.39577 153.037 6.40464 152.469 4.71519 151.238C3.02574 150.008 2.12068 148.494 2 146.695C2 144.897 2.72404 143.382 4.17215 142.152C5.74092 140.827 7.67172 140.117 9.96454 140.022H35.8493C38.9869 140.117 42.0038 139.644 44.9 138.603C47.7962 137.656 50.2097 136.236 52.1405 134.343C54.192 132.45 55.5797 130.321 56.3038 127.954C57.1485 125.494 57.2088 123.08 56.4848 120.714V118.158C56.8468 116.454 57.9932 115.082 59.924 114.041C61.7342 113 63.7253 112.669 65.8974 113.047L67.5265 113.189C72.4742 113.946 77.1202 113.378 81.4645 111.485C85.8088 109.592 88.886 106.8 90.6962 103.109C92.2649 99.4175 92.2046 95.7262 90.5151 92.0348C88.705 88.3435 85.6278 85.5986 81.2835 83.8003L72.5949 80.1089C70.6641 79.1624 69.3367 77.8373 68.6126 76.1336C68.0092 74.5246 68.2506 72.9155 69.3367 71.3065C70.4228 69.6974 72.0519 68.6563 74.224 68.183L80.3784 68.609L83.6367 70.0287Z" stroke="#222222" stroke-width="4" mask="url(#path-1-outside-1_2319_1936)"/>
</svg>
