<svg width="85" height="85" viewBox="0 0 85 85" fill="none" xmlns="http://www.w3.org/2000/svg">
<path d="M5.46888 46.9439C4.95033 46.661 4.57321 46.2603 4.33751 45.7418C4.1018 45.2232 4.01931 44.6693 4.09002 44.0801L4.69106 42.5598L13.9542 30.7511C14.4727 30.0912 15.1327 29.714 15.9341 29.6197C16.759 29.5019 17.5015 29.7022 18.1614 30.2208C18.7978 30.7629 19.1632 31.4347 19.2575 32.236C19.3753 33.061 19.175 33.8035 18.6564 34.4634L17.3483 36.1251C29.2748 32.731 38.5025 33.7563 45.0315 39.201C46.1157 40.0496 46.7521 41.1574 46.9407 42.5244C47.1293 43.8915 46.7993 45.1172 45.9507 46.2014C45.1022 47.2856 43.9944 47.922 42.6273 48.1106C41.2603 48.2992 40.0346 47.9692 38.9504 47.1206C33.8356 43.6087 26.3992 43.5026 16.6412 46.8024L18.9393 48.1813C19.6228 48.6291 20.0706 49.2655 20.2828 50.0905C20.4713 50.8919 20.3535 51.6461 19.9292 52.3532C19.4814 53.0368 18.8568 53.4728 18.0554 53.6614C17.2304 53.8735 16.4762 53.7557 15.7926 53.3078L5.46888 46.9439ZM61.6485 23.9983C64.8541 23.244 67.0579 23.6565 68.26 25.2357C69.792 26.3906 70.1927 28.5827 69.462 31.8118L62.8506 60.6264C61.7192 65.4818 58.7258 68.4753 53.8703 69.6066L53.835 69.642L36.0159 73.6725L36.0512 73.6371C32.8221 74.415 30.6183 74.0261 29.4398 72.4704C28.6148 71.834 28.1316 70.9266 27.9902 69.7481C26.906 69.7009 26.0339 69.3474 25.3739 68.6874C23.6533 67.7682 22.9462 65.6704 23.2526 62.3941V62.3234L24.384 47.8985C26.5524 47.5213 28.5677 47.3917 30.4297 47.5096L29.2277 62.8538L29.0155 63.773L29.8641 63.278L29.9701 63.2427H30.0408L30.253 63.1013L46.9053 56.7019L46.9407 56.6666C49.2506 55.7238 50.4998 54.0267 50.6884 51.5754L50.7237 51.6108L52.5622 28.5591V27.9227L53.0218 22.1598L53.2339 21.0284C53.0925 21.217 52.7979 21.3937 52.3501 21.5587L52.3147 21.5941L35.2381 28.2055L35.2734 28.1702L32.0561 31.1754C30.0526 31.0575 27.9431 31.1165 25.7275 31.3522C26.4817 27.2038 28.9213 24.2929 33.046 22.6194L33.0814 22.584L50.158 15.9726L50.1227 16.0079C53.1868 14.7823 55.4142 14.8648 56.8048 16.2554C58.5019 17.1982 59.2326 19.3196 58.9969 22.6194L58.8201 24.6346L61.6485 23.9983Z" fill="#ddd"/>
</svg>
